<?xml version="1.0" encoding="utf-8"?>
<!-- Generator: Adobe Illustrator 27.7.0, SVG Export Plug-In . SVG Version: 6.00 Build 0)  -->
<svg version="1.1" id="Layer_1" xmlns="http://www.w3.org/2000/svg" xmlns:xlink="http://www.w3.org/1999/xlink" x="0px" y="0px"
	 viewBox="0 0 1664.5 1406" style="enable-background:new 0 0 1664.5 1406;" xml:space="preserve">
<style type="text/css">
	.st0{fill:#231F20;}
	.st1{fill:#FFF4E0;}
	.st2{fill:#FDD046;}
	.st3{fill:#010101;}
	.st4{fill:#517BF3;}
	.st5{fill:#3B3626;}
	.st6{fill:#AF8A1C;}
	.st7{fill:#FFFFFF;}
</style>
<rect x="4016.8" y="-783.8" class="st0" width="1900" height="1666.8"/>
<path class="st1" d="M630.6,1112.8c-0.5,5.6-0.1,11.2-0.1,16.8c0,0.6,0,1.2,0.1,1.8c0,0.7,0,1.4-0.1,2c0,0.3,0,0.6,0,1v3
	c0,2.3,0,4.7,0,7c-2.5,9.9-7.6,19.3-6,30c0,0.3,0,0.6,0,1c-10.3,7-20.7,14-31,21c-3.3,0-6.7,0-10,0c-8.6,0-17.2-0.2-25.8,0.1
	c-4.2,0.1-6.2-1.2-7.5-5.3c-1.4-4.8-3.8-9.2-5.7-13.8c-0.7-8.9-2.5-10.7-9.9-10c-7.3,0.7-14.7,1.3-22.1,1.9c0-1,0-2,0-3
	c-0.7-2.4-1.5-4.7-2-7.1c-0.9-4.6-3.9-8.9-0.9-14c3-5.2,5.2-11,8.3-16.2c2.7-4.4,5.9-8.6,9.5-12.3c3.7-4,8.1-7.4,12.2-11.1
	c0.6-0.7,1.2-1.5,1.9-2.2c0.8,0.2,1.8,0.8,2.2,0.5c4.9-3.9,10.2-7.4,14.3-12c4.6-5.1,8.3-2.9,12.4-0.1c0.7,0.5,1.2,1.2,1.9,1.6
	c5,3,9.8,7.1,15.2,8.8c6.6,2.1,13.9,2.3,20.9,3.1c5.6,0.6,11.2,0.7,16.8,1.2C628.6,1106.9,631,1108.2,630.6,1112.8z"/>
<path class="st1" d="M1337.5,333c-0.2,0.3-0.4,0.5-0.6,0.8c-8,9.4-15.9,19-24.2,28.1c-5,5.5-10.8,10.4-16.2,15.5c0,0.8,0,1.5,0,2.2
	c-0.2,0.6-0.4,1.2-0.7,1.8c-4.1-1.6-5.6,2.4-8.3,3.9c-0.7,1.4-1.5,2.8-2.2,4.2c-1.1,0.2-2.5,0-3.3,0.6c-6.1,3.9-11.9,8.1-18,11.9
	c-5,3.1-10.2,6-15.3,8.9c-6.4,3.6-12.8,7.1-19.2,10.6c-1.7,0.7-3.3,1.3-5,2c-7.9,2.8-15.6,6.1-23.6,8.2c-15.1,4-30.3,7.4-45.6,10.7
	c-6.5,1.4-13.2,2-19.8,3h-42c-0.6-0.3-1.1-0.8-1.7-0.9c-11.6-1.4-23.2-2.4-34.7-4.2c-5.5-0.8-11.7-0.2-15.8-5.6
	c-2.9-3.9-6.1-7.7-9.4-11.3c-2.2-2.5-4.9-4.7-7.3-7c-0.7-0.7-1.3-1.3-2-2c-2.9-4-5.5-8.2-8.6-12c-7.2-8.7-14.5-17.2-21.9-25.7
	c-4.8-5.5-9.7-10.8-14.5-16.2c-0.3-0.3-0.7-0.7-1-1c-6.3-7.8-12.5-15.6-18.9-23.3c-4.9-5.9-9.9-11.8-15.1-17.5
	c-4.2-4.6-8.7-8.8-13-13.2c-0.7-1-1.3-2-2-3c-2-2.3-4-4.7-6-7c-0.7-1-1.3-2-2-3c-1.7-2-3.3-4-5-6c0.3-0.7,0.6-1.3,1-2
	c0.3,0,0.7,0,1,0c1.3,0.6,2.7,1.3,4,2c2.7,0.4,5.3,0.7,8,1.1c2.7,0.7,5.3,1.3,8,2c10,1.7,20.1,4.5,30.1,4.7
	c17.9,0.3,35.8-0.8,53.7-1.9c5.5-0.3,10.8-2.5,16.2-3.8c1.3-0.3,2.7-0.7,4-1c2.3-0.3,4.7-0.7,7-1c3-1,6-2,9-3c3.7-1,7.3-2,11-3
	c1.3-0.3,2.7-0.7,4-1c3.3-1.7,6.7-3.3,10-5c1.3-0.3,2.7-0.7,4-1c1-0.7,2-1.3,3-2c1.7-0.4,3.3-0.7,5-1.1c3.7-2,7.3-4,11-6
	c1.7-1,3.3-2,5-3c3.3-2,6.7-4,10-6c0.3-0.3,0.7-0.7,1-1c1.7-0.7,3.3-1.4,5-2c2.3-2,4.7-4,7-6c1.3-1,2.7-2,4-3c2-1.3,4-2.7,6-4
	c0.7-0.3,1.3-0.7,2-1c6-5,12-10,18-15c1.3-1,2.7-2,4-3c0.7-0.7,1.3-1.3,2-2c4-4,8-8,12-12c1.3-1.3,2.7-2.7,4-4c4-4,8-8,12-12
	c3.5-3.8,6.2-0.7,9,1c2.3,2.3,4.7,4.7,7,7c5,4.7,10,9.3,15,14c1,0.7,2,1.3,3,2c0.7,0.7,1.3,1.3,2,2c3.3,3.3,6.7,6.7,10,10
	c1,0.7,2,1.4,3,2c2,2.3,4,4.6,6,7c1,1,2,2,3,3c2.4,2.2,4.8,4.5,7.1,6.7c8.9,8.4,17.9,16.9,26.8,25.3c0.7,0.3,1.3,0.7,2,1
	c1.7,1.7,3.4,3.3,5,5c1.3,1,2.7,2,4,3c1.8,2,3.7,4,5.5,5.9c0.8,0.7,1.7,1.3,2.5,2c0.4,0.9,0.7,1.9,1.3,2.6
	c8.7,8.1,17.9,15.7,26,24.3C1344.8,324.9,1346.3,320.6,1337.5,333z"/>
<path class="st2" d="M451.5,1038.1c-1.7,5.6-5.5,5.4-10.4,4.5c-43-7.7-86.1-15.1-129.2-22.6c-39.5-6.9-79-13.7-118.4-20.7
	c-13.6-2.4-27.3-3.9-40.5-8.1c-2.4-0.8-4.2-2.7-6.8-2.7c-1.4-3.1-4.8-0.4-6.7-2.2c-6.9-3.6-13.8-6.9-20.5-10.8
	c-22-12.7-39.8-29.5-49.9-53.3c-8.5-20-9.3-40.6-5.3-61.7c4.9-25.9,17-48.6,30.7-70.5c19.7-31.8,43.4-60.5,68.5-88.1
	c37.2-41,77.4-78.8,118-116.4c22.5-20.8,48.4-36.1,77.3-46.4c8.3,0.8,16.7,1.5,25,2.3c7.7,0.8,15.5,1.7,23.2,2.5
	c1.5,0.1,3.7,1.1,4.5-0.7c0.7-1.8-1.6-2.6-2.7-3.7c-2.8-3.2-6.6-5.5-8.4-9.6c1.2-1.5,3-1.5,4.6-1.5c17.2-0.5,34.3-2.7,51.5-3.5
	c23.8-1.2,47.5-0.8,71.3-0.7c1.8,0,3.7,0.5,4.8-1.5c0.2,1.2,0.3,2.5,2.1,2.5c28.8,39.2,66.1,65.2,114.9,72.8
	c27.1,4.2,53.1,0.6,76.9-14.1c12.7-7.8,23.8-17.5,31.7-30.5l0.3-0.1l0.2,0.3c0.3,27.2-0.1,54.4-1,81.5c-1.9,2-1,4.4-1,6.6
	c-0.7,43.8-1.3,87.5-1.9,131.3c-0.4,31.3-1.2,62.6-1.2,93.9c0,16.1-2,32.2,0.7,48.2c2.7,16.1,8.9,30.7,19,43.4
	c4.2,5.3,9.1,10,13.7,15c-1.7,0.9-3.6,0.6-5.4,0.6c-10.2,0-20.3,0-30.5-0.1c-3.8-0.1-9,1.7-11-0.8c-1.9-2.5,0.9-7.2,1.8-10.8
	c4.6-18.3-4.6-36.3-22.2-43.3c-14.1-5.6-28.4-10.5-42.8-15.2c-1.7-0.6-3.4-1.6-5.2-0.5c0,0,0,0,0,0c0-0.3,0-0.5,0-0.8
	c-0.4,0.2-0.7,0.4-1.1,0.5c-1.1-0.5-1.5-2.2-3.1-1.9c-6.2-8.3-12.3-16.5-18.5-24.8c-17.6-23.6-35.1-47.2-52.8-70.8
	c-4.3-5.8-10.2-6.7-15.1-2.8c-4.5,3.6-4.7,9.4-0.4,15c17.3,23,34.6,46,51.8,69c0.9,1.2,2.6,2.2,2,4.4c-1.2-0.3-2.3-0.5-3.4-0.8
	c-13.3-3.4-26.6-7-40-10.1c-14.4-3.4-28.9-6.4-43.4-9.4c-7.1-1.5-14.2-3.7-21.5-3.7c-2-2.6-5.1-2.3-7.7-2.9
	c-24.3-5.5-48.6-10.8-72.9-16.2c-31.4-6.9-62.8-13.8-94.1-20.8c-6.2-1.4-12.5-2.3-19-4.7c35.1-41.3,70.2-81.8,105.2-123.4
	c-2.6-0.5-3.2,0.1-3.7,0.7c-12.9,15-25.9,30-38.7,45c-21.2,24.8-42.4,49.6-63.5,74.4c-1.8,2.1-3.7,2.9-6.5,2.3
	c-11-2.2-21.9-4.4-33-6.2c-5.2-0.9-10.4-3-15.9-2.1c0.2,1.8,1.3,1.9,2.2,2.1c9.9,2.5,20,3.6,29.9,6.1c8.5,2.2,17.4,2.8,26.1,4.6
	c19.6,4.1,39.2,8.5,58.8,12.8c31.2,6.9,62.4,13.8,93.6,20.6c13,2.8,25.7,6.8,39,8.2c-0.4,1.3-0.6,2.6-1.1,3.8
	c-21.3,48.5-42.7,96.9-63.9,145.5c-2.6,6-6.2,11.7-7.2,18.4C451.8,1036,451,1036.6,451.5,1038.1z"/>
<path class="st2" d="M904,976c-5.8,0-11.6,0.1-17.4,0.1c-5.4,0-5.6,0.2-4.3,5.5c0.5,1.7,2.1,3,1.9,5c-33.1,12.8-64.1,9.1-93-11.7
	c0.3-2.1-1.4-2.8-2.7-3.9c-14.8-12.5-24.9-28.1-30.2-46.8c-4.2-14.5-3.1-29.4-3-44.2c1-81.3,2.1-162.5,3.1-243.8
	c6.9,1.9,14.1,1.6,21.2,2.2c21.4,2,42.8,1.8,64.2,0.1c13.2-1.1,26.5-2.4,39.7-3.6c0.8,0,1.6,0.1,2.4,0.1
	c3.9,15.8,7.8,31.6,11.7,47.5c14.5,59.7,27.7,119.6,38.8,180c2.5,13.4,5.7,26.7,5.2,40.5c-0.9,27.9-12.6,50.6-33.3,68.9
	C906.8,973.2,904.9,974.1,904,976z"/>
<path class="st3" d="M237.7,1198.2c-8.8-1.1-17.6-0.6-26.3-0.1c-11.7,0.6-23.4,1.7-35.1,1.7c-12.3,0-24.5,0.6-36.7,1.3
	c-10.6,0.6-21.2-0.3-31.7,0.9c-10,1.2-19.8,0.4-29.8,0.8c-2.3,0.1-3.4,0.1-3.9-3.1c-2-14.1-3.9-28.3-6.6-42.3
	c-2.2-11.9-3.7-24-5.1-36c-1.1-9.6-0.9-9.7,9.2-12.5c34.4-9.4,68.9-18.7,103.4-28.1c17.5-4.8,35.1-9.5,52.6-14.6
	c9-2.6,18.3-4.4,27.3-7.4c2.6-0.9,4.2-3.6,7.2-3.9c2.9-0.3,4,0.2,4.3,3.5c0.7,7.9,2.1,15.8,3.2,23.7c1.2,8.4,2.4,16.8,3.6,25.2
	c1.4,10,2.6,20,4,30c0.4,3.1,2.9,1.5,4.3,1.3c8.5-1.5,16.9-3.5,25.7-3.8c14.5-0.6,25.8,4.1,32.8,17.4c2.6,4.9,6.4,6.8,12.1,6.8
	c18.4,0,36.8-2.2,55.2-1.1c16.2,1,32.6,0.5,48.3,5.1c5,1.5,10.1,3.2,13.8,7.4c4.9,5.6,3.8,11.5-2.9,14.6c-5.8,2.7-12,3.6-18.2,3.8
	c-12.6,0.3-25.3,0.1-38,0.1c-4.8,0-9.5,0.9-14.2,1.9c-3.5,0.8-6.6,2.5-5.9,7.1c0.4,3.1-2.4,3.7-4.1,3.9c-10,1.1-20,1.4-30.2,0.4
	c-7.5-0.8-15-1.5-22.5-2.3c-7.8-0.8-15.5-2.4-23.3-2.6c-9.4-0.3-18.9-3.3-28.4,0.2c-2,0.7-3.8,1.1-5.4-0.8c-0.9-1-2.2-0.8-3.3-0.6
	c-11,1.6-22.2,0.4-33.2,1.7C239,1196.9,238.1,1196.6,237.7,1198.2z M116.2,1099.8c-15.8,3.7-31.1,8.9-47,12.2c-3,0.6-5.7,1.8-5,6.2
	c1.9,11.6,3.5,23.2,5.3,34.7c2.3,15,4.7,30,6.7,45.1c0.3,2.2,1.2,2.8,3.2,2.8c3.8,0,7.6-0.8,11.2-0.7c13.2,0.2,26.4-1.2,39.7-1.1
	c1.3,2,3.3,0.9,5,0.9c22-0.6,43.9-1.3,65.9-2.1c1.8-0.1,4.1,0.5,5.3-1.7c5.6-0.3,11.2-0.9,16.7-0.9c13.4,0.1,26.8-1.5,40.2-1.3
	c3,0.1,6,0.3,9-0.1c1.4-0.2,4.2,0,3.7-2.6c-1-4.8-1.4-9.6-2-14.5c-1.4-11-3.3-21.9-4.8-32.8c-1.4-10-3-19.9-4.3-29.9
	c-1.1-8.8-2.6-17.7-3.7-26.5c-1-7.5-2-14.9-3.2-22.4c-0.3-2.1-1.1-3.9-4.2-2.9c-3.9,1.2-8,1.8-11.9,3c-18.1,5.5-36.5,9.9-54.7,15.2
	c-2-1.2-3.9-0.3-5.7,0.2c-20.4,5.5-40.8,11-61.2,16.6C119,1097.6,116.5,1097.1,116.2,1099.8z M278.4,1188.7
	c-0.5,2.2-0.1,4.3,1.6,5.9c0.3,0.3,1.6,0.2,1.8,0c1-1.9,0.5-3.9,0.4-5.9c0-0.3-0.1-0.7-0.2-1c-1.6-10.8-3.3-21.6-4.6-32.4
	c-1.3-10.5-2.9-21.1-4.5-31.6c-2-12.9-3.3-25.8-5.5-38.6c-1.4-8.3-2.2-16.8-3.2-25.2c-0.2-1.8-1.2-2.2-2.7-2
	c-1.9,0.2-1.3,1.7-1.2,2.7c0.1,1.3,0.9,2.5,1,3.8c1.1,13.5,3.4,26.8,5.2,40.2c1.8,13.2,3.5,26.4,5.8,39.5c1.6,9.1,2.7,18.4,3.9,27.6
	C277.1,1177.4,277.7,1183,278.4,1188.7z"/>
<path class="st3" d="M399.9,529.8c1.8,4.1,5.6,6.4,8.4,9.6c1,1.2,3.4,2,2.7,3.7c-0.7,1.8-3,0.9-4.5,0.7c-7.7-0.7-15.5-1.7-23.2-2.5
	c-8.3-0.8-16.7-1.6-25-2.3c-7.8-1-15.5-2.1-23.3-2.9c-5.2-0.6-10.5-1.2-15.7-1c-7,0.3-13.6-1.8-20.4-2.3c-7.8-0.6-15.5-1.9-23.3-2.8
	c-11.2-1.3-22.4-2.6-33.7-3.8c-7.7-0.8-15.4-1.3-23.1-2.1c-8.4-0.9-17-1.5-25.3-3.3c-4.7-1-7.3-6.1-10.3-9.6
	c-6.9-8.2-13.1-17.1-19.4-25.9c-7.4-10.4-13.4-21.7-19.2-33c-9.6-18.4-15.8-38.1-20.1-58.3c-4-18.7-4.5-38-4-57.2
	c0.4-17.1,3.2-33.9,7-50.5c7.7-33.2,21.2-63.9,39-92.9c2-3.3,4-3.8,7.2-2.8c12.8,4,25.9,6.7,38.9,10c10.8,2.8,21.7,5,32.5,7.9
	c18.8,5.1,37.9,9.4,56.8,14.2c22.1,5.6,44.2,11,66.4,16.3c7.8,1.8,7.9,1.9,4.8,9.6c-6.9,17.3-12.5,34.9-17,52.9
	c-3.5,14.1-5.9,28.4-8,42.8c-2.6,18-2.2,36.1-1.6,54.1c0.5,14.9,3.4,29.5,7.1,44c8.1,31.4,22.2,59.6,42.9,84.6
	C397.5,528.1,398.3,529.3,399.9,529.8z M405.4,541c-0.8-1.1-1.2-1.8-1.7-2.3c-23.8-24.8-40.1-53.8-50.1-86.6
	c-5.4-17.8-8.7-36-10-54.4c-1.7-23.6-0.4-47.3,4-70.5c3.4-18.2,7.7-36.2,13.6-53.9c2.9-8.6,6.2-17,9.3-25.5c1.7-4.6-0.2-5.8-4.1-6.6
	c-15.9-3.5-31.7-7.4-47.4-11.4c-13.3-3.4-26.6-7-39.9-10.1c-19-4.4-38-9.5-57-13.9c-16-3.7-31.9-7.7-47.7-12.3
	c-2.8-0.8-4.4-0.4-6,2.3c-17.6,28.4-30.4,58.8-38.3,91.3c-3.1,12.7-5.8,25.5-6.4,38.4c-1.1,20.5-1.2,41.2,2.7,61.6
	c3.4,18.1,8,35.8,15.4,52.6c10.9,24.7,25,47.6,42.7,68.2c5.1,6,9.5,12.3,18.9,12.1c7.3-0.2,14.6,1.3,22,2.1
	c8.2,0.8,16.4,1.6,24.5,2.5c10.3,1.1,20.5,2.5,30.8,3.5c11.1,1.2,22.3,2,33.4,3.2c13.4,1.5,26.7,3.3,40,4.8
	c9.6,1.1,19.3,1.8,28.9,2.7C390.3,539.4,397.5,540.9,405.4,541z"/>
<path class="st3" d="M1286.8,386.9c9.3,54.2,37.4,94.7,86.1,120.5c14.7,7.8,30.5,12.8,46.7,15.3c15.5,2.4,31.1,1.7,46.9-0.5
	c14.7-2.1,28.7-6,42-12.1c36.9-16.9,63.7-44,79.8-81.2c7-16,10.6-32.9,12.2-50.5c1.3-14.7,0.2-29.1-2.7-43.1
	c-6.4-31-20.8-58.1-43.6-80.3c-13.9-13.6-29.8-24.5-47.7-32.2c-12.5-5.3-25.5-8.6-38.9-10.9c-13.9-2.4-27.8-3.2-41.5-1.6
	c-33.9,4.2-63.9,17.7-89.2,41c-11.2,10.3-20.7,22.1-28.6,35.1c-0.6,1-0.7,3.7-2.8,2.3c-1.8-1.2,0-2.7,0.7-3.8
	c6.9-11.4,15.1-21.8,24.5-31.3c14.4-14.7,31.4-25.5,49.8-33.9c11.2-5.1,23.2-8.2,35.5-10.4c18.5-3.2,36.8-2.3,55.4,0.6
	c33.3,5.2,61.4,20.3,85.1,43.6c15.4,15.1,27,32.7,35.2,53c9.4,23.5,13.6,47.4,11.7,72.4c-5.3,68.4-52.3,124.6-117.6,142.4
	c-16.7,4.5-33.6,6-50.9,5.6c-22.7-0.6-44.1-7-63.8-17.1c-29.1-14.9-52-37-67.8-65.9c-8.8-16.2-15.4-33.2-17.8-51.6
	C1285.2,390.4,1284.3,388.4,1286.8,386.9z"/>
<path class="st2" d="M1499.6,338.2c1-0.1,1.7,0,2,0.7c0.4,1.3-0.6,1.8-1.5,2.3c-5.6,3.3-11.3,6.5-16.9,9.7
	c-11.4,6.5-22.7,13.2-34.3,19.5c-3.6,2-2.6,3.2-0.3,5.2c14.7,12.6,29.2,25.2,43.9,37.8c9.7,8.4,19.5,16.7,29.1,25.1
	c1.1,1,3.7,2,2.2,3.7c-1.5,1.7-2.8-0.8-3.9-1.8c-22-18.8-44-37.7-66-56.6c-3.5-3-7-6.1-10.7-9c-2.2-1.8-2.8-3,0.2-4.7
	c17.9-10.2,35.8-20.5,53.7-30.7C1498,338.9,1499,338.5,1499.6,338.2z"/>
<path class="st3" d="M1096.4,412.5c-0.4,0.5-0.6,1.1-1,1.2c-1.2,0.4-1.8-0.5-2.5-1.2c-4.3-4.2-8.5-8.4-12.7-12.7
	c-26.6-26.6-53.2-53.1-79.8-79.7c-0.5-0.5-1-0.9-1.4-1.5c-0.8-1.1-3-1.9-1.4-3.5c1.2-1.1,2.3,0.7,3.2,1.6
	c7.2,7.1,14.4,14.3,21.6,21.5c23.7,23.6,47.3,47.3,71,70.9C1094.4,410.2,1095.3,411.4,1096.4,412.5z"/>
<path class="st3" d="M1076.9,310c3.1,1.1,5,3.7,7.2,5.8c29.4,29.3,58.8,58.7,88.3,88.1c0.2,0.2,0.5,0.5,0.7,0.7
	c0.9,1.2,3.6,2.2,2.1,3.9c-1.7,1.8-2.8-0.8-3.8-1.8c-7.9-7.8-15.8-15.7-23.7-23.6c-23.2-23.1-46.4-46.3-69.6-69.4
	C1076.8,312.6,1075.6,311.9,1076.9,310z"/>
<path class="st3" d="M1041.2,314.9c1.5,0.1,2.1,1.2,2.9,2c23.3,23.3,46.6,46.5,69.9,69.8c7.8,7.8,15.6,15.5,23.3,23.2
	c0.9,0.9,3,2,1.3,3.6c-1.4,1.3-2.3-0.7-3.1-1.5c-31-30.9-62-61.8-92.9-92.7c-1-1-2.6-1.7-2.4-3.5
	C1040.4,315.4,1041,315.2,1041.2,314.9z"/>
<path class="st3" d="M1239.1,381.9c-0.3,1.5-1,2-2.2,1.3c-0.8-0.5-1.5-1.3-2.2-2c-30.6-30.6-61.3-61.1-91.9-91.7
	c-0.7-0.7-1.4-1.4-2.1-2.1c-0.7-0.6-1-1.4-0.4-2.2c0.7-0.8,1.5-0.4,2.1,0.2c0.9,0.8,1.7,1.6,2.5,2.4c30.3,30.2,60.6,60.4,90.9,90.6
	C1237.1,379.5,1238.1,380.8,1239.1,381.9z"/>
<path class="st3" d="M1110.1,299.9c1,0.9,2.2,1.8,3.2,2.9c18.4,18.3,36.8,36.6,55.1,55c12,12,24,24,36,36c0.7,0.7,1.4,1.4,2.1,2.1
	c0.8,0.9,1.8,1.9,0.5,2.9c-1,0.8-1.8-0.4-2.4-1.1c-6.6-6.6-13.2-13.1-19.8-19.7c-24.6-24.5-49.2-49.1-73.8-73.6
	c-0.8-0.8-1.7-1.6-2.3-2.6C1108.2,300.7,1109,300.3,1110.1,299.9z"/>
<path class="st3" d="M1192.8,265.9c0.9,0.8,1.8,1.5,2.6,2.3c18.5,18.5,37,37,55.4,55.5c2.2,2.2,4.7,4.3,6.8,6.6
	c1.2,1.3,4.2,2.9,2.7,4.5c-1.8,2-3.3-1.2-4.5-2.3c-11.2-11-22.2-22.1-33.3-33.1c-9.9-9.9-19.8-19.8-29.6-29.7
	c-0.8-0.8-2.1-1.4-1.5-2.8C1191.6,266.4,1192.2,266.3,1192.8,265.9z"/>
<path class="st3" d="M401.4,1197.3c7.6-5.1,35.3-4.6,40.8,0.7C430.9,1203.7,407.8,1203.3,401.4,1197.3z"/>
<path class="st3" d="M139.5,986.3c1.9,1.8,5.2-0.9,6.7,2.2c-1.5,0.2-2.9,0.5-4.4,0.5c-26.4,0.1-52.8,0.2-79.2,0.4
	c-1.3,0-1.9-0.4-2.1-1.3c-0.3-1,0.7-1.4,1.5-1.5c1.3-0.1,2.7-0.1,4-0.1c23.3-0.1,46.6-0.1,69.9-0.2c0,0,0,0,0,0
	C137.1,986.3,138.3,986.3,139.5,986.3z"/>
<path class="st3" d="M590.5,1112.6c-5.6,2.2-11.1,5.1-16.9,6.3c-3.8,0.8-7.3-2.9-10.6-4.9c-4-2.5-6.3-2.2-8,2.4
	c-1.9,5.5-5.9,8.3-11.8,8.8c-4.2,0.3-8.3,1.7-12.4,2.5c-0.9,0.2-2.1,0.7-2.5-0.6c-0.3-1.2,0.7-1.8,1.7-2c4.6-1.1,9.1-2.6,13.8-3
	c4.3-0.3,6.6-2.2,8.3-5.9c0.8-1.8,2.1-3.4,2.9-5.2c1.1-2.4,3.3-2.9,4.9-1.6c8.8,6.8,17.8,7.7,27.3,1.7c0.4-0.2,1-0.1,1.5-0.1
	c0.5,0,0.9,0.2,1.4,0.3C590.3,1111.7,590.4,1112.2,590.5,1112.6z"/>
<path class="st3" d="M555.9,1145.6c3.4,1.4,6.7,3,10.1,4c4.4,1.3,4.3,4.5,5.5,7.7c1.3,3.4,2.3,6.9,3.2,10.4c0.9,3.9,2.7,7,5.7,9.7
	c3.3,3,6.4,6.3,9.5,9.5c0.6,0.7,1.7,1.4,0.7,2.5c-0.9,1-1.8,0.4-2.5-0.4c-7.1-7.6-16.5-13.6-17.4-25.6c-0.2-3-1.4-6.1-2.6-9
	c-1.4-3.5-5.2-3.1-8-4.2c-1.7-0.6-3.3-1.3-4.9-2.1c-0.6-0.3-1.1-0.8-0.9-1.6C554.6,1145.7,555.4,1145.9,555.9,1145.6z"/>
<path class="st3" d="M598.4,1162c0.1,1.5,0.3,2.4-0.8,2.7c-1.1,0.3-1.3-0.6-1.6-1.4c-1.6-4.7-1.7-9.7-2.7-14.5
	c-0.3-1.6,1.1-2.3,2.1-3.1c8.8-7.1,17.5-14.2,26.3-21.3c0.9-0.7,2-2.5,3.3-1.1c1.5,1.8-0.7,2.6-1.7,3.4
	c-7.7,6.3-15.3,12.7-23.3,18.7c-3.7,2.7-4.4,5.7-3,9.7C597.7,1157.6,597,1160.4,598.4,1162z"/>
<path class="st3" d="M1295.4,380.2c0.8-1.6,2-1.4,3.1-1.5c11.8-0.3,23.5-0.6,35.3-0.8c1.1,0,3.1-0.9,3.2,1.1c0.1,2-1.9,1.3-3,1.4
	c-12.1,0.4-24.2,0.6-36.3,0.9C1296.9,381.3,1296,381.2,1295.4,380.2z"/>
<path class="st3" d="M1543.4,376.7c0.8-1.6,2-1.4,3.1-1.5c11.8-0.3,23.5-0.6,35.3-0.8c1.1,0,3.1-0.9,3.2,1.1c0.1,2-1.9,1.3-3,1.4
	c-12.1,0.4-24.2,0.6-36.3,0.9C1544.9,377.7,1544.1,377.7,1543.4,376.7z"/>
<path class="st3" d="M1441.4,490.9c0-5.8,0-11.6,0-17.4c0-1.1-0.3-2.6,1.5-2.5c1.2,0.1,1.2,1.4,1.2,2.4c0.3,11.7,0.6,23.5,0.9,35.2
	c0,1.2,0.1,2.6-1.5,2.5c-1.3-0.1-1.1-1.4-1.1-2.4c0-6,0-11.9,0-17.9C1442,490.9,1441.7,490.9,1441.4,490.9z"/>
<path class="st3" d="M1439.1,253.5c0,6,0,12,0,18c0,0.9,0.3,2.3-1,2.4c-1.4,0.1-1.9-1-1.9-2.3c-0.2-12.5-0.4-25-0.5-37.5
	c0-1,0-2.2,1.5-2c1.3,0.2,1.1,1.5,1.1,2.4c0,6.3,0,12.6,0,19C1438.5,253.5,1438.8,253.5,1439.1,253.5z"/>
<path class="st4" d="M367.6,1056.7c-0.5,0.2-1.1,0-1-0.5c0.1-0.6,0.5-1.2,1.2-0.4C367.9,1056.2,367.9,1056.5,367.6,1056.7z"/>
<path class="st4" d="M135.8,986.3C135.8,986.3,135.8,986.3,135.8,986.3C135.8,986.3,135.8,986.3,135.8,986.3z"/>
<path class="st3" d="M525.5,867.1c-0.1,0.3-0.2,0.6-0.3,0.9c-13.3-1.4-26-5.4-39-8.2c-31.2-6.8-62.4-13.7-93.6-20.6
	c-19.6-4.3-39.2-8.7-58.8-12.8c-8.6-1.8-17.5-2.5-26.1-4.6c-9.9-2.5-20-3.7-29.9-6.1c-0.9-0.2-2.1-0.2-2.2-2.1
	c5.5-0.9,10.7,1.2,15.9,2.1c11,1.8,22,4,33,6.2c2.8,0.6,4.7-0.2,6.5-2.3c21.1-24.8,42.3-49.6,63.5-74.4c12.9-15,25.8-30,38.7-45
	c0.5-0.6,1.1-1.3,3.7-0.7c-35,41.6-70,82.1-105.2,123.4c6.4,2.4,12.8,3.3,19,4.7c31.4,7,62.7,13.9,94.1,20.8
	c24.3,5.4,48.6,10.7,72.9,16.2C520.5,864.8,523.6,864.5,525.5,867.1z"/>
<path class="st3" d="M791.1,974.9c-2,0.7-3.2-1.1-4.9-1.5c-4.6-5-9.5-9.7-13.7-15c-10.1-12.8-16.3-27.3-19-43.4
	c-2.7-16-0.7-32.1-0.7-48.2c0.1-31.3,0.8-62.6,1.2-93.9c0.6-43.8,1.2-87.5,1.9-131.3c0-2.2-0.9-4.7,1-6.6c0.1,0.7,0.5,1.2,1.3,1.3
	c-1.1,81.3-2.1,162.5-3.1,243.8c-0.2,14.8-1.2,29.6,3,44.2c5.3,18.7,15.4,34.2,30.2,46.8C789.7,972,791.4,972.8,791.1,974.9z"/>
<g>
	<path class="st3" d="M677.1,1047.2c0,0,0.1,0,0.1,0c0-0.1,0-0.1,0-0.2L677.1,1047.2z"/>
	<path class="st3" d="M641.2,1068C641.3,1068,641.3,1068,641.2,1068c0.1-0.1,0.1-0.1,0.2-0.2L641.2,1068z"/>
	<path class="st3" d="M671,903.2C671,903.2,671,903.2,671,903.2C671,903.2,671.1,903.2,671,903.2C671.1,903.2,671,903.2,671,903.2z"
		/>
	<path class="st3" d="M1544.6,931.2c5.5-13.5,10.4-27.1,15.6-40.7c3.9-10.3,7.8-20.6,11.8-30.8c5-13.1,10.1-26.1,15.1-39.2
		c3.7-9.7,7.5-19.3,11-29.1c1.9-5,4.3-10.1,4.9-15.3c1.8-15.2-9.3-25.8-25.3-25.8c-89.8,0.2-179.6,0.1-269.4,0.1c-2.9,0-5.9,0-9.5,0
		c0.7-1.2,0.9-1.7,1.3-2.2c11-19,19.5-39.2,26.4-60.1c6.5-19.9,11.4-40.1,14-61c2-15.9,3.2-31.7,3.8-47.7c0.1-2.9-0.4-4.5-3.7-5.6
		c-17.3-5.9-34.5-12.2-51.8-18.3c-15.8-5.6-31.7-11.1-47.6-16.6c-19-6.5-38.1-12.9-57.1-19.5c-21.2-7.4-42.4-14.9-63.6-22.4
		c-3.6-1.3-5.9-2-6.7,3.3c-1.2,8.5-3.3,16.9-5.3,25.3c-5.3,22.2-12.2,43.8-20.1,65.3c-6.7,18.2-14.8,35.7-23.4,53.1
		c-7.9,15.8-17,30.9-27,45.4c-17.5,25.5-37.3,49-61,69.1c-1,0.9-3.4,1.1-2.7,3c0.5,1.3,2.1,2.1,3.8,2.7c14,4.8,27.8,9.9,41.7,15.1
		c12.5,4.7,24.8,9.6,37.3,14.2c11,4.1,22,7.9,33,11.9c12.9,4.8,25.6,10,38.5,14.4c4,1.4,4.1,3.1,2.8,6.1c-2.4,6-5.2,11.8-7.2,17.9
		c-7.1,21.5-16.1,42.2-23.8,63.5c-7.4,20.6-15.6,41-23.3,61.6c-1.9,5.1-4.2,8.2-10.4,7.2c-4.6-0.7-9.3-0.1-14-0.1
		c-49.7,0-99.3-0.1-149-0.1c-5.8,0-11.6,0.1-17.4,0.1c-5.4,0-5.6,0.2-4.3,5.5c0.5,1.7,2.1,3,1.9,5c6.5,13.3,18.6,18.5,31.8,22.5
		c15.1,4.6,30.1,9.6,45.1,14.3c23.5,7.4,47.4,13.9,70.6,22.3c17.1,6.2,34.3,7,52,6.9c5.3,0,10.7,0.2,16-0.1c3.2-0.2,3.9,1.1,3.8,4
		c-0.2,9-0.1,18,0,27c0,8,4.5,12.5,12.5,12.6c0.7,0,1.3,0,2,0c12.1,0,12,0,11.6,12.1c-0.1,3.1-1.4,3.3-3.6,2.7
		c-8.9-2.5-17.9-4.9-26.8-7.4c-13.5-3.8-27-7.6-40.4-11.4c-13.3-3.8-26.6-7.5-40-11.2c-15.4-4.3-30.9-8.5-46.3-12.8
		c-14.2-4-28.4-8.2-42.7-12.1c-13.2-3.7-26.4-7.2-39.5-10.8c-7.7-2.1-15.4-4.2-23-6.6c-2.8-0.9-5.4-1.4-8.3-1.3
		c-18.5,0.4-36.9,0.2-55.4,1.2c-7,0.4-14,0.5-22.6,0.9c6.3-6.2,8.4-12.5,7.7-20.2c-0.7-6.8-3.7-11.7-9.2-15
		c-19-11.6-38.1-23.1-57.2-34.6c-2.2-1.3-4.1-2.8-5.6-4.8c-15-19.9-30.1-39.8-45.2-59.7c-0.4-0.5-0.9-1-0.3-1.6
		c-0.4-0.1-0.7-0.2-1.1-0.3c-1.1-0.5-1.5-2.2-3.1-1.9c-1.1,2.3,1,3.3,1.9,4.7c13.4,18,26.9,35.9,40.4,53.8c0.3,0.1,0.5,0.4,0.6,0.7
		c0.3,0.5,1.2,0.8,0.6,1.4c-0.6,0.8-1,0-1.3-0.5c-0.4-0.2-0.9-0.4-1.3-0.7c-10.5-6.3-21.1-12.6-31.6-19c-1.4-0.8-2.4-2.3-3.4-3.6
		c-10.5-13.6-20.9-27.2-31.3-40.8c-0.6-0.8-1.2-1.6-1.8-2.4c-0.8-1-1.5-2.7-3-1.5c-1.3,1.1,0.3,2.1,0.9,2.9
		c4.6,6.1,9.3,12.2,13.9,18.3c4.8,6.3,9.7,12.7,14.5,19.1c0,0.4,0.1,0.8,0.1,1.2c-0.4-0.1-0.8-0.2-1.2-0.3
		c-12.1-7.3-24.2-14.5-36.3-21.8c-1.7-1-3.4-2.1-5.2-3c-1.2-0.6-2.6-2.7-3.8-0.9c-1.3,1.9,1.2,2.3,2.3,3c5.6,3.5,11.3,6.9,17,10.4
		c45.6,27.6,91.3,55.2,136.9,82.8c10.5,6.3,13.6,16.6,8,26.2c-6.8,11.6-17.8,15.2-28.7,9.1c-25.4-14.2-50.1-29.4-74.8-44.8
		c-0.6-0.4-1-0.9-1.6-1.1c-1-0.3-2.1-1.9-3-0.5c-1.2,1.7,0.7,2.3,1.7,2.9c9.6,6,19.2,11.9,28.8,17.9c3,1.8,5.9,3.8,9,5.4
		c2.6,1.4,2.8,3,1.6,5.6c-6.3,13.9-17.6,20-32.1,21.4c-2.4,0.2-4.9,0.2-7.3,0.2c-0.7,10.5-11.4,18.9-23.9,19.8
		c-4,0.3-8.1-0.9-12,1.1c-4.4,6.1-15,9.3-22.2,7.5c-10.2-2.5-19.2-7.4-27.7-13.3c-5.3-3.6-11.6-2.9-17.4-4.2
		c-14.1-3-28.4-5.5-42.6-8.1c-13.3-2.4-26.6-4.7-39.9-7.1c-12.8-2.3-25.6-4.8-38.4-7.2c-1.3,0.3-2.1,0.9-1.6,2.3
		c16.5,3.1,33,6.2,49.5,9.3c-0.5,1-1.1,1.6-2.3,1.6c-7.9-0.2-15.8,0.3-23.7,0.9c-10,0.8-20.2,0.5-30.2,0.8
		c-19.8,0.7-39.7,1.1-59.5,2.2c-9.1,0.5-18.3,0.4-27.5,0.6c-1,0-2.7-0.4-2.6,1.4c0.1,1.2,1.2,1.7,2.4,2c9.6,2.6,19.1,5.3,28.7,7.9
		c13.8,3.8,27.7,7.5,41.5,11.4c19.5,5.5,39,11.1,58.6,16.6c13.7,3.9,27.3,8.1,41.1,11.5c4.4,1.1,8.9,4.4,14.9,1.4
		c-13-3.7-25.1-7.3-37.2-10.6c-22.6-6.3-45.2-12.4-67.8-18.7c-14.1-3.9-28.1-7.9-42.1-11.8c-9.2-2.6-18.6-4.6-27.6-8
		c-0.5,0.2-1.1,0-1-0.5c0.1-0.6,0.5-1.2,1.2-0.4c12.8-1.6,25.8-0.3,38.7-1.7c10.3-1.1,20.8,0.1,31.2-1c11.5-1.1,23.1,0.2,34.7-1
		c10.6-1.1,21.3-0.8,32-1.1c9.4-0.3,18.8,0,28.1,1.8c12.5,2.5,25.1,4.8,37.8,6.8c10.3,1.7,20.2,4,28.9,10.5c5,3.7,11.1,6.2,17.4,7.2
		c8.4,1.3,17.1,1.9,24-4.4c2.8-2.5,5.4-3,8.9-3.1c8.3-0.3,16.5-1.9,22.6-8c3.2-3.2,6-3.1,9.8-1.9c22,7.4,44,14.7,66.1,22
		c14.6,4.8,29.3,9.4,44,14.1c2.9,0.9,5.2,2.4,7.2,4.9c6.6,8.8,13.5,17.3,20.2,26c1.9,2.4,4.2,5.4,7.1,4.8c6.4-1.2,8.8,3,11.8,6.9
		c0.8,1,1.7,2.1,2.5,3.1c1.6,1.9,3.9,1.6,5.5,0.8c1.9-1,1.3-3.3,0.6-5c-0.6-1.5-1.8-2.7-2.9-4c-2.9-3.4-5.9-6.6-3.8-11.7
		c0.8-2-0.3-4.2-1.2-6.2c-0.5-1.2-2.6-2.4-1.2-3.8c1.1-1,2.7,0.2,4.1,0.7c21.3,7,42.6,14,64,21c14.3,4.6,28.3,10,42.8,14
		c1.2,0.3,2.8,1.5,3.3-0.4c0.4-1.7-1.6-1.8-2.7-2.2c-10.8-3.5-21.7-6.8-32.5-10.4c-25.1-8.4-50.2-17-75.6-24.6
		c-6.6-2-11.3-5.9-15.5-11.5c-13.4-17.8-27.3-35.3-41-52.9c-0.8-1.1-2.2-1.8-2-3.9c3.8,1.2,7.3-0.7,10.9-0.6
		c14.3,0.3,28.6-1.1,42.9-1c12.5,0.1,25-1.2,37.4,2.7c17.5,5.5,35.3,10.1,53,15.1c19.8,5.5,39.7,10.7,59.3,16.7
		c8.4,2.6,17,4.5,25.4,7.3c13.6,4.5,27.6,7.8,41.5,11.6c11.3,3.2,22.6,6.4,33.9,9.6c13.3,3.7,26.5,7.3,39.8,10.9
		c1.7,0.5,2.5,1.1,2.5,3c-0.1,9.5,0,19,0,28.5c0,1.3,0.1,2.9-1.9,2.6c-4.7-0.6-9.2,0.9-13.8,1.1c-7.7,0.3-15.5,0-23.3,0.7
		c-15.4,1.3-31,1.7-46.5,2.1c-11.3,0.3-22.7-0.4-34,0.2c-10.9,0.6-21.6-0.9-32.9,2.2c-12.1,3.4-25.5,2.3-38.3,2.7
		c-14.8,0.5-29.6,0.5-44.5,0.7c-47.6,0.7-95.3,1.5-142.9,2.1c-6.2,0.1-12.5,1.2-18.7-0.6c-10-2.9-20.1-5.7-30.1-8.5
		c-13.6-3.8-27.2-7.7-40.8-11.5c-9.4-2.6-18.8-5-28.2-7.6c-1.1-0.3-2.5-1.1-2.9,0.1c-0.5,1.5,0.9,2.1,2.4,2.3
		c2.1,0.3,4.1,1.1,6.1,1.6c14.6,4.1,29.1,8.2,43.7,12.3c9.5,2.7,19.1,5.2,28.6,8c10.6,3.1,21,6.8,32.4,6.6
		c77.6-1.7,155.3-1.2,232.9-5c3-0.1,3.9,0.5,3.9,3.6c-0.2,17.2,0.1,34.3-0.1,51.5c0,3.9,0.9,5.1,5,5.1
		c173.3-0.1,346.6-0.1,519.9-0.1c13.8,0,21.8-9.8,21.7-21.5c-0.1-6.3-0.3-12.7,0.1-19c0.6-9.1-2.1-16.7-9.3-22.5l0.4-0.1
		c0,0-0.4-0.2-0.4-0.2c13,0,26,0.1,39,0c7.4-0.1,12-4.5,12.2-11.7c0.2-12.3,0.2-24.7,0-37c-0.1-6.9-5-11.3-11.9-11.5
		c-3.5-0.1-7-0.2-10.5,0c-2.9,0.2-3.6-0.8-3.6-3.6c0.1-16,0.2-32,0-48c0-3.5,0.8-4.5,4.3-4.4c16.7,0.2,33.3-0.1,50,0.2
		c3.7,0.1,4.4-1.2,4.3-4.5c-0.1-18.3,0-36.7,0-55c0-6.3,0-6.3-6.5-6.3c-20.5,0-41,0-61.5,0c-2.1,0-4.6,0.7-3.1-3.2
		C1535.2,956.7,1539.5,943.8,1544.6,931.2z M1073.1,982.5c-5.5,14.8-11.3,29.4-16.7,44.2c-0.9,2.4-1.9,2.2-4.4,2.2
		c-2.7-1.5-6.6-1.8-10.4-3c-19.6-5.9-39.1-11.9-58.9-17.3c-15.9-4.3-31.6-9.6-47.4-14.4c-14.7-4.4-29.5-8.7-44.3-13.1
		c-1.3-0.4-3.6-0.1-2.9-2.4c0.6-1.8,2.3-0.4,3.4-0.1c16.6,4.8,33.1,9.6,49.6,14.5c15.2,4.5,30.4,9.2,45.7,13.7
		c19.2,5.7,38.5,11.2,57.8,16.9c9.5,2.8,9.2,2.7,12.6-6.9c4.2-11.8,9-23.4,13.6-35.1c0.4-1.1,0.5-3.2,2.3-2.6
		C1075.4,980.1,1073.4,981.8,1073.1,982.5z M708.1,1041.4c4.5-4.9,9.2-9.7,11.5-16.1c0.8-2.4,2.1-1.2,3.4-0.5
		c8.3,4.8,16.7,9.6,25.1,14.4c0.7-0.1,0.8,0.4,0.6,0.9c-0.1,0.3-0.5,0.8-0.9,0.1C734.5,1040.6,721.2,1041,708.1,1041.4
		c-0.1,0.1-0.2,0.1-0.4,0.1C707.8,1041.5,707.9,1041.4,708.1,1041.4z M769.9,1086.2c-12.7-4.2-25.5-8.1-38.2-12.3
		c-17.4-5.7-34.7-11.6-52-17.4c-0.7-0.2-2.5-0.3-1.8-1.5c0.9-1.7,0.5-4.1,3-5.3c1.7-0.8,3.2-0.7,4.8-0.7c3.4,0.1,6.9,0,9.8-1.5
		c6.6-3.6,13.5-3.5,20.6-3.6c11.2-0.1,22.5-0.7,33.7-1.1c1.9-0.1,3.8-0.4,5.4,1.6c12.3,15.9,24.7,31.8,37,47.6
		C784.3,1091.5,777.1,1088.6,769.9,1086.2z M836.3,1111c0.4,0.1,0.7,0.4,1.1,0.6c-0.4,0.3-0.7,0.6-0.8,0.5c-0.4-0.2-0.7-0.5-1-0.7
		C835.8,1111.3,836.1,1111,836.3,1111z M835.8,1115.7c2.9,3.7,2.1,9.5-1.3,12.1c-3.4,2.6-9.9,1.5-12.9-2.3
		c-14.7-18.7-29.3-37.5-43.9-56.3c-5.9-7.6-11.9-15.2-18.2-23.3c6.2,0.2,12.1,0,17.3-3.3c1.9-1.2,2.4,0.5,3.1,1.4
		C798.6,1067.9,817.2,1091.8,835.8,1115.7z M1360.3,854c7.9,0,13.9,6.3,14,14.3c0.1,8.3-7.2,14.5-15.4,14.7
		c-8.6,0.1-15.1-6.7-15.6-14.9C1342.8,859.9,1350.4,854,1360.3,854z M1095.8,804.7c-17-6.3-34-12.4-51-18.7
		c-9.8-3.6-19.5-7.4-29.3-11.1c-12.3-4.6-24.7-9.1-36.9-13.6c77.9-70.7,118-161,138.3-262.2c20.6,6,40.6,14.4,61.2,20.9
		c17.3,5.5,34.3,11.8,51.5,17.8c15.9,5.5,31.7,10.9,47.6,16.4c20.7,7.2,41.4,14.5,62.1,21.7c2.3,0.8,2.2,2.2,2.2,3.8
		c-0.2,7.6,0,15.2-1.1,22.8c-1,6.6-1.3,13.3-2.1,20c-1.8,14.9-4.5,29.6-8.5,44c-4.9,17.8-11,35.1-18.4,52.2
		c-22.1,51.1-55.9,92.4-100.1,125.7c-1.7,1.3-3.2,2-5.4,1.2c-12-4.6-24-9.1-36.1-13.5c-12.4-4.5-24.8-8.8-37.2-13.4
		C1120.4,814.2,1108.2,809.3,1095.8,804.7z M1117.8,1093.3c-9.1,0-11.8-2.7-11.8-12c0-10.7,0-21.3,0-32c0-7.9,3.4-11.2,11.3-11.2
		c23.5,0,47,0,70.5,0c115.8,0,231.6,0,347.4,0c0.8,0,1.7,0.1,2.5,0c2.4-0.2,2.6,1.1,2.7,3.1c0,2.1-0.5,2.9-2.7,2.9
		c-7.2-0.1-14.3,0-21.5,0c-74.6,0-149.3,0-223.9,0c-3,0-6-0.1-8.9,0.8c-6.6,2-10,6.6-10.1,13.3c0,5.5,0.4,11-0.1,16.5
		c-0.8,7.2,7.2,14.7,14,14.3c4.5-0.3,9,0,13.5,0c77,0,153.9,0,230.9,0c1.7,0,3.3,0,5,0.1c1.6,0.1,4-0.9,3.9,2.2
		c-0.1,3.2-2.6,1.8-4.1,2c-1.8,0.3-3.7,0.1-5.5,0.1c-68.3,0-136.6,0-204.9,0c0,0,0,0,0,0C1256.4,1093.3,1187.1,1093.3,1117.8,1093.3
		z M1540.3,1082.3c0.1,3.4-1,4.1-4.2,4.1c-32.2-0.1-64.3,0-96.5,0c-49.7,0-99.3,0-149,0c-3.8,0-7.5,0.2-10.8-2.5
		c-2.9-2.4-4.3-5.4-4.2-9.1c0-5.2,0-10.3,0-15.5c0.1-7.8,4.7-12.3,12.9-12.3c16.7,0,33.3,0,50,0c24.7,0,49.3,0,74,0
		c41,0,82,0,123-0.1c3.5,0,4.9,0.6,4.8,4.5C1540,1061.6,1540,1072,1540.3,1082.3z M1114.7,1151.2c4.6,0,9.2,0,13.8,0
		c0,0.1,0,0.2,0,0.3c-4.6,0-9.2,0-13.7,0C1114.7,1151.4,1114.7,1151.3,1114.7,1151.2z M1523.2,1166.6c2,10.8,1.3,21.8,0.8,32.7
		c-0.4,8.3-7.9,14.9-16.3,15.5c-2.8,0.2-5.7,0.1-8.5,0.1c-170.3,0-340.6,0-510.8-0.1c-1.7,0-4.3,1.5-5.1-1.3
		c-0.8-2.9-0.3-4.7,3.8-4.7c31.5,0.2,63,0.1,94.5,0.1c71.5,0,143,0,214.4,0c4,0,7.8-0.6,11.4-2.2c5.6-2.4,8.6-6.4,8.3-12.8
		c-0.3-6.5-0.1-13-0.1-19.5c-0.1-6.3-3.3-10.8-9.2-12.6c-4.4-1.3-8.9-2-13.5-2c-101.5,0.1-202.9,0.1-304.4,0c-1.7,0-4.3,1.5-5.1-1.3
		c-1-3.4,0.6-4.4,4.2-4.4c32.3,0.1,64.6,0,97,0c137.5,0.1,274.9,0.1,412.4,0.3c2,0,4.3-0.9,6.1,1c0,0,0,0,0,0c0,0,0,0,0,0
		c0,0,0,0,0,0c0,0,0,0,0,0c1.2,0.5,2.5,0.6,3.8,0.1C1512.7,1153.5,1521.9,1159.5,1523.2,1166.6z M983,1167.3c-0.1-4,1.3-4.5,4.8-4.5
		c51.3,0.1,102.6,0.1,153.9,0.1c51.3,0,102.6,0,153.9-0.1c3.2,0,6.2,0.7,9.2,1.4c5.7,1.4,8.4,5.4,8.4,11.4c0,5.7,0,11.3,0,17
		c0,8.2-3.3,12.1-11.5,13.4c-2.8,0.4-5.6,0.6-8.5,0.6c-101.8,0-203.5,0-305.3,0.1c-4,0-5-1.1-4.9-5
		C983.3,1190.2,983.3,1178.7,983,1167.3z M1504.4,1154.2C1504.4,1154.2,1504.4,1154.2,1504.4,1154.2
		C1504.4,1154.2,1504.4,1154.2,1504.4,1154.2z M1553.8,1096.7c9.6,0,12.3,2.8,12.3,12.4c0,10.3,0,20.7,0,31c0,8.7-3,11.7-11.7,11.7
		c-83.3,0-166.6,0-249.9,0c-56.2,0-112.3-0.1-168.5,0.2c-5.2,0-4.8-2.2-5-5.8c-0.3-4.3,1.4-4.7,5.2-4.7
		c81.6,0.1,163.3,0.1,244.9,0.1c3.1,0,6.1-0.2,9.2-1.5c6-2.5,8.6-6,8.1-12.3c-0.2-2.3-0.3-4.6-0.3-6.9c0-8.6-4.5-13.4-13.2-13.9
		c-1.2-0.1-2.3,0-3.5,0c-81.8,0-163.6-0.1-245.4,0.1c-4.6,0-5-1.6-5-5.4c0-3.7,0.7-5,4.9-5c70,0.2,140,0.1,209.9,0.1c0,0,0,0,0,0
		C1415.2,1096.7,1484.5,1096.7,1553.8,1096.7z M1131.9,1113c-0.1-2.8,0.8-3.7,3.6-3.7c10,0.1,20,0,30,0c71.1,0,142.3,0,213.4,0
		c2.5,0,5,0,7.5,0.4c6.5,1,9.8,4.9,9.8,11.6c0,15-2.6,17.6-17.6,17.6c-39.8,0-79.6,0-119.4,0c-40.8,0-81.6,0-122.4,0.1
		c-3.5,0-5-0.5-4.8-4.5C1132.2,1127.4,1132.1,1120.2,1131.9,1113z M1599.1,988.4c-0.3,11.7-0.2,23.3-0.1,35c0,2.9-0.6,3.9-3.9,3.9
		c-41.6-0.1-83.3-0.1-124.9-0.1c-40.1,0-80.3,0-120.4,0c-3.3,0-6.8,0.6-10-1.7c-3.7-2.7-5.6-5.9-5.5-10.5c0.2-6.5,0-13,0.1-19.5
		c0.1-6.5,3.9-10.8,10.4-11.7c2-0.3,4-0.2,6-0.2c81.1,0,162.2,0,243.3-0.1C1597.9,983.6,1599.2,984.3,1599.1,988.4z M1594.2,975.1
		c1.6,0,4.2-1.6,4.8,1.8c0.7,3.8-1.3,4.2-4.5,4.2c-36.2-0.1-72.3-0.1-108.5-0.1c-45.7,0-91.3,0-137,0c-12.2,0-17.2,5-17.2,17.2
		c0,5.7,0,11.3,0,17c0.1,8.6,5.5,14.2,14.2,14.6c2.5,0.1,5,0.1,7.5,0.1c80.3,0,160.6,0,240.9,0c2.1,0,4.8-1.1,4.6,3
		c-0.1,4.1-2.9,2.9-4.9,2.9c-136.5,0-272.9-0.1-409.4,0c-12.6,0-20.4-7.7-20.2-20.2c0.1-6.7,0.3-13.3,0-20
		c-0.6-14.5,10.5-20.7,20.7-20.6c68,0.2,136,0.1,204,0.1c0,0,0,0,0,0C1457.5,975,1525.8,975,1594.2,975.1z"/>
</g>
<path class="st4" d="M708.1,1041.4C708.1,1041.4,708,1041.5,708.1,1041.4c-0.1,0.1-0.2,0.1-0.4,0.1
	C707.8,1041.5,707.9,1041.4,708.1,1041.4z"/>
<path class="st3" d="M903.2,364.2c-2-3.2-5.2-4.6-9-4.2c-1.9,0.2-3,0-3-2.5c-0.2-10.5-2.5-20.6-5.4-30.7
	c-6.1-21.2-17-39.6-31.4-55.9c-18.7-21.3-41.8-35.8-69.2-43.4c-17.6-4.8-35.4-7.1-53.6-4.4c-16.2,2.4-27.9,11.2-34.8,26.2
	c-2.7,5.9-3.6,12.3-5.4,18.4c-0.5,1.8-0.6,2.7-2.7,2.2c-14.9-3.6-29.5-1.3-43.7,3.3c-11.5,3.7-22,9.6-29.7,19.2
	c-13.9,17.3-18.7,36.6-12.3,58.2c0.8,2.7,0.8,4.6-2,6.6c-6.6,4.7-9,11.9-9.7,19.6c-0.7,7.3,2,13.9,5.5,20.2c1,1.9,2,3.5,1,6
	c-2.8,6.5-3.1,13.4-2.4,20.3c1.5,14.8,7.4,27.1,20.8,34.7c2.8,1.6,2.1,3.2,1.3,5.3c-10.1,25.1-27.4,42.9-52.8,52.5
	c-10.5,4-21.6,4.7-32.6,6.5c0.2,1.2,0.3,2.5,2.1,2.5c5.8-1,11.6-1.8,17.3-2.9c30.9-6.1,52.9-23.7,66.1-52.2c1.1-2.3,2.2-4.5,3-6.9
	c0.7-2.2,2.3-1.8,4-2c2.3-0.2,1.5,1.5,1.8,2.7c1.8,8.9,1.8,18.1,4,27c5.5,22.4,13.1,43.6,33.1,57.6c11.7,8.2,24.5,10.5,38.7,7.4
	c21.7-4.7,38.4-17.4,54.1-31.9c0.9-0.8,1.7-1.6,2.6-2.3c0.2-0.2,0.6-0.2,1.7-0.5c-0.8,10.9-4.6,21.4-2.8,32.2c0,0,0.3-0.1,0.3-0.1
	l0.2,0.3c2.6-3.2,1.6-7.2,1.9-10.7c2.6-28.8,14.3-53.5,32.5-75.5c23.3-28,46.2-56.4,70.5-83.6c6.8-7.6,14.3-14.5,23.5-19.5
	c6.8-3.7,14.6-1.1,16.9,5.8c1.2,3.5-1.2,5.9-2.4,8.5c-11.4,25.7-26.1,49.3-43.5,71.4c-1.6,2-5.5,5.4-3.8,6.5c3,1.7,4.3-2.9,6-5
	c16.9-21.3,31.3-44.2,42.6-69c1-2.1,2-4.1,3.1-6.4c2.6,4.8,2.8,12.5-0.5,19.8c-10.6,23.6-22.3,46.7-38.8,66.9
	c-0.7,0.9-2.9,1.6-1.5,3c1.4,1.4,2.6-0.2,3.6-1.4c9.6-12.1,18.3-24.9,25-38.9c1.6-3.4,3.5-6.7,5.5-10.4c1,3.7,0.8,6.9-0.2,10.1
	c-6.2,20.4-16.4,38.8-26.8,57.3c-6,10.7-13.7,20.4-18.4,31.9c-1.8,4.5-1.8,9.3-0.7,13.6c4.9,18.1,10.6,36,15.8,54
	c5.1,17.7,10,35.4,15,53.1c0.8,0,1.6,0.1,2.4,0.1c0.1-0.6,0.4-1.3,0.2-1.9c-2.6-9-5-18-7.9-26.9c-4.3-13.1-7.9-26.4-11.8-39.6
	c-3.8-12.8-7.1-25.7-11.1-38.5c-2-6.5-0.7-12.1,2.3-17.2c11.5-19.6,24-38.7,33.5-59.5c6.2-13.5,13-27,10.8-42.7
	c-0.1-0.9,0.2-2,0.8-2.7c3.5-4.2,4.3-9.5,6-14.4C912.5,381.4,908.5,372.6,903.2,364.2z M788.7,467.7c-8.8,10.5-16.4,21.9-21.1,34.8
	c-3,8.2-7.8,14.5-14,20.1c-11.4,10.5-23.5,20-37.9,26.2c-11.3,4.8-23.4,7.4-35.3,4.6c-14.4-3.4-25.1-13-32.9-25.6
	c-7.8-12.7-12.6-26.5-15.3-41.1c-1.5-8.5-2.8-17.1-3-25.8c0-2.2-0.8-3-2.9-2.9c-6.7,0.4-12-3-16.1-7.6
	c-9.8-11.2-15.4-23.9-11.9-39.4c2.2-9.6,7.1-17.3,14.5-23.6c6.4-5.4,16.3-5.2,21.6,3c3.9,6.1,7.2,12.3,6.5,19.9
	c-0.4,4.8-0.1,9.7-0.1,14.5c0,1.1-0.5,2.5,0.9,3.1c1.3,0.6,2.1-0.7,2.9-1.4c8.7-7.2,17.4-14.4,26-21.8c2-1.8,3.3-1.8,5.4-0.2
	c13.5,9.8,28.9,14.3,45.4,13.2c14.3-1,28.4-4.1,41.4-10.4c3.5-1.7,5.2-1.9,6.5,2.7c4.4,15.8,15,26,30.5,31.3
	c2.7,0.9,5.7,0.1,8.6,2.2C801.8,451.8,795.4,459.8,788.7,467.7z"/>
<path class="st2" d="M187.4,1080.4c0.8,10.3,3.4,20.3,4.8,30.5c1.9,13.9,4.2,27.8,6.6,41.6c2.5,14.5,5,29.1,7.8,43.6
	c-1.2,2.2-3.5,1.6-5.3,1.7c-22,0.8-43.9,1.5-65.9,2.1c-1.6,0-3.6,1.1-5-0.9c-1.7-17.9-5.1-35.5-7.6-53.3
	c-2.2-15.3-4.4-30.6-6.5-45.9c0.2-2.7,2.7-2.2,4.2-2.6c20.4-5.6,40.8-11.1,61.2-16.6C183.5,1080.1,185.4,1079.2,187.4,1080.4z"/>
<path class="st3" d="M677.2,1047c-14.4-1.9-23.8-11.6-32.9-21.6c-0.5-0.6-1.3-1.4-0.4-2.1c1.3-1.2,2.1-0.1,2.8,0.8
	c3.8,4.6,8.2,8.7,13,12.3c4.5,3.4,9.3,6.4,14.9,7.5c2,0.4,3.1,1,2.4,3.2C677.1,1047.2,677.2,1047,677.2,1047z"/>
<path class="st3" d="M641.4,1067.8c-1.3,0.2-2.5-0.1-3.7-0.8c-9.5-5.3-17.9-12-24.9-20.4c-0.8-0.9-2.5-2.1-1.1-3.3
	c1.5-1.3,2.2,0.7,3,1.6c6.9,8,14.9,14.6,24.2,19.7c1.4,0.8,2.5,1.5,2.4,3.3C641.2,1068,641.4,1067.8,641.4,1067.8z"/>
<path class="st3" d="M1279.9,717.5c-1,2.1-2.3,1.1-3.8,0.6c-8-3.1-15.9-6.1-23.9-9.1c-18.1-6.6-36.2-13.4-54.1-20.3
	c-15.1-5.8-30.3-11.4-45.3-17.5c-13.6-5.5-27.6-10.1-41.3-15.3c-5.6-2.1-11-4.9-16.9-6.3c-0.8-0.2-2.9-1.2-2.4-2.7
	c0.7-2.3,2.1-0.3,3,0.1c13.5,4.9,27,9.9,40.5,15c10.9,4.1,21.7,8.6,32.7,12.7c14,5.1,27.9,10.6,41.9,15.8
	c19.5,7.2,38.9,14.7,58.4,22.2c3.1,1.2,6.3,2.6,9.7,3.4C1279.1,716.2,1279.8,716.6,1279.9,717.5z"/>
<path class="st3" d="M1057.5,704.7c2.8-1.1,4.7-0.8,6.6-0.1c14.4,5.3,28.7,10.7,43.2,15.9c14,5,28,9.8,42,14.7
	c14.5,5.2,29,10.6,43.5,15.8c18,6.5,36,12.9,53.9,19.3c0.9,0.3,2.8,0.4,2.2,2c-0.5,1.5-2,0.8-3,0.5c-7.9-2.8-15.6-5.8-23.5-8.4
	c-19.5-6.5-38.7-14.1-58.2-20.7c-18.9-6.4-37.4-14-56.2-20.6c-14.5-5-28.7-11.1-43.5-15.3C1062.2,707.3,1060.3,706.1,1057.5,704.7z"
	/>
<path class="st3" d="M1268.1,748.3c-1,1.7-2.9,1-3.9,0.6c-4.8-2.1-9.8-3.3-14.6-5.3c-10.3-4.2-20.9-7.7-31.4-11.5
	c-14.2-5.2-28.5-10.4-42.7-15.5c-9-3.2-18.1-6.3-27.1-9.5c-9.1-3.3-18.1-6.8-27.2-10.1c-11-4-21.9-8-33-11.8
	c-4-1.4-7.7-3.8-12.1-4.1c-1.2-0.1-1.1-1.1-1-1.9c0-1.2,1-1.2,1.8-1c1.4,0.4,2.9,0.9,4.3,1.4c17.9,6.5,35.9,13,53.8,19.6
	c17.2,6.3,34.3,12.8,51.6,19c17.8,6.4,35.7,12.7,53.6,19c8.5,3,17,6.1,25.5,9.2C1266.5,746.5,1268,746.5,1268.1,748.3z"/>
<path class="st3" d="M1289.1,686.1c-4.7-2.1-10.2-3.7-15.5-5.6c-11.3-4-22.5-8.3-33.7-12.5c-11-4.1-22-8.3-33-12.4
	c-10.5-3.9-21.1-7.7-31.6-11.6c-15.1-5.6-30.2-11.3-45.3-16.9c-7.6-2.8-15.2-5.5-22.8-8.1c-1.3-0.4-2.3-0.7-1.9-2.1
	c0.4-1.8,1.8-1.1,2.8-0.7c9.5,3.5,19,7,28.4,10.5c10.4,3.8,20.8,7.4,31.1,11.4c8.9,3.5,18,6.4,26.8,10.1c10.5,4.3,21.3,7.8,32,11.7
	c11.9,4.4,23.8,8.8,35.7,13.1c9.3,3.4,18.6,6.7,27.8,10.1c0.9,0.3,2.6,0.4,2.4,2C1291.9,686.8,1290.6,686.1,1289.1,686.1z"/>
<path class="st3" d="M1224.6,798.9c-62.9-22.7-125.8-45.4-189.5-68.4c3-2.4,4.9-1.2,6.8-0.5c15.9,5.9,31.7,12.3,47.8,17.6
	c15.1,4.9,29.7,10.9,44.7,15.9c18.3,6.1,36.3,13.1,54.4,19.7c12.2,4.4,24.4,8.8,36.6,13.2C1225.1,797.3,1224.9,798.1,1224.6,798.9z"
	/>
<path class="st3" d="M1270.4,625.8c-37.4-13.7-74.9-27.4-112.3-41.1c0.3-0.8,0.6-1.6,0.9-2.4c37.5,13.7,74.9,27.3,112.4,41
	C1271,624.1,1270.7,624.9,1270.4,625.8z"/>
<path class="st3" d="M1211.7,1195c18.1,0,36.3,0,54.4,0c1.3,0,3.6-0.9,3.7,1.1c0.2,2.7-2.4,1.6-3.8,1.6c-36.6,0.1-73.2,0-109.8,0
	c-1.4,0-3.7,0.5-3.6-1.4c0-1.9,2.3-1.3,3.7-1.3C1174.8,1195,1193.3,1195,1211.7,1195z"/>
<path class="st3" d="M1253.1,1175.8c-12.6,0-25.3,0-37.9,0c-1.3,0-3.7,0.8-3.6-1.3c0.1-2,2.4-1.2,3.7-1.2c25.5,0,50.9,0,76.4,0
	c1.3,0,3.7-0.7,3.6,1.3c-0.1,2-2.4,1.2-3.7,1.2C1278.8,1175.8,1265.9,1175.8,1253.1,1175.8
	C1253.1,1175.8,1253.1,1175.8,1253.1,1175.8z"/>
<path class="st3" d="M629.2,439.3c-0.2,0.9,0.6,2.5-1.2,2.7c-1.9,0.2-1.5-1.3-1.5-2.4c-0.3-8.1-3.7-14.6-9.7-20
	c-0.7-0.6-2-1.3-1.1-2.4c1-1.2,2-0.2,3,0.5C624.1,421.7,628.8,431.2,629.2,439.3z"/>
<path class="st3" d="M331.2,452.5c-50.5-7.9-101.1-15.8-151.6-23.7c-0.5-0.1-0.9-1.3-2.1-3.3c52.2,8.4,103.1,16.5,154.1,24.7
	C331.4,450.9,331.3,451.7,331.2,452.5z"/>
<path class="st3" d="M163.5,386.3c6.6-0.5,151.2,24.5,153.5,27.9c-51.3-8.7-102.6-17.5-153.8-26.2
	C163.3,387.5,163.4,386.9,163.5,386.3z"/>
<path class="st3" d="M159.4,352.6c7.6-0.8,14.8,1.5,22.1,2.6c11.4,1.8,22.7,4.2,34.1,6c13,2,25.8,4.5,38.7,6.9
	c12.7,2.3,25.3,4.6,38,6.9c5.3,1,10.5,2.1,15.8,3c1,0.2,2.2-0.2,2,1.3c-0.2,1.5-1.6,0.9-2.4,0.8c-7.3-1-14.6-1.9-21.8-3.3
	c-11-2-22-4.3-33.1-6c-14.8-2.2-29.4-5.6-44.1-8.3c-14.7-2.7-29.4-5.1-44.1-7.5C162.7,354.8,161,354.1,159.4,352.6z"/>
<path class="st3" d="M307.6,348.2c-5.3-1.5-10.6-2.3-15.8-3.5c-8.7-2-17.5-3.7-26.2-5.9c-11.6-2.9-23.4-5.2-35.1-8
	c-17.1-4.1-34.2-7.8-51.4-11.4c-3.7-0.8-7.3-1.8-11-2.5c-1.1-0.2-2.1-0.7-1.7-2c0.5-1.6,1.4-0.3,2.2-0.2c14.9,2.4,29.4,6.4,44.1,9.4
	c10.8,2.2,21.6,4.6,32.4,7c8.9,2,17.7,4.1,26.6,6c12.1,2.5,23.9,6.1,36.2,8c1.2,0.2,2.5,0.2,2.4,1.9
	C310,348.9,308.3,347.5,307.6,348.2z"/>
<path class="st3" d="M198.5,466.6c51.6,7.2,103.3,14.3,154.9,21.5c-2.4,2.5-4.9,1.8-7.3,1.5c-49.3-6.7-98.7-13.5-148-20.4
	C198.2,468.3,198.3,467.5,198.5,466.6z"/>
<path class="st3" d="M302.3,291.9c-34-5.7-67.4-14.1-102.2-21.3C204.9,268.6,294.2,287.2,302.3,291.9z"/>
<path class="st1" d="M1119.5,1047.5c37.9,0,75.2,0,112.5,0c1.7,0,3.3,0.1,5,0c2.5-0.2,3.6,0.8,3.6,3.4c-0.1,8.7-0.1,17.3,0,26
	c0,2.9-1.2,3.6-3.9,3.6c-37.5-0.1-74.9-0.1-112.4,0c-3.6,0-4.7-1.8-4.7-4.9C1119.5,1066.3,1119.5,1057,1119.5,1047.5z"/>
<path class="st1" d="M1335.7,1168.3c53.1,0,105.5,0,157.8,0c2.3,0,4.7,0.1,7,0c3.5-0.2,5.1,0.8,5,3.4c-0.1,8.7-0.2,17.3,0,26
	c0.1,2.9-1.7,3.6-5.5,3.6c-52.6-0.1-105.1-0.1-157.7,0c-5.1,0-6.6-1.8-6.6-4.9C1335.7,1187.1,1335.7,1177.8,1335.7,1168.3z"/>
<path class="st5" d="M2406.2,1112.8c-0.5,5.6-0.1,11.2-0.1,16.8c0,0.6,0,1.2,0.1,1.8c0,0.7,0,1.4-0.1,2c0,0.3,0,0.6,0,1v3
	c0,2.3,0,4.7,0,7c-2.5,9.9-7.6,19.3-6,30c0,0.3,0,0.6,0,1c-10.3,7-20.7,14-31,21c-3.3,0-6.7,0-10,0c-8.6,0-17.2-0.2-25.8,0.1
	c-4.2,0.1-6.2-1.2-7.5-5.3c-1.4-4.8-3.8-9.2-5.7-13.8c-0.7-8.9-2.5-10.7-9.9-10c-7.3,0.7-14.7,1.3-22.1,1.9c0-1,0-2,0-3
	c-0.7-2.4-1.5-4.7-2-7.1c-0.9-4.6-3.9-8.9-0.9-14c3.1-5.2,5.2-11,8.3-16.2c2.7-4.4,5.9-8.6,9.4-12.3c3.7-4,8.1-7.4,12.2-11.1
	c0.6-0.7,1.2-1.5,1.9-2.2c0.8,0.2,1.8,0.8,2.2,0.5c4.9-3.9,10.2-7.4,14.3-12c4.6-5.1,8.3-2.9,12.4-0.1c0.7,0.5,1.2,1.2,1.9,1.6
	c5,3,9.8,7.1,15.2,8.8c6.6,2.1,13.9,2.3,20.9,3.1c5.6,0.6,11.2,0.7,16.8,1.2C2404.3,1106.9,2406.6,1108.2,2406.2,1112.8z"/>
<path class="st5" d="M3113.1,333c-0.2,0.3-0.4,0.5-0.6,0.8c-8,9.4-15.9,19-24.2,28.1c-5,5.5-10.8,10.4-16.2,15.5c0,0.8,0,1.5,0,2.2
	c-0.2,0.6-0.4,1.2-0.7,1.8c-4.1-1.6-5.6,2.4-8.3,3.9c-0.7,1.4-1.5,2.8-2.2,4.2c-1.1,0.2-2.5,0-3.3,0.6c-6.1,3.9-11.9,8.1-18,11.9
	c-5,3.1-10.2,6-15.3,8.9c-6.4,3.6-12.8,7.1-19.2,10.6c-1.7,0.7-3.3,1.3-5,2c-7.9,2.8-15.6,6.1-23.6,8.2c-15.1,4-30.3,7.4-45.6,10.7
	c-6.5,1.4-13.2,2-19.8,3h-42c-0.6-0.3-1.1-0.8-1.7-0.9c-11.6-1.4-23.2-2.4-34.7-4.2c-5.5-0.8-11.7-0.2-15.8-5.6
	c-2.9-3.9-6.1-7.7-9.4-11.3c-2.2-2.5-4.9-4.7-7.3-7c-0.7-0.7-1.3-1.3-2-2c-2.9-4-5.5-8.2-8.6-12c-7.2-8.7-14.5-17.2-21.9-25.7
	c-4.8-5.5-9.7-10.8-14.5-16.2c-0.3-0.3-0.7-0.7-1-1c-6.3-7.8-12.5-15.6-18.9-23.3c-4.9-5.9-9.9-11.8-15.1-17.5
	c-4.1-4.6-8.6-8.8-13-13.2c-0.7-1-1.3-2-2-3c-2-2.3-4-4.7-6-7c-0.7-1-1.3-2-2-3c-1.7-2-3.3-4-5-6c0.3-0.7,0.6-1.3,1-2
	c0.3,0,0.7,0,1,0c1.3,0.6,2.7,1.3,4,2c2.7,0.4,5.3,0.7,8,1.1c2.7,0.7,5.3,1.3,8,2c10,1.7,20.1,4.5,30.1,4.7
	c17.9,0.3,35.8-0.8,53.7-1.9c5.4-0.3,10.8-2.5,16.2-3.8c1.3-0.3,2.7-0.7,4-1c2.3-0.3,4.7-0.7,7-1c3-1,6-2,9-3c3.7-1,7.3-2,11-3
	c1.3-0.3,2.7-0.7,4-1c3.3-1.7,6.7-3.3,10-5c1.3-0.3,2.7-0.7,4-1c1-0.7,2-1.3,3-2c1.7-0.4,3.3-0.7,5-1.1c3.7-2,7.3-4,11-6
	c1.7-1,3.3-2,5-3c3.3-2,6.7-4,10-6c0.3-0.3,0.7-0.7,1-1c1.7-0.7,3.3-1.4,5-2c2.3-2,4.7-4,7-6c1.3-1,2.7-2,4-3c2-1.3,4-2.7,6-4
	c0.7-0.3,1.3-0.7,2-1c6-5,12-10,18-15c1.3-1,2.7-2,4-3c0.7-0.7,1.3-1.3,2-2c4-4,8-8,12-12c1.3-1.3,2.7-2.7,4-4c4-4,8-8,12-12
	c3.5-3.8,6.2-0.7,9,1c2.3,2.3,4.7,4.7,7,7c5,4.7,10,9.3,15,14c1,0.7,2,1.3,3,2c0.7,0.7,1.3,1.3,2,2c3.3,3.3,6.7,6.7,10,10
	c1,0.7,2,1.4,3,2c2,2.3,4,4.6,6,7c1,1,2,2,3,3c2.4,2.2,4.8,4.5,7.1,6.7c8.9,8.4,17.9,16.9,26.9,25.3c0.6,0.3,1.3,0.7,2,1
	c1.7,1.7,3.3,3.3,5,5c1.3,1,2.6,2,4,3c1.8,2,3.7,4,5.5,5.9c0.8,0.7,1.7,1.3,2.5,2c0.4,0.9,0.6,1.9,1.3,2.6
	c8.7,8.1,17.9,15.7,26,24.3C3120.4,324.9,3122,320.6,3113.1,333z"/>
<path class="st6" d="M2227.1,1038.1c-1.7,5.6-5.5,5.4-10.4,4.5c-43-7.7-86.1-15.1-129.2-22.6c-39.5-6.9-79-13.7-118.4-20.7
	c-13.6-2.4-27.3-3.9-40.5-8.1c-2.4-0.8-4.2-2.7-6.8-2.7c-1.4-3.1-4.8-0.4-6.7-2.2c-6.9-3.6-13.8-6.9-20.5-10.8
	c-22-12.7-39.8-29.5-49.9-53.3c-8.5-20-9.3-40.6-5.3-61.7c4.9-25.9,17-48.6,30.7-70.5c19.7-31.8,43.4-60.5,68.5-88.1
	c37.2-41,77.4-78.8,118-116.4c22.5-20.8,48.4-36.1,77.3-46.4c8.3,0.8,16.7,1.5,25,2.3c7.7,0.8,15.5,1.7,23.2,2.5
	c1.5,0.1,3.7,1.1,4.5-0.7c0.7-1.8-1.6-2.6-2.7-3.7c-2.8-3.2-6.6-5.5-8.4-9.6c1.2-1.5,3-1.5,4.6-1.5c17.2-0.5,34.3-2.7,51.5-3.5
	c23.8-1.2,47.5-0.8,71.3-0.7c1.8,0,3.7,0.5,4.8-1.5c0.2,1.2,0.3,2.5,2.1,2.5c28.8,39.2,66.1,65.2,114.9,72.8
	c27.1,4.2,53.1,0.6,76.9-14.1c12.7-7.8,23.8-17.5,31.7-30.5l0.3-0.1l0.2,0.3c0.3,27.2-0.1,54.4-1,81.5c-1.9,2-1,4.4-1,6.6
	c-0.7,43.8-1.3,87.5-1.9,131.3c-0.4,31.3-1.2,62.6-1.2,93.9c0,16.1-2,32.2,0.7,48.2c2.7,16.1,8.9,30.7,19,43.4
	c4.2,5.3,9.1,10,13.7,15c-1.7,0.9-3.6,0.6-5.4,0.6c-10.2,0-20.3,0-30.5-0.1c-3.8-0.1-9,1.7-11-0.8c-1.9-2.5,0.9-7.2,1.8-10.8
	c4.6-18.3-4.6-36.3-22.2-43.3c-14.1-5.6-28.4-10.5-42.8-15.2c-1.7-0.6-3.4-1.6-5.2-0.5c0,0,0,0,0,0c0-0.3,0-0.5,0-0.8
	c-0.4,0.2-0.7,0.4-1.1,0.5c-1.1-0.5-1.5-2.2-3.1-1.9c-6.2-8.3-12.3-16.5-18.5-24.8c-17.6-23.6-35.1-47.2-52.8-70.8
	c-4.3-5.8-10.2-6.7-15.1-2.8c-4.5,3.6-4.7,9.4-0.4,15c17.3,23,34.6,46,51.8,69c0.9,1.2,2.6,2.2,2,4.4c-1.2-0.3-2.3-0.5-3.4-0.8
	c-13.3-3.4-26.6-7-40-10.1c-14.4-3.4-28.9-6.4-43.4-9.4c-7.1-1.5-14.2-3.7-21.5-3.7c-2-2.6-5.1-2.3-7.7-2.9
	c-24.3-5.5-48.6-10.8-72.9-16.2c-31.4-6.9-62.8-13.8-94.1-20.8c-6.2-1.4-12.5-2.3-19-4.7c35.1-41.3,70.2-81.8,105.2-123.4
	c-2.6-0.5-3.2,0.1-3.7,0.7c-12.9,15-25.9,30-38.7,45c-21.2,24.8-42.4,49.6-63.5,74.4c-1.8,2.1-3.7,2.9-6.5,2.3
	c-11-2.2-21.9-4.4-33-6.2c-5.2-0.9-10.4-3-15.9-2.1c0.2,1.8,1.3,1.9,2.2,2.1c9.9,2.5,20,3.6,29.9,6.1c8.5,2.2,17.4,2.8,26.1,4.6
	c19.6,4.1,39.2,8.5,58.8,12.8c31.2,6.9,62.4,13.8,93.6,20.6c13,2.8,25.7,6.8,39,8.2c-0.4,1.3-0.6,2.6-1.1,3.8
	c-21.3,48.5-42.7,96.9-63.9,145.5c-2.6,6-6.2,11.7-7.2,18.4C2227.4,1036,2226.6,1036.6,2227.1,1038.1z"/>
<path class="st6" d="M2679.6,976c-5.8,0-11.6,0.1-17.4,0.1c-5.4,0-5.6,0.2-4.3,5.5c0.5,1.7,2.1,3,1.9,5c-33.1,12.8-64.1,9.1-93-11.7
	c0.3-2.1-1.4-2.8-2.7-3.9c-14.8-12.5-24.9-28.1-30.2-46.8c-4.2-14.5-3.1-29.4-3-44.2c1-81.3,2.1-162.5,3.1-243.8
	c6.9,1.9,14.1,1.6,21.2,2.2c21.4,2,42.8,1.8,64.2,0.1c13.2-1.1,26.5-2.4,39.7-3.6c0.8,0,1.6,0.1,2.4,0.1
	c3.9,15.8,7.8,31.6,11.7,47.5c14.5,59.7,27.7,119.6,38.8,180c2.5,13.4,5.7,26.7,5.2,40.5c-0.9,27.9-12.6,50.6-33.3,68.9
	C2682.4,973.2,2680.5,974.1,2679.6,976z"/>
<path class="st7" d="M2013.4,1198.2c-8.8-1.1-17.6-0.6-26.3-0.1c-11.7,0.6-23.4,1.7-35.1,1.7c-12.3,0-24.5,0.6-36.7,1.3
	c-10.6,0.6-21.2-0.3-31.7,0.9c-10,1.2-19.8,0.4-29.8,0.8c-2.3,0.1-3.4,0.1-3.9-3.1c-2-14.1-3.9-28.3-6.6-42.3
	c-2.2-11.9-3.7-24-5.1-36c-1.1-9.6-0.9-9.7,9.2-12.5c34.4-9.4,68.9-18.7,103.4-28.1c17.5-4.8,35.1-9.5,52.6-14.6
	c9-2.6,18.3-4.4,27.3-7.4c2.6-0.9,4.2-3.6,7.2-3.9c2.9-0.3,4,0.2,4.3,3.5c0.7,7.9,2.1,15.8,3.2,23.7c1.2,8.4,2.4,16.8,3.6,25.2
	c1.4,10,2.6,20,4,30c0.4,3.1,2.9,1.5,4.3,1.3c8.5-1.5,16.9-3.5,25.7-3.8c14.5-0.6,25.8,4.1,32.8,17.4c2.6,4.9,6.4,6.8,12.1,6.8
	c18.4,0,36.8-2.2,55.2-1.1c16.2,1,32.6,0.5,48.3,5.1c5,1.5,10.1,3.2,13.8,7.4c4.9,5.6,3.8,11.5-2.9,14.6c-5.8,2.7-12,3.6-18.2,3.8
	c-12.6,0.3-25.3,0.1-38,0.1c-4.8,0-9.5,0.9-14.2,1.9c-3.5,0.8-6.6,2.5-5.9,7.1c0.4,3.1-2.4,3.7-4.1,3.9c-10,1.1-20,1.4-30.2,0.4
	c-7.5-0.8-15-1.5-22.5-2.3c-7.8-0.8-15.5-2.4-23.3-2.6c-9.4-0.3-18.9-3.3-28.4,0.2c-2,0.7-3.8,1.1-5.4-0.8c-0.9-1-2.2-0.8-3.3-0.6
	c-11,1.6-22.2,0.4-33.2,1.7C2014.6,1196.9,2013.7,1196.6,2013.4,1198.2z M1891.9,1099.8c-15.8,3.7-31.1,8.9-47,12.2
	c-3,0.6-5.7,1.8-5,6.2c1.9,11.6,3.5,23.2,5.3,34.7c2.3,15,4.7,30,6.7,45.1c0.3,2.2,1.2,2.8,3.2,2.8c3.8,0,7.6-0.8,11.2-0.7
	c13.2,0.2,26.4-1.2,39.7-1.1c1.3,2,3.3,0.9,5,0.9c22-0.6,43.9-1.3,65.9-2.1c1.8-0.1,4.1,0.5,5.3-1.7c5.6-0.3,11.2-0.9,16.7-0.9
	c13.4,0.1,26.8-1.5,40.2-1.3c3,0.1,6,0.3,9-0.1c1.4-0.2,4.2,0,3.7-2.6c-1-4.8-1.4-9.6-2-14.5c-1.4-11-3.3-21.9-4.8-32.8
	c-1.4-10-3-19.9-4.3-29.9c-1.1-8.8-2.6-17.7-3.7-26.5c-1-7.5-2-14.9-3.2-22.4c-0.3-2.1-1.1-3.9-4.2-2.9c-3.9,1.2-8,1.8-11.9,3
	c-18.1,5.5-36.5,9.9-54.7,15.2c-2-1.2-3.9-0.3-5.7,0.2c-20.4,5.5-40.8,11-61.2,16.6C1894.6,1097.6,1892.1,1097.1,1891.9,1099.8z
	 M2054.1,1188.7c-0.5,2.2-0.1,4.3,1.6,5.9c0.3,0.3,1.6,0.2,1.8,0c1-1.9,0.5-3.9,0.4-5.9c0-0.3-0.1-0.7-0.2-1
	c-1.6-10.8-3.3-21.6-4.6-32.4c-1.3-10.5-2.9-21.1-4.5-31.6c-2-12.9-3.3-25.8-5.5-38.6c-1.4-8.3-2.2-16.8-3.2-25.2
	c-0.2-1.8-1.2-2.2-2.7-2c-1.9,0.2-1.3,1.7-1.2,2.7c0.1,1.3,0.9,2.5,1,3.8c1.1,13.5,3.4,26.8,5.2,40.2c1.8,13.2,3.5,26.4,5.8,39.5
	c1.6,9.1,2.7,18.4,3.9,27.6C2052.7,1177.4,2053.4,1183,2054.1,1188.7z"/>
<path class="st7" d="M2175.5,529.8c1.8,4.1,5.6,6.4,8.4,9.6c1,1.2,3.4,2,2.7,3.7c-0.7,1.8-3,0.9-4.5,0.7c-7.7-0.7-15.5-1.7-23.2-2.5
	c-8.3-0.8-16.7-1.6-25-2.3c-7.8-1-15.5-2.1-23.3-2.9c-5.2-0.6-10.5-1.2-15.7-1c-7,0.3-13.6-1.8-20.4-2.3c-7.8-0.6-15.5-1.9-23.3-2.8
	c-11.2-1.3-22.4-2.6-33.7-3.8c-7.7-0.8-15.4-1.3-23.1-2.1c-8.4-0.9-17-1.5-25.3-3.3c-4.7-1-7.3-6.1-10.3-9.6
	c-6.9-8.2-13.1-17.1-19.4-25.9c-7.4-10.4-13.4-21.7-19.2-33c-9.6-18.4-15.8-38.1-20.1-58.3c-4-18.7-4.5-38-4-57.2
	c0.4-17.1,3.2-33.9,7-50.5c7.7-33.2,21.2-63.9,39-92.9c2-3.3,4-3.8,7.2-2.8c12.8,4,25.9,6.7,38.9,10c10.8,2.8,21.7,5,32.5,7.9
	c18.8,5.1,37.9,9.4,56.8,14.2c22.1,5.6,44.2,11,66.4,16.3c7.8,1.8,7.9,1.9,4.8,9.6c-6.9,17.3-12.5,34.9-17,52.9
	c-3.5,14.1-5.9,28.4-8,42.8c-2.6,18-2.2,36.1-1.6,54.1c0.5,14.9,3.4,29.5,7.1,44c8.1,31.4,22.2,59.6,42.9,84.6
	C2173.1,528.1,2174,529.3,2175.5,529.8z M2181,541c-0.8-1.1-1.2-1.8-1.7-2.3c-23.8-24.8-40.1-53.8-50.1-86.6
	c-5.4-17.8-8.7-36-10-54.4c-1.7-23.6-0.4-47.3,4-70.5c3.4-18.2,7.7-36.2,13.6-53.9c2.9-8.6,6.2-17,9.3-25.5c1.7-4.6-0.2-5.8-4.1-6.6
	c-15.9-3.5-31.7-7.4-47.4-11.4c-13.3-3.4-26.6-7-39.9-10.1c-19-4.4-38-9.5-57-13.9c-16-3.7-31.9-7.7-47.7-12.3
	c-2.8-0.8-4.4-0.4-6,2.3c-17.6,28.4-30.4,58.8-38.3,91.3c-3.1,12.7-5.8,25.5-6.4,38.4c-1.1,20.5-1.2,41.2,2.7,61.6
	c3.4,18.1,8,35.8,15.4,52.6c10.9,24.7,25,47.6,42.7,68.2c5.1,6,9.5,12.3,18.9,12.1c7.3-0.2,14.6,1.3,22,2.1
	c8.2,0.8,16.4,1.6,24.5,2.5c10.3,1.1,20.5,2.5,30.8,3.5c11.1,1.2,22.3,2,33.4,3.2c13.4,1.5,26.7,3.3,40,4.8
	c9.6,1.1,19.3,1.8,28.9,2.7C2165.9,539.4,2173.1,540.9,2181,541z"/>
<path class="st7" d="M3062.4,386.9c9.3,54.2,37.4,94.7,86.1,120.5c14.7,7.8,30.5,12.8,46.7,15.3c15.5,2.4,31.1,1.7,46.9-0.5
	c14.7-2.1,28.7-6,42-12.1c36.9-16.9,63.7-44,79.8-81.2c7-16,10.6-32.9,12.2-50.5c1.3-14.7,0.2-29.1-2.7-43.1
	c-6.4-31-20.8-58.1-43.6-80.3c-13.9-13.6-29.8-24.5-47.7-32.2c-12.5-5.3-25.5-8.6-38.9-10.9c-13.9-2.4-27.8-3.2-41.5-1.6
	c-33.9,4.2-63.9,17.7-89.2,41c-11.2,10.3-20.7,22.1-28.6,35.1c-0.6,1-0.7,3.7-2.8,2.3c-1.8-1.2,0-2.7,0.7-3.8
	c6.9-11.4,15.1-21.8,24.5-31.3c14.4-14.7,31.4-25.5,49.8-33.9c11.2-5.1,23.2-8.2,35.5-10.4c18.5-3.2,36.8-2.3,55.4,0.6
	c33.3,5.2,61.4,20.3,85.1,43.6c15.4,15.1,27,32.7,35.2,53c9.4,23.5,13.6,47.4,11.7,72.4c-5.3,68.4-52.3,124.6-117.6,142.4
	c-16.7,4.5-33.6,6-50.9,5.6c-22.7-0.6-44.1-7-63.8-17.1c-29.1-14.9-52-37-67.8-65.9c-8.8-16.2-15.4-33.2-17.8-51.6
	C3060.8,390.4,3059.9,388.4,3062.4,386.9z"/>
<path class="st6" d="M3275.2,338.2c1-0.1,1.7,0,2,0.7c0.4,1.3-0.6,1.8-1.5,2.3c-5.6,3.3-11.3,6.5-16.9,9.7
	c-11.4,6.5-22.7,13.2-34.3,19.5c-3.6,2-2.6,3.2-0.3,5.2c14.7,12.6,29.2,25.2,43.9,37.8c9.7,8.4,19.5,16.7,29.1,25.1
	c1.1,1,3.7,2,2.2,3.7c-1.5,1.7-2.8-0.8-3.9-1.8c-22-18.8-44-37.7-66-56.6c-3.5-3-7-6.1-10.7-9c-2.2-1.8-2.8-3,0.2-4.7
	c17.9-10.2,35.8-20.5,53.7-30.7C3273.7,338.9,3274.6,338.5,3275.2,338.2z"/>
<path class="st7" d="M2872,412.5c-0.4,0.5-0.6,1.1-1,1.2c-1.2,0.4-1.8-0.5-2.5-1.2c-4.3-4.2-8.5-8.4-12.7-12.7
	c-26.6-26.6-53.2-53.1-79.8-79.7c-0.5-0.5-1-0.9-1.4-1.5c-0.8-1.1-3-1.9-1.4-3.5c1.2-1.1,2.3,0.7,3.2,1.6
	c7.2,7.1,14.4,14.3,21.6,21.5c23.7,23.6,47.3,47.3,71,70.9C2870,410.2,2870.9,411.4,2872,412.5z"/>
<path class="st7" d="M2852.5,310c3.1,1.1,5,3.7,7.2,5.8c29.4,29.3,58.8,58.7,88.3,88.1c0.2,0.2,0.5,0.5,0.7,0.7
	c0.9,1.2,3.6,2.2,2.1,3.9c-1.7,1.8-2.8-0.8-3.8-1.8c-7.9-7.8-15.8-15.7-23.7-23.6c-23.2-23.1-46.4-46.3-69.6-69.4
	C2852.5,312.6,2851.3,311.9,2852.5,310z"/>
<path class="st7" d="M2816.9,314.9c1.5,0.1,2.1,1.2,2.9,2c23.3,23.3,46.6,46.5,69.9,69.8c7.8,7.8,15.6,15.5,23.3,23.2
	c0.9,0.9,3,2,1.3,3.6c-1.4,1.3-2.3-0.7-3.1-1.5c-31-30.9-62-61.8-92.9-92.7c-1-1-2.6-1.7-2.4-3.5
	C2816,315.4,2816.6,315.2,2816.9,314.9z"/>
<path class="st7" d="M3014.8,381.9c-0.3,1.5-1,2-2.2,1.3c-0.8-0.5-1.5-1.3-2.2-2c-30.6-30.6-61.3-61.1-91.9-91.7
	c-0.7-0.7-1.4-1.4-2.1-2.1c-0.7-0.6-1-1.4-0.4-2.2c0.7-0.8,1.5-0.4,2.1,0.2c0.9,0.8,1.7,1.6,2.5,2.4c30.3,30.2,60.6,60.4,90.9,90.6
	C3012.7,379.5,3013.7,380.8,3014.8,381.9z"/>
<path class="st7" d="M2885.7,299.9c1,0.9,2.2,1.8,3.2,2.9c18.4,18.3,36.8,36.6,55.1,55c12,12,24,24,36,36c0.7,0.7,1.4,1.4,2.1,2.1
	c0.8,0.9,1.8,1.9,0.5,2.9c-1,0.8-1.8-0.4-2.4-1.1c-6.6-6.6-13.2-13.1-19.8-19.7c-24.6-24.5-49.2-49.1-73.8-73.6
	c-0.8-0.8-1.7-1.6-2.3-2.6C2883.8,300.7,2884.6,300.3,2885.7,299.9z"/>
<path class="st7" d="M2968.4,265.9c0.9,0.8,1.8,1.5,2.6,2.3c18.5,18.5,37,37,55.4,55.5c2.2,2.2,4.7,4.3,6.8,6.6
	c1.2,1.3,4.2,2.9,2.7,4.5c-1.8,2-3.3-1.2-4.5-2.3c-11.2-11-22.2-22.1-33.3-33.1c-9.9-9.9-19.8-19.8-29.6-29.7
	c-0.8-0.8-2.1-1.4-1.5-2.8C2967.3,266.4,2967.9,266.3,2968.4,265.9z"/>
<path class="st7" d="M2177,1197.3c7.6-5.1,35.3-4.6,40.8,0.7C2206.5,1203.7,2183.4,1203.3,2177,1197.3z"/>
<path class="st3" d="M1915.2,986.3c1.9,1.8,5.2-0.9,6.7,2.2c-1.5,0.2-2.9,0.5-4.4,0.5c-26.4,0.1-52.8,0.2-79.2,0.4
	c-1.3,0-1.9-0.4-2.1-1.3c-0.3-1,0.7-1.4,1.5-1.5c1.3-0.1,2.7-0.1,4-0.1c23.3-0.1,46.6-0.1,69.9-0.2c0,0,0,0,0,0
	C1912.7,986.3,1913.9,986.3,1915.2,986.3z"/>
<path class="st7" d="M2366.2,1112.6c-5.6,2.2-11.1,5.1-16.9,6.3c-3.8,0.8-7.3-2.9-10.6-4.9c-4-2.5-6.3-2.2-8,2.4
	c-1.9,5.5-5.9,8.3-11.9,8.8c-4.2,0.3-8.3,1.7-12.4,2.5c-0.9,0.2-2.1,0.7-2.5-0.6c-0.3-1.2,0.7-1.8,1.7-2c4.6-1.1,9.1-2.6,13.8-3
	c4.3-0.3,6.6-2.2,8.3-5.9c0.8-1.8,2.1-3.4,2.9-5.2c1.1-2.4,3.3-2.9,4.9-1.6c8.8,6.8,17.8,7.7,27.3,1.7c0.4-0.2,1-0.1,1.5-0.1
	c0.5,0,0.9,0.2,1.4,0.3C2365.9,1111.7,2366,1112.2,2366.2,1112.6z"/>
<path class="st7" d="M2331.6,1145.6c3.4,1.4,6.7,3,10.1,4c4.4,1.3,4.3,4.5,5.5,7.7c1.3,3.4,2.3,6.9,3.2,10.4c0.9,3.9,2.7,7,5.7,9.7
	c3.3,3,6.4,6.3,9.5,9.5c0.6,0.7,1.7,1.4,0.7,2.5c-0.9,1-1.8,0.4-2.5-0.4c-7.1-7.6-16.5-13.6-17.4-25.6c-0.2-3-1.4-6.1-2.6-9
	c-1.4-3.5-5.2-3.1-8-4.2c-1.7-0.6-3.3-1.3-4.9-2.1c-0.6-0.3-1.1-0.8-0.9-1.6C2330.2,1145.7,2331,1145.9,2331.6,1145.6z"/>
<path class="st7" d="M2374,1162c0.1,1.5,0.3,2.4-0.8,2.7c-1.1,0.3-1.3-0.6-1.6-1.4c-1.6-4.7-1.7-9.7-2.7-14.5
	c-0.3-1.6,1.1-2.3,2.1-3.1c8.8-7.1,17.5-14.2,26.3-21.3c0.9-0.7,2-2.5,3.3-1.1c1.5,1.8-0.7,2.6-1.7,3.4
	c-7.7,6.3-15.3,12.7-23.3,18.7c-3.6,2.7-4.4,5.7-3,9.7C2373.4,1157.6,2372.7,1160.4,2374,1162z"/>
<path class="st7" d="M3071,380.2c0.8-1.6,2-1.4,3.1-1.5c11.8-0.3,23.5-0.6,35.3-0.8c1.1,0,3.1-0.9,3.2,1.1c0.1,2-1.9,1.3-3,1.4
	c-12.1,0.4-24.2,0.6-36.3,0.9C3072.5,381.3,3071.7,381.2,3071,380.2z"/>
<path class="st7" d="M3319.1,376.7c0.8-1.6,2-1.4,3.1-1.5c11.8-0.3,23.5-0.6,35.3-0.8c1.1,0,3.1-0.9,3.2,1.1c0.1,2-1.9,1.3-3,1.4
	c-12.1,0.4-24.2,0.6-36.3,0.9C3320.5,377.7,3319.7,377.7,3319.1,376.7z"/>
<path class="st7" d="M3217,490.9c0-5.8,0-11.6,0-17.4c0-1.1-0.3-2.6,1.5-2.5c1.2,0.1,1.2,1.4,1.2,2.4c0.3,11.7,0.6,23.5,0.9,35.2
	c0,1.2,0.1,2.6-1.5,2.5c-1.3-0.1-1.1-1.4-1.1-2.4c0-6,0-11.9,0-17.9C3217.6,490.9,3217.3,490.9,3217,490.9z"/>
<path class="st7" d="M3214.8,253.5c0,6,0,12,0,18c0,0.9,0.3,2.3-1,2.4c-1.4,0.1-1.9-1-1.9-2.3c-0.2-12.5-0.4-25-0.5-37.5
	c0-1,0-2.2,1.5-2c1.3,0.2,1.1,1.5,1.1,2.4c0,6.3,0,12.6,0,19C3214.2,253.5,3214.5,253.5,3214.8,253.5z"/>
<path class="st4" d="M2143.2,1056.7c-0.5,0.2-1.1,0-1-0.5c0.1-0.6,0.5-1.2,1.2-0.4C2143.6,1056.2,2143.5,1056.5,2143.2,1056.7z"/>
<path class="st4" d="M1911.5,986.3C1911.5,986.3,1911.4,986.3,1911.5,986.3C1911.4,986.3,1911.5,986.3,1911.5,986.3z"/>
<path class="st3" d="M2301.2,867.1c-0.1,0.3-0.2,0.6-0.3,0.9c-13.3-1.4-26-5.4-39-8.2c-31.2-6.8-62.4-13.7-93.6-20.6
	c-19.6-4.3-39.2-8.7-58.8-12.8c-8.6-1.8-17.5-2.5-26.1-4.6c-9.9-2.5-20-3.7-29.9-6.1c-0.9-0.2-2.1-0.2-2.2-2.1
	c5.5-0.9,10.7,1.2,15.9,2.1c11,1.8,22,4,33,6.2c2.8,0.6,4.7-0.2,6.5-2.3c21.1-24.8,42.3-49.6,63.5-74.4c12.9-15,25.8-30,38.7-45
	c0.5-0.6,1.1-1.3,3.7-0.7c-35,41.6-70,82.1-105.2,123.4c6.4,2.4,12.8,3.3,19,4.7c31.4,7,62.7,13.9,94.1,20.8
	c24.3,5.4,48.6,10.7,72.9,16.2C2296.1,864.8,2299.2,864.5,2301.2,867.1z"/>
<path class="st3" d="M2566.8,974.9c-2,0.7-3.2-1.1-4.9-1.5c-4.6-5-9.5-9.7-13.7-15c-10.1-12.8-16.3-27.3-19-43.4
	c-2.7-16-0.7-32.1-0.7-48.2c0.1-31.3,0.8-62.6,1.2-93.9c0.6-43.8,1.2-87.5,1.9-131.3c0-2.2-0.9-4.7,1-6.6c0.1,0.7,0.5,1.2,1.3,1.3
	c-1.1,81.3-2.1,162.5-3.1,243.8c-0.2,14.8-1.2,29.6,3,44.2c5.3,18.7,15.4,34.2,30.2,46.8C2565.3,972,2567,972.8,2566.8,974.9z"/>
<g>
	<path class="st7" d="M2452.7,1047.2c0,0,0.1,0,0.1,0c0-0.1,0-0.1,0-0.2L2452.7,1047.2z"/>
	<path class="st7" d="M2416.9,1068C2416.9,1068,2416.9,1068,2416.9,1068c0.1-0.1,0.1-0.1,0.2-0.2L2416.9,1068z"/>
	<path class="st7" d="M2446.7,903.2C2446.7,903.2,2446.7,903.2,2446.7,903.2C2446.7,903.2,2446.7,903.2,2446.7,903.2
		C2446.7,903.2,2446.7,903.2,2446.7,903.2z"/>
	<path class="st7" d="M3320.2,931.2c5.5-13.5,10.4-27.1,15.6-40.7c3.9-10.3,7.8-20.6,11.8-30.8c5-13.1,10.1-26.1,15.1-39.2
		c3.7-9.7,7.5-19.3,11-29.1c1.9-5,4.3-10.1,4.9-15.3c1.8-15.2-9.3-25.8-25.3-25.8c-89.8,0.2-179.6,0.1-269.4,0.1c-2.9,0-5.9,0-9.5,0
		c0.7-1.2,0.9-1.7,1.3-2.2c11-19,19.5-39.2,26.4-60.1c6.5-19.9,11.4-40.1,14-61c2-15.9,3.2-31.7,3.8-47.7c0.1-2.9-0.4-4.5-3.7-5.6
		c-17.3-5.9-34.5-12.2-51.8-18.3c-15.8-5.6-31.7-11.1-47.6-16.6c-19-6.5-38.1-12.9-57.1-19.5c-21.2-7.4-42.4-14.9-63.6-22.4
		c-3.6-1.3-5.9-2-6.7,3.3c-1.2,8.5-3.3,16.9-5.3,25.3c-5.3,22.2-12.2,43.8-20.1,65.3c-6.7,18.2-14.8,35.7-23.4,53.1
		c-7.9,15.8-17,30.9-27,45.4c-17.5,25.5-37.3,49-61,69.1c-1,0.9-3.4,1.1-2.7,3c0.5,1.3,2.1,2.1,3.8,2.7c14,4.8,27.8,9.9,41.7,15.1
		c12.5,4.7,24.8,9.6,37.3,14.2c11,4.1,22,7.9,33,11.9c12.9,4.8,25.6,10,38.5,14.4c4,1.4,4.1,3.1,2.8,6.1c-2.4,6-5.2,11.8-7.2,17.9
		c-7.1,21.5-16.1,42.2-23.8,63.5c-7.4,20.6-15.6,41-23.3,61.6c-1.9,5.1-4.2,8.2-10.4,7.2c-4.6-0.7-9.3-0.1-14-0.1
		c-49.7,0-99.3-0.1-149-0.1c-5.8,0-11.6,0.1-17.4,0.1c-5.4,0-5.6,0.2-4.3,5.5c0.5,1.7,2.1,3,1.9,5c6.5,13.3,18.6,18.5,31.8,22.5
		c15.1,4.6,30.1,9.6,45.1,14.3c23.5,7.4,47.4,13.9,70.6,22.3c17.1,6.2,34.3,7,52,6.9c5.3,0,10.7,0.2,16-0.1c3.2-0.2,3.9,1.1,3.8,4
		c-0.2,9-0.1,18,0,27c0,8,4.5,12.5,12.5,12.6c0.7,0,1.3,0,2,0c12.1,0,12,0,11.6,12.1c-0.1,3.1-1.4,3.3-3.6,2.7
		c-8.9-2.5-17.9-4.9-26.8-7.4c-13.5-3.8-27-7.6-40.4-11.4c-13.3-3.8-26.6-7.5-40-11.2c-15.4-4.3-30.9-8.5-46.3-12.8
		c-14.2-4-28.4-8.2-42.7-12.1c-13.2-3.7-26.4-7.2-39.5-10.8c-7.7-2.1-15.4-4.2-23-6.6c-2.8-0.9-5.4-1.4-8.3-1.3
		c-18.5,0.4-36.9,0.2-55.4,1.2c-7,0.4-14,0.5-22.6,0.9c6.3-6.2,8.4-12.5,7.7-20.2c-0.7-6.8-3.7-11.7-9.2-15
		c-19-11.6-38.1-23.1-57.2-34.6c-2.2-1.3-4.1-2.8-5.6-4.8c-15-19.9-30.1-39.8-45.2-59.7c-0.4-0.5-0.9-1-0.3-1.6
		c-0.4-0.1-0.7-0.2-1.1-0.3c-1.1-0.5-1.5-2.2-3.1-1.9c-1.1,2.3,1,3.3,1.9,4.7c13.4,18,26.9,35.9,40.4,53.8c0.3,0.1,0.5,0.4,0.6,0.7
		c0.3,0.5,1.2,0.8,0.6,1.4c-0.6,0.8-1,0-1.3-0.5c-0.4-0.2-0.9-0.4-1.3-0.7c-10.5-6.3-21.1-12.6-31.6-19c-1.4-0.8-2.4-2.3-3.4-3.6
		c-10.5-13.6-20.9-27.2-31.3-40.8c-0.6-0.8-1.2-1.6-1.8-2.4c-0.8-1-1.5-2.7-3-1.5c-1.3,1.1,0.3,2.1,0.9,2.9
		c4.6,6.1,9.3,12.2,13.9,18.3c4.8,6.3,9.7,12.7,14.5,19.1c0,0.4,0.1,0.8,0.1,1.2c-0.4-0.1-0.8-0.2-1.2-0.3
		c-12.1-7.3-24.2-14.5-36.3-21.8c-1.7-1-3.4-2.1-5.2-3c-1.2-0.6-2.6-2.7-3.8-0.9c-1.3,1.9,1.2,2.3,2.3,3c5.6,3.5,11.3,6.9,17,10.4
		c45.6,27.6,91.3,55.2,136.9,82.8c10.5,6.3,13.6,16.6,8,26.2c-6.8,11.6-17.8,15.2-28.7,9.1c-25.4-14.2-50.1-29.4-74.8-44.8
		c-0.6-0.4-1-0.9-1.6-1.1c-1-0.3-2.1-1.9-3-0.5c-1.2,1.7,0.7,2.3,1.7,2.9c9.6,6,19.2,11.9,28.8,17.9c3,1.8,5.9,3.8,9,5.4
		c2.6,1.4,2.8,3,1.6,5.6c-6.3,13.9-17.6,20-32.1,21.4c-2.4,0.2-4.9,0.2-7.3,0.2c-0.7,10.5-11.4,18.9-23.9,19.8
		c-4,0.3-8.1-0.9-12,1.1c-4.4,6.1-15,9.3-22.2,7.5c-10.2-2.5-19.2-7.4-27.7-13.3c-5.3-3.6-11.6-2.9-17.4-4.2
		c-14.1-3-28.4-5.5-42.6-8.1c-13.3-2.4-26.6-4.7-39.9-7.1c-12.8-2.3-25.6-4.8-38.4-7.2c-1.3,0.3-2.1,0.9-1.6,2.3
		c16.5,3.1,33,6.2,49.5,9.3c-0.5,1-1.1,1.6-2.3,1.6c-7.9-0.2-15.8,0.3-23.7,0.9c-10,0.8-20.2,0.5-30.2,0.8
		c-19.8,0.7-39.7,1.1-59.5,2.2c-9.1,0.5-18.3,0.4-27.5,0.6c-1,0-2.7-0.4-2.6,1.4c0.1,1.2,1.2,1.7,2.4,2c9.6,2.6,19.1,5.3,28.7,7.9
		c13.8,3.8,27.7,7.5,41.5,11.4c19.5,5.5,39,11.1,58.6,16.6c13.7,3.9,27.3,8.1,41.1,11.5c4.4,1.1,8.9,4.4,14.9,1.4
		c-13-3.7-25.1-7.3-37.2-10.6c-22.6-6.3-45.2-12.4-67.8-18.7c-14.1-3.9-28.1-7.9-42.1-11.8c-9.2-2.6-18.6-4.6-27.6-8
		c-0.5,0.2-1.1,0-1-0.5c0.1-0.6,0.5-1.2,1.2-0.4c12.8-1.6,25.8-0.3,38.7-1.7c10.3-1.1,20.8,0.1,31.2-1c11.5-1.1,23.1,0.2,34.7-1
		c10.6-1.1,21.3-0.8,32-1.1c9.4-0.3,18.8,0,28.1,1.8c12.5,2.5,25.1,4.8,37.8,6.8c10.3,1.7,20.2,4,28.9,10.5c5,3.7,11.1,6.2,17.4,7.2
		c8.4,1.3,17.1,1.9,24-4.4c2.8-2.5,5.4-3,8.9-3.1c8.3-0.3,16.5-1.9,22.6-8c3.2-3.2,6-3.1,9.8-1.9c22,7.4,44,14.7,66.1,22
		c14.6,4.8,29.3,9.4,44,14.1c2.9,0.9,5.2,2.4,7.2,4.9c6.6,8.8,13.5,17.3,20.2,26c1.9,2.4,4.2,5.4,7.1,4.8c6.4-1.2,8.8,3,11.8,6.9
		c0.8,1,1.7,2.1,2.5,3.1c1.6,1.9,3.9,1.6,5.5,0.8c1.9-1,1.3-3.3,0.6-5c-0.6-1.5-1.8-2.7-2.9-4c-2.9-3.4-5.9-6.6-3.8-11.7
		c0.8-2-0.3-4.2-1.2-6.2c-0.5-1.2-2.6-2.4-1.2-3.8c1.1-1,2.7,0.2,4.1,0.7c21.3,7,42.6,14,64,21c14.3,4.6,28.3,10,42.8,14
		c1.2,0.3,2.8,1.5,3.3-0.4c0.4-1.7-1.6-1.8-2.7-2.2c-10.8-3.5-21.7-6.8-32.5-10.4c-25.1-8.4-50.2-17-75.6-24.6
		c-6.6-2-11.3-5.9-15.5-11.5c-13.4-17.8-27.3-35.3-41-52.9c-0.8-1.1-2.2-1.8-2-3.9c3.8,1.2,7.3-0.7,10.9-0.6
		c14.3,0.3,28.6-1.1,42.9-1c12.5,0.1,25-1.2,37.4,2.7c17.5,5.5,35.3,10.1,53,15.1c19.8,5.5,39.7,10.7,59.3,16.7
		c8.4,2.6,17,4.5,25.4,7.3c13.6,4.5,27.6,7.8,41.5,11.6c11.3,3.2,22.6,6.4,33.9,9.6c13.3,3.7,26.5,7.3,39.8,10.9
		c1.7,0.5,2.5,1.1,2.5,3c-0.1,9.5,0,19,0,28.5c0,1.3,0.1,2.9-1.9,2.6c-4.7-0.6-9.2,0.9-13.8,1.1c-7.7,0.3-15.5,0-23.3,0.7
		c-15.4,1.3-31,1.7-46.5,2.1c-11.3,0.3-22.7-0.4-34,0.2c-10.9,0.6-21.6-0.9-32.9,2.2c-12.1,3.4-25.5,2.3-38.3,2.7
		c-14.8,0.5-29.6,0.5-44.5,0.7c-47.6,0.7-95.3,1.5-142.9,2.1c-6.2,0.1-12.5,1.2-18.7-0.6c-10-2.9-20.1-5.7-30.1-8.5
		c-13.6-3.8-27.2-7.7-40.8-11.5c-9.4-2.6-18.8-5-28.2-7.6c-1.1-0.3-2.5-1.1-2.9,0.1c-0.5,1.5,0.9,2.1,2.4,2.3
		c2.1,0.3,4.1,1.1,6.1,1.6c14.6,4.1,29.1,8.2,43.7,12.3c9.5,2.7,19.1,5.2,28.6,8c10.6,3.1,21,6.8,32.4,6.6
		c77.6-1.7,155.3-1.2,232.9-5c3-0.1,3.9,0.5,3.9,3.6c-0.2,17.2,0.1,34.3-0.1,51.5c0,3.9,0.9,5.1,5,5.1
		c173.3-0.1,346.6-0.1,519.9-0.1c13.8,0,21.8-9.8,21.7-21.5c-0.1-6.3-0.3-12.7,0.1-19c0.6-9.1-2.1-16.7-9.3-22.5l0.4-0.1
		c0,0-0.4-0.2-0.4-0.2c13,0,26,0.1,39,0c7.4-0.1,12-4.5,12.2-11.7c0.2-12.3,0.2-24.7,0-37c-0.1-6.9-5-11.3-11.9-11.5
		c-3.5-0.1-7-0.2-10.5,0c-2.9,0.2-3.6-0.8-3.6-3.6c0.1-16,0.2-32,0-48c0-3.5,0.8-4.5,4.3-4.4c16.7,0.2,33.3-0.1,50,0.2
		c3.7,0.1,4.4-1.2,4.3-4.5c-0.1-18.3,0-36.7,0-55c0-6.3,0-6.3-6.5-6.3c-20.5,0-41,0-61.5,0c-2.1,0-4.6,0.7-3.1-3.2
		C3310.8,956.7,3315.1,943.8,3320.2,931.2z M2848.7,982.5c-5.5,14.8-11.3,29.4-16.7,44.2c-0.9,2.4-1.9,2.2-4.4,2.2
		c-2.7-1.5-6.6-1.8-10.4-3c-19.6-5.9-39.1-11.9-58.9-17.3c-15.9-4.3-31.6-9.6-47.4-14.4c-14.7-4.4-29.5-8.7-44.3-13.1
		c-1.3-0.4-3.6-0.1-2.9-2.4c0.6-1.8,2.3-0.4,3.4-0.1c16.6,4.8,33.1,9.6,49.6,14.5c15.2,4.5,30.4,9.2,45.7,13.7
		c19.2,5.7,38.5,11.2,57.8,16.9c9.5,2.8,9.2,2.7,12.6-6.9c4.2-11.8,9-23.4,13.6-35.1c0.4-1.1,0.5-3.2,2.3-2.6
		C2851,980.1,2849,981.8,2848.7,982.5z M2483.7,1041.4c4.5-4.9,9.2-9.7,11.5-16.1c0.8-2.4,2.1-1.2,3.4-0.5
		c8.3,4.8,16.7,9.6,25.1,14.4c0.7-0.1,0.8,0.4,0.6,0.9c-0.1,0.3-0.5,0.8-0.9,0.1C2510.1,1040.6,2496.9,1041,2483.7,1041.4
		c-0.1,0.1-0.2,0.1-0.4,0.1C2483.4,1041.5,2483.6,1041.4,2483.7,1041.4z M2545.5,1086.2c-12.7-4.2-25.5-8.1-38.2-12.3
		c-17.4-5.7-34.7-11.6-52-17.4c-0.7-0.2-2.5-0.3-1.8-1.5c0.9-1.7,0.5-4.1,3-5.3c1.7-0.8,3.2-0.7,4.8-0.7c3.4,0.1,6.9,0,9.8-1.5
		c6.6-3.6,13.5-3.5,20.6-3.6c11.2-0.1,22.5-0.7,33.7-1.1c1.9-0.1,3.8-0.4,5.4,1.6c12.3,15.9,24.7,31.8,37,47.6
		C2559.9,1091.5,2552.8,1088.6,2545.5,1086.2z M2612,1111c0.4,0.1,0.7,0.4,1.1,0.6c-0.4,0.3-0.7,0.6-0.8,0.5c-0.4-0.2-0.7-0.5-1-0.7
		C2611.4,1111.3,2611.7,1111,2612,1111z M2611.4,1115.7c2.9,3.7,2.1,9.5-1.3,12.1c-3.4,2.6-9.9,1.5-12.9-2.3
		c-14.7-18.7-29.3-37.5-43.9-56.3c-5.9-7.6-11.9-15.2-18.2-23.3c6.2,0.2,12.1,0,17.3-3.3c1.9-1.2,2.4,0.5,3.1,1.4
		C2574.2,1067.9,2592.8,1091.8,2611.4,1115.7z M3136,854c7.9,0,13.9,6.3,14,14.3c0.1,8.3-7.2,14.5-15.4,14.7
		c-8.6,0.1-15.1-6.7-15.6-14.9C3118.4,859.9,3126,854,3136,854z M2871.5,804.7c-17-6.3-34-12.4-51-18.7c-9.8-3.6-19.5-7.4-29.3-11.1
		c-12.3-4.6-24.7-9.1-36.9-13.6c77.9-70.7,118-161,138.3-262.2c20.6,6,40.6,14.4,61.2,20.9c17.3,5.5,34.3,11.8,51.5,17.8
		c15.9,5.5,31.7,10.9,47.6,16.4c20.7,7.2,41.4,14.5,62.1,21.7c2.3,0.8,2.2,2.2,2.2,3.8c-0.2,7.6,0,15.2-1.1,22.8
		c-1,6.6-1.3,13.3-2.1,20c-1.8,14.9-4.5,29.6-8.5,44c-4.9,17.8-11,35.1-18.4,52.2c-22.1,51.1-55.9,92.4-100.1,125.7
		c-1.7,1.3-3.2,2-5.4,1.2c-12-4.6-24-9.1-36.1-13.5c-12.4-4.5-24.8-8.8-37.2-13.4C2896,814.2,2883.8,809.3,2871.5,804.7z
		 M2893.4,1093.3c-9.1,0-11.8-2.7-11.8-12c0-10.7,0-21.3,0-32c0-7.9,3.4-11.2,11.3-11.2c23.5,0,47,0,70.5,0c115.8,0,231.6,0,347.4,0
		c0.8,0,1.7,0.1,2.5,0c2.4-0.2,2.6,1.1,2.7,3.1c0,2.1-0.5,2.9-2.7,2.9c-7.2-0.1-14.3,0-21.5,0c-74.6,0-149.3,0-223.9,0
		c-3,0-6-0.1-8.9,0.8c-6.6,2-10,6.6-10.1,13.3c0,5.5,0.4,11-0.1,16.5c-0.8,7.2,7.2,14.7,14,14.3c4.5-0.3,9,0,13.5,0
		c77,0,153.9,0,230.9,0c1.7,0,3.3,0,5,0.1c1.6,0.1,4-0.9,3.9,2.2c-0.1,3.2-2.6,1.8-4.1,2c-1.8,0.3-3.7,0.1-5.5,0.1
		c-68.3,0-136.6,0-204.9,0c0,0,0,0,0,0C3032,1093.3,2962.7,1093.3,2893.4,1093.3z M3315.9,1082.3c0.1,3.4-1,4.1-4.2,4.1
		c-32.2-0.1-64.3,0-96.5,0c-49.7,0-99.3,0-149,0c-3.8,0-7.5,0.2-10.8-2.5c-2.9-2.4-4.3-5.4-4.2-9.1c0-5.2,0-10.3,0-15.5
		c0.1-7.8,4.7-12.3,12.9-12.3c16.7,0,33.3,0,50,0c24.7,0,49.3,0,74,0c41,0,82,0,123-0.1c3.5,0,4.9,0.6,4.8,4.5
		C3315.6,1061.6,3315.6,1072,3315.9,1082.3z M2890.4,1151.2c4.6,0,9.2,0,13.8,0c0,0.1,0,0.2,0,0.3c-4.6,0-9.2,0-13.7,0
		C2890.4,1151.4,2890.4,1151.3,2890.4,1151.2z M3298.8,1166.6c2,10.8,1.3,21.8,0.8,32.7c-0.4,8.3-7.9,14.9-16.3,15.5
		c-2.8,0.2-5.7,0.1-8.5,0.1c-170.3,0-340.6,0-510.8-0.1c-1.7,0-4.3,1.5-5.1-1.3c-0.8-2.9-0.3-4.7,3.8-4.7c31.5,0.2,63,0.1,94.5,0.1
		c71.5,0,143,0,214.4,0c4,0,7.8-0.6,11.4-2.2c5.6-2.4,8.6-6.4,8.3-12.8c-0.3-6.5-0.1-13-0.1-19.5c-0.1-6.3-3.3-10.8-9.2-12.6
		c-4.4-1.3-8.9-2-13.5-2c-101.5,0.1-202.9,0.1-304.4,0c-1.7,0-4.3,1.5-5.1-1.3c-1-3.4,0.6-4.4,4.2-4.4c32.3,0.1,64.6,0,97,0
		c137.5,0.1,274.9,0.1,412.4,0.3c2,0,4.3-0.9,6.1,1c0,0,0,0,0,0c0,0,0,0,0,0c0,0,0,0,0,0c0,0,0,0,0,0c1.2,0.5,2.5,0.6,3.8,0.1
		C3288.3,1153.5,3297.5,1159.5,3298.8,1166.6z M2758.6,1167.3c-0.1-4,1.3-4.5,4.8-4.5c51.3,0.1,102.6,0.1,153.9,0.1
		c51.3,0,102.6,0,153.9-0.1c3.2,0,6.2,0.7,9.2,1.4c5.7,1.4,8.4,5.4,8.4,11.4c0,5.7,0,11.3,0,17c0,8.2-3.3,12.1-11.5,13.4
		c-2.8,0.4-5.6,0.6-8.5,0.6c-101.8,0-203.5,0-305.3,0.1c-4,0-5-1.1-4.9-5C2758.9,1190.2,2758.9,1178.7,2758.6,1167.3z M3280,1154.2
		C3280,1154.2,3280.1,1154.2,3280,1154.2C3280.1,1154.2,3280,1154.2,3280,1154.2z M3329.5,1096.7c9.6,0,12.3,2.8,12.3,12.4
		c0,10.3,0,20.7,0,31c0,8.7-3,11.7-11.7,11.7c-83.3,0-166.6,0-249.9,0c-56.2,0-112.3-0.1-168.5,0.2c-5.2,0-4.8-2.2-5-5.8
		c-0.3-4.3,1.4-4.7,5.2-4.7c81.6,0.1,163.3,0.1,244.9,0.1c3.1,0,6.1-0.2,9.2-1.5c6-2.5,8.6-6,8.1-12.3c-0.2-2.3-0.3-4.6-0.3-6.9
		c0-8.6-4.5-13.4-13.2-13.9c-1.2-0.1-2.3,0-3.5,0c-81.8,0-163.6-0.1-245.4,0.1c-4.6,0-5-1.6-5-5.4c0-3.7,0.7-5,4.9-5
		c70,0.2,140,0.1,209.9,0.1c0,0,0,0,0,0C3190.8,1096.7,3260.2,1096.7,3329.5,1096.7z M2907.5,1113c-0.1-2.8,0.8-3.7,3.6-3.7
		c10,0.1,20,0,30,0c71.1,0,142.3,0,213.4,0c2.5,0,5,0,7.5,0.4c6.5,1,9.8,4.9,9.8,11.6c0,15-2.6,17.6-17.6,17.6
		c-39.8,0-79.6,0-119.4,0c-40.8,0-81.6,0-122.4,0.1c-3.5,0-5-0.5-4.8-4.5C2907.8,1127.4,2907.7,1120.2,2907.5,1113z M3374.7,988.4
		c-0.3,11.7-0.2,23.3-0.1,35c0,2.9-0.6,3.9-3.9,3.9c-41.6-0.1-83.3-0.1-124.9-0.1c-40.1,0-80.3,0-120.4,0c-3.3,0-6.8,0.6-10-1.7
		c-3.7-2.7-5.6-5.9-5.5-10.5c0.2-6.5,0-13,0.1-19.5c0.1-6.5,3.9-10.8,10.4-11.7c2-0.3,4-0.2,6-0.2c81.1,0,162.2,0,243.3-0.1
		C3373.6,983.6,3374.8,984.3,3374.7,988.4z M3369.8,975.1c1.6,0,4.2-1.6,4.8,1.8c0.7,3.8-1.3,4.2-4.5,4.2
		c-36.2-0.1-72.3-0.1-108.5-0.1c-45.7,0-91.3,0-137,0c-12.2,0-17.2,5-17.2,17.2c0,5.7,0,11.3,0,17c0.1,8.6,5.5,14.2,14.2,14.6
		c2.5,0.1,5,0.1,7.5,0.1c80.3,0,160.6,0,240.9,0c2.1,0,4.8-1.1,4.6,3c-0.1,4.1-2.9,2.9-4.9,2.9c-136.5,0-272.9-0.1-409.4,0
		c-12.6,0-20.4-7.7-20.2-20.2c0.1-6.7,0.3-13.3,0-20c-0.6-14.5,10.5-20.7,20.7-20.6c68,0.2,136,0.1,204,0.1c0,0,0,0,0,0
		C3233.1,975,3301.5,975,3369.8,975.1z"/>
</g>
<path class="st4" d="M2483.7,1041.4C2483.7,1041.4,2483.6,1041.5,2483.7,1041.4c-0.1,0.1-0.2,0.1-0.4,0.1
	C2483.4,1041.5,2483.6,1041.4,2483.7,1041.4z"/>
<path class="st7" d="M2678.8,364.2c-2-3.2-5.2-4.6-9-4.2c-1.9,0.2-3,0-3-2.5c-0.2-10.5-2.5-20.6-5.4-30.7
	c-6.1-21.2-17-39.6-31.4-55.9c-18.7-21.3-41.8-35.8-69.2-43.4c-17.6-4.8-35.4-7.1-53.6-4.4c-16.2,2.4-27.9,11.2-34.8,26.2
	c-2.7,5.9-3.6,12.3-5.4,18.4c-0.5,1.8-0.6,2.7-2.7,2.2c-14.9-3.6-29.5-1.3-43.7,3.3c-11.5,3.7-22,9.6-29.7,19.2
	c-13.9,17.3-18.7,36.6-12.3,58.2c0.8,2.7,0.8,4.6-2,6.6c-6.6,4.7-9,11.9-9.7,19.6c-0.7,7.3,2,13.9,5.5,20.2c1,1.9,2,3.5,1,6
	c-2.8,6.5-3.1,13.4-2.4,20.3c1.5,14.8,7.4,27.1,20.8,34.7c2.8,1.6,2.1,3.2,1.3,5.3c-10.1,25.1-27.4,42.9-52.8,52.5
	c-10.5,4-21.6,4.7-32.6,6.5c0.2,1.2,0.3,2.5,2.1,2.5c5.8-1,11.6-1.8,17.3-2.9c30.9-6.1,52.9-23.7,66.1-52.2c1.1-2.3,2.2-4.5,3-6.9
	c0.7-2.2,2.3-1.8,4-2c2.3-0.2,1.5,1.5,1.8,2.7c1.8,8.9,1.8,18.1,4,27c5.5,22.4,13.1,43.6,33.1,57.6c11.7,8.2,24.5,10.5,38.7,7.4
	c21.7-4.7,38.4-17.4,54.1-31.9c0.9-0.8,1.7-1.6,2.6-2.3c0.2-0.2,0.6-0.2,1.7-0.5c-0.8,10.9-4.6,21.4-2.8,32.2c0,0,0.3-0.1,0.3-0.1
	l0.2,0.3c2.6-3.2,1.6-7.2,1.9-10.7c2.6-28.8,14.3-53.5,32.5-75.5c23.3-28,46.2-56.4,70.5-83.6c6.8-7.6,14.3-14.5,23.5-19.5
	c6.8-3.7,14.6-1.1,16.9,5.8c1.2,3.5-1.2,5.9-2.4,8.5c-11.4,25.7-26.1,49.3-43.5,71.4c-1.6,2-5.5,5.4-3.8,6.5c3,1.7,4.3-2.9,6-5
	c16.9-21.3,31.3-44.2,42.6-69c1-2.1,2-4.1,3.1-6.4c2.6,4.8,2.8,12.5-0.5,19.8c-10.6,23.6-22.3,46.7-38.8,66.9
	c-0.7,0.9-2.9,1.6-1.5,3c1.4,1.4,2.6-0.2,3.6-1.4c9.6-12.1,18.3-24.9,25-38.9c1.6-3.4,3.5-6.7,5.5-10.4c1,3.7,0.8,6.9-0.2,10.1
	c-6.2,20.4-16.4,38.8-26.8,57.3c-6,10.7-13.7,20.4-18.4,31.9c-1.8,4.5-1.8,9.3-0.7,13.6c4.9,18.1,10.6,36,15.8,54
	c5.1,17.7,10,35.4,15,53.1c0.8,0,1.6,0.1,2.4,0.1c0.1-0.6,0.4-1.3,0.2-1.9c-2.6-9-5-18-7.9-26.9c-4.3-13.1-7.9-26.4-11.8-39.6
	c-3.8-12.8-7.1-25.7-11.1-38.5c-2-6.5-0.7-12.1,2.3-17.2c11.5-19.6,24-38.7,33.5-59.5c6.2-13.5,13-27,10.8-42.7
	c-0.1-0.9,0.2-2,0.8-2.7c3.5-4.2,4.3-9.5,6-14.4C2688.1,381.4,2684.2,372.6,2678.8,364.2z M2564.4,467.7
	c-8.8,10.5-16.4,21.9-21.1,34.8c-3,8.2-7.8,14.5-14,20.1c-11.4,10.5-23.5,20-37.9,26.2c-11.3,4.8-23.4,7.4-35.3,4.6
	c-14.4-3.4-25.1-13-32.9-25.6c-7.8-12.7-12.6-26.5-15.3-41.1c-1.5-8.5-2.8-17.1-3-25.8c0-2.2-0.8-3-2.9-2.9c-6.7,0.4-12-3-16.1-7.6
	c-9.8-11.2-15.4-23.9-11.9-39.4c2.2-9.6,7.1-17.3,14.5-23.6c6.4-5.4,16.3-5.2,21.6,3c3.9,6.1,7.2,12.3,6.5,19.9
	c-0.4,4.8-0.1,9.7-0.1,14.5c0,1.1-0.5,2.5,0.9,3.1c1.3,0.6,2.1-0.7,2.9-1.4c8.7-7.2,17.4-14.4,26-21.8c2-1.8,3.3-1.8,5.4-0.2
	c13.5,9.8,28.9,14.3,45.4,13.2c14.3-1,28.4-4.1,41.4-10.4c3.5-1.7,5.2-1.9,6.5,2.7c4.4,15.8,15,26,30.5,31.3
	c2.7,0.9,5.7,0.1,8.6,2.2C2577.4,451.8,2571,459.8,2564.4,467.7z"/>
<path class="st6" d="M1963,1080.4c0.8,10.3,3.4,20.3,4.8,30.5c1.9,13.9,4.2,27.8,6.6,41.6c2.5,14.5,5,29.1,7.8,43.6
	c-1.2,2.2-3.5,1.6-5.3,1.7c-22,0.8-43.9,1.5-65.9,2.1c-1.6,0-3.6,1.1-5-0.9c-1.7-17.9-5.1-35.5-7.6-53.3
	c-2.2-15.3-4.4-30.6-6.5-45.9c0.2-2.7,2.7-2.2,4.2-2.6c20.4-5.6,40.8-11.1,61.2-16.6C1959.1,1080.1,1961,1079.2,1963,1080.4z"/>
<path class="st7" d="M2452.8,1047c-14.4-1.9-23.8-11.6-32.9-21.6c-0.5-0.6-1.3-1.4-0.4-2.1c1.3-1.2,2.1-0.1,2.8,0.8
	c3.8,4.6,8.2,8.7,13,12.3c4.5,3.4,9.3,6.4,14.9,7.5c2,0.4,3.1,1,2.4,3.2C2452.7,1047.2,2452.8,1047,2452.8,1047z"/>
<path class="st7" d="M2417,1067.8c-1.3,0.2-2.5-0.1-3.7-0.8c-9.5-5.3-17.9-12-24.9-20.4c-0.8-0.9-2.5-2.1-1.1-3.3
	c1.5-1.3,2.2,0.7,3,1.6c6.9,8,14.9,14.6,24.2,19.7c1.4,0.8,2.5,1.5,2.4,3.3C2416.9,1068,2417,1067.8,2417,1067.8z"/>
<path class="st7" d="M3055.5,717.5c-1,2.1-2.3,1.1-3.8,0.6c-8-3.1-15.9-6.1-23.9-9.1c-18.1-6.6-36.2-13.4-54.1-20.3
	c-15.1-5.8-30.3-11.4-45.3-17.5c-13.6-5.5-27.6-10.1-41.3-15.3c-5.6-2.1-11-4.9-16.9-6.3c-0.8-0.2-2.9-1.2-2.4-2.7
	c0.7-2.3,2.1-0.3,3,0.1c13.5,4.9,27,9.9,40.5,15c10.9,4.1,21.7,8.6,32.7,12.7c14,5.1,27.9,10.6,41.9,15.8
	c19.5,7.2,38.9,14.7,58.4,22.2c3.1,1.2,6.3,2.6,9.7,3.4C3054.7,716.2,3055.4,716.6,3055.5,717.5z"/>
<path class="st7" d="M2833.1,704.7c2.8-1.1,4.7-0.8,6.6-0.1c14.4,5.3,28.7,10.7,43.2,15.9c14,5,28,9.8,42,14.7
	c14.5,5.2,29,10.6,43.5,15.8c18,6.5,36,12.9,53.9,19.3c0.9,0.3,2.8,0.4,2.2,2c-0.5,1.5-2,0.8-3,0.5c-7.9-2.8-15.6-5.8-23.5-8.4
	c-19.5-6.5-38.7-14.1-58.2-20.7c-18.9-6.4-37.4-14-56.2-20.6c-14.5-5-28.7-11.1-43.5-15.3C2837.9,707.3,2835.9,706.1,2833.1,704.7z"
	/>
<path class="st7" d="M3043.7,748.3c-1,1.7-2.9,1-3.9,0.6c-4.8-2.1-9.8-3.3-14.6-5.3c-10.3-4.2-20.9-7.7-31.4-11.5
	c-14.2-5.2-28.5-10.4-42.7-15.5c-9-3.2-18.1-6.3-27.1-9.5c-9.1-3.3-18.1-6.8-27.2-10.1c-11-4-21.9-8-33-11.8
	c-4-1.4-7.7-3.8-12.1-4.1c-1.2-0.1-1.1-1.1-1-1.9c0-1.2,1-1.2,1.8-1c1.4,0.4,2.9,0.9,4.3,1.4c17.9,6.5,35.9,13,53.8,19.6
	c17.2,6.3,34.3,12.8,51.6,19c17.8,6.4,35.7,12.7,53.6,19c8.5,3,17,6.1,25.5,9.2C3042.2,746.5,3043.6,746.5,3043.7,748.3z"/>
<path class="st7" d="M3066.8,688.6c-4.8-2.2-10.4-3.8-15.9-5.7c-11.6-4.1-23-8.5-34.5-12.8c-11.3-4.2-22.5-8.5-33.8-12.7
	c-10.8-4-21.6-7.9-32.4-11.8c-15.5-5.7-30.9-11.5-46.4-17.3c-7.7-2.9-15.5-5.7-23.3-8.3c-1.3-0.4-2.3-0.7-2-2.1
	c0.4-1.8,1.8-1.1,2.9-0.7c9.7,3.6,19.4,7.2,29.1,10.8c10.6,3.9,21.3,7.6,31.8,11.7c9.1,3.6,18.4,6.6,27.4,10.3
	c10.7,4.4,21.8,8,32.7,12c12.2,4.5,24.4,9,36.6,13.4c9.5,3.5,19,6.8,28.5,10.3c1,0.4,2.7,0.4,2.4,2.1
	C3069.7,689.2,3068.4,688.6,3066.8,688.6z"/>
<path class="st7" d="M3000.3,798.9c-62.9-22.7-125.8-45.4-189.5-68.4c3-2.4,4.9-1.2,6.8-0.5c15.9,5.9,31.7,12.3,47.8,17.6
	c15.1,4.9,29.7,10.9,44.7,15.9c18.3,6.1,36.3,13.1,54.4,19.7c12.2,4.4,24.4,8.8,36.6,13.2C3000.7,797.3,3000.5,798.1,3000.3,798.9z"
	/>
<path class="st7" d="M3047.7,626.8c-38.3-14-76.7-28-115-42.1c0.3-0.8,0.6-1.6,0.9-2.4c38.3,14,76.7,27.9,115,41.9
	C3048.3,625.1,3048,625.9,3047.7,626.8z"/>
<path class="st7" d="M2987.4,1195c18.1,0,36.3,0,54.4,0c1.3,0,3.6-0.9,3.7,1.1c0.2,2.7-2.4,1.6-3.8,1.6c-36.6,0.1-73.2,0-109.8,0
	c-1.4,0-3.7,0.5-3.6-1.4c0-1.9,2.3-1.3,3.7-1.3C2950.4,1195,2968.9,1195,2987.4,1195z"/>
<path class="st7" d="M3028.7,1175.8c-12.6,0-25.3,0-37.9,0c-1.3,0-3.7,0.8-3.6-1.3c0.1-2,2.4-1.2,3.7-1.2c25.5,0,50.9,0,76.4,0
	c1.3,0,3.7-0.7,3.6,1.3c-0.1,2-2.4,1.2-3.7,1.2C3054.4,1175.8,3041.6,1175.8,3028.7,1175.8
	C3028.7,1175.8,3028.7,1175.8,3028.7,1175.8z"/>
<path class="st7" d="M2404.8,439.3c-0.2,0.9,0.6,2.5-1.2,2.7c-1.9,0.2-1.5-1.3-1.5-2.4c-0.3-8.1-3.7-14.6-9.7-20
	c-0.7-0.6-2-1.3-1.1-2.4c1-1.2,2-0.2,3,0.5C2399.8,421.7,2404.5,431.2,2404.8,439.3z"/>
<path class="st7" d="M2106.8,452.5c-50.5-7.9-101.1-15.8-151.6-23.7c-0.5-0.1-0.9-1.3-2.1-3.3c52.2,8.4,103.1,16.5,154.1,24.7
	C2107,450.9,2106.9,451.7,2106.8,452.5z"/>
<path class="st7" d="M1939.1,386.3c6.6-0.5,151.2,24.5,153.5,27.9c-51.3-8.7-102.6-17.5-153.8-26.2
	C1938.9,387.5,1939,386.9,1939.1,386.3z"/>
<path class="st7" d="M1935,352.6c7.6-0.8,14.8,1.5,22.1,2.6c11.4,1.8,22.7,4.2,34.1,6c13,2,25.8,4.5,38.7,6.9
	c12.7,2.3,25.3,4.6,38,6.9c5.3,1,10.5,2.1,15.8,3c1,0.2,2.2-0.2,2,1.3c-0.2,1.5-1.6,0.9-2.4,0.8c-7.3-1-14.6-1.9-21.8-3.3
	c-11-2-22-4.3-33.1-6c-14.8-2.2-29.4-5.6-44.1-8.3c-14.7-2.7-29.4-5.1-44.1-7.5C1938.3,354.8,1936.6,354.1,1935,352.6z"/>
<path class="st7" d="M2083.2,348.2c-5.3-1.5-10.6-2.3-15.8-3.5c-8.7-2-17.5-3.7-26.2-5.9c-11.6-2.9-23.4-5.2-35.1-8
	c-17.1-4.1-34.2-7.8-51.4-11.4c-3.7-0.8-7.3-1.8-11-2.5c-1.1-0.2-2.1-0.7-1.7-2c0.5-1.6,1.4-0.3,2.2-0.2c14.9,2.4,29.4,6.4,44.1,9.4
	c10.8,2.2,21.6,4.6,32.4,7c8.9,2,17.7,4.1,26.6,6c12.1,2.5,23.9,6.1,36.2,8c1.2,0.2,2.5,0.2,2.4,1.9
	C2085.7,348.9,2083.9,347.5,2083.2,348.2z"/>
<path class="st7" d="M1974.1,466.6c51.6,7.2,103.3,14.3,154.9,21.5c-2.4,2.5-4.9,1.8-7.3,1.5c-49.3-6.7-98.7-13.5-148-20.4
	C1973.8,468.3,1974,467.5,1974.1,466.6z"/>
<path class="st7" d="M2078,291.9c-34-5.7-67.4-14.1-102.2-21.3C1980.5,268.6,2069.8,287.2,2078,291.9z"/>
<path class="st5" d="M2895.1,1047.5c37.9,0,75.2,0,112.5,0c1.7,0,3.3,0.1,5,0c2.5-0.2,3.6,0.8,3.6,3.4c-0.1,8.7-0.1,17.3,0,26
	c0,2.9-1.2,3.6-3.9,3.6c-37.5-0.1-74.9-0.1-112.4,0c-3.6,0-4.7-1.8-4.7-4.9C2895.1,1066.3,2895.1,1057,2895.1,1047.5z"/>
<path class="st5" d="M3111.3,1168.3c53.1,0,105.5,0,157.8,0c2.3,0,4.7,0.1,7,0c3.5-0.2,5.1,0.8,5,3.4c-0.1,8.7-0.2,17.3,0,26
	c0.1,2.9-1.7,3.6-5.5,3.6c-52.6-0.1-105.1-0.1-157.7,0c-5.1,0-6.6-1.8-6.6-4.9C3111.3,1187.1,3111.3,1177.8,3111.3,1168.3z"/>
<image style="overflow:visible;" width="15" height="12" xlink:href="30827032.jpg"  transform="matrix(16.0312 0 0 16.0312 4142.4214 951.2323)">
</image>
</svg>
