<svg width="19" height="20" viewBox="0 0 19 20" fill="none" xmlns="http://www.w3.org/2000/svg">
<path d="M5.23688 15C4.89671 15 4.60553 14.882 4.36332 14.646C4.12111 14.41 4 14.1263 4 13.7948V6.20517C4 5.87372 4.12111 5.59 4.36332 5.354C4.60553 5.118 4.89671 5 5.23688 5H12.4934C12.6892 5 12.8748 5.04211 13.0501 5.12633C13.2252 5.21056 13.3695 5.327 13.4828 5.47567L17 10L13.4828 14.5243C13.3695 14.673 13.2252 14.7894 13.0501 14.8737C12.8748 14.9579 12.6892 15 12.4934 15H5.23688ZM5.23688 14H12.4934C12.5286 14 12.5604 13.9936 12.5889 13.9808C12.6174 13.9679 12.6426 13.9487 12.6645 13.923L15.7171 10L12.6645 6.077C12.6426 6.05133 12.6174 6.03206 12.5889 6.01917C12.5604 6.00639 12.5286 6 12.4934 6H5.23688C5.17542 6 5.12496 6.01922 5.0855 6.05767C5.04604 6.09611 5.02632 6.14528 5.02632 6.20517V13.7948C5.02632 13.8547 5.04604 13.9039 5.0855 13.9423C5.12496 13.9808 5.17542 14 5.23688 14Z" fill="#AEAEAE"/>
</svg>
