<svg width="19" height="19" viewBox="0 0 19 19" fill="none" xmlns="http://www.w3.org/2000/svg">
<path fill-rule="evenodd" clip-rule="evenodd" d="M10.8804 11.7239C10.0527 12.3706 9.01087 12.7559 7.87907 12.7559C5.18443 12.7559 3 10.5715 3 7.87687C3 5.18224 5.18443 2.9978 7.87907 2.9978C10.5737 2.9978 12.7581 5.18224 12.7581 7.87687C12.7581 9.00867 12.3728 10.0505 11.7261 10.8782L11.7574 10.8468L16.1537 15.2431L15.2747 16.1221L10.8784 11.7258L10.8804 11.7239ZM11.3641 7.87687C11.3641 9.80161 9.80381 11.3619 7.87907 11.3619C5.95433 11.3619 4.39402 9.80161 4.39402 7.87687C4.39402 5.95213 5.95433 4.39182 7.87907 4.39182C9.80381 4.39182 11.3641 5.95213 11.3641 7.87687Z" fill="#5F5F5F"/>
</svg>
