<svg width="19" height="19" viewBox="0 0 19 19" fill="none" xmlns="http://www.w3.org/2000/svg">
<mask id="mask0_415_53" style="mask-type:alpha" maskUnits="userSpaceOnUse" x="1" y="1" width="17" height="16">
<rect x="1.5" y="1" width="16" height="16" fill="#AEAEAE"/>
</mask>
<g mask="url(#mask0_415_53)">
<path d="M4.91031 13.5897V14.6667C4.61409 14.6667 4.36054 14.5613 4.14965 14.3504C3.93876 14.1395 3.83331 13.8859 3.83331 13.5897H4.91031ZM3.83331 12.1025V11.0257H4.91031V12.1025H3.83331ZM3.83331 9.53854V8.46154H4.91031V9.53854H3.83331ZM3.83331 6.97437V5.89754H4.91031V6.97437H3.83331ZM4.91031 4.41037H3.83331C3.83331 4.11415 3.93876 3.8606 4.14965 3.64971C4.36054 3.43882 4.61409 3.33337 4.91031 3.33337V4.41037ZM6.39748 14.6667V13.5897H7.47431V14.6667H6.39748ZM6.39748 4.41037V3.33337H7.47431V4.41037H6.39748ZM8.96148 14.6667V13.5897H10.0385V14.6667H8.96148ZM8.96148 4.41037V3.33337H10.0385V4.41037H8.96148ZM11.5256 14.6667V13.5897H12.6025V14.6667H11.5256ZM11.5256 4.41037V3.33337H12.6025V4.41037H11.5256ZM14.0896 13.5897H15.1666C15.1666 13.8859 15.0612 14.1395 14.8503 14.3504C14.6394 14.5613 14.3859 14.6667 14.0896 14.6667V13.5897ZM14.0896 12.1025V11.0257H15.1666V12.1025H14.0896ZM14.0896 9.53854V8.46154H15.1666V9.53854H14.0896ZM14.0896 6.97437V5.89754H15.1666V6.97437H14.0896ZM14.0896 4.41037V3.33337C14.3859 3.33337 14.6394 3.43882 14.8503 3.64971C15.0612 3.8606 15.1666 4.11415 15.1666 4.41037H14.0896Z" fill="#AEAEAE"/>
</g>
</svg>
