<svg width="19" height="19" viewBox="0 0 19 19" fill="none" xmlns="http://www.w3.org/2000/svg">
<mask id="mask0_79_247" style="mask-type:alpha" maskUnits="userSpaceOnUse" x="1" y="1" width="16" height="16">
<rect x="1.90002" y="1.90002" width="14.9765" height="14.9765" fill="#D9D9D9"/>
</mask>
<g mask="url(#mask0_79_247)">
<path d="M9.48784 15C8.66921 15 7.89595 14.8423 7.16805 14.5269C6.44005 14.2116 5.80442 13.7822 5.26116 13.2388C4.71779 12.6956 4.28842 12.0589 3.97305 11.3289C3.65768 10.5989 3.5 9.82263 3.5 9C3.5 8.16684 3.66195 7.38526 3.98584 6.65526C4.30974 5.92526 4.74963 5.29026 5.30553 4.75026C5.86132 4.21016 6.51153 3.78342 7.25616 3.47005C8.00068 3.15668 8.79479 3 9.63847 3C10.4279 3 11.1761 3.13463 11.8829 3.40389C12.5899 3.67316 13.2107 4.04584 13.7455 4.52195C14.2803 4.99805 14.7064 5.56384 15.0238 6.21932C15.3413 6.87468 15.5 7.58537 15.5 8.35137C15.5 9.44453 15.1751 10.2996 14.5253 10.9165C13.8755 11.5336 13.0425 11.8421 12.0263 11.8421H10.8822C10.7024 11.8421 10.5587 11.9008 10.451 12.0182C10.3433 12.1356 10.2895 12.2745 10.2895 12.4348C10.2895 12.63 10.3684 12.8328 10.5263 13.0434C10.6842 13.2539 10.7632 13.4956 10.7632 13.7684C10.7632 14.1854 10.6478 14.4949 10.4171 14.697C10.1862 14.899 9.87647 15 9.48784 15ZM6.02632 9.47368C6.25137 9.47368 6.43921 9.39837 6.58984 9.24774C6.74047 9.09711 6.81579 8.90926 6.81579 8.68421C6.81579 8.45916 6.74047 8.27132 6.58984 8.12068C6.43921 7.97005 6.25137 7.89474 6.02632 7.89474C5.80126 7.89474 5.61342 7.97005 5.46279 8.12068C5.31216 8.27132 5.23684 8.45916 5.23684 8.68421C5.23684 8.90926 5.31216 9.09711 5.46279 9.24774C5.61342 9.39837 5.80126 9.47368 6.02632 9.47368ZM7.92105 6.94737C8.14611 6.94737 8.33395 6.87205 8.48458 6.72142C8.63521 6.57079 8.71053 6.38295 8.71053 6.15789C8.71053 5.93284 8.63521 5.745 8.48458 5.59437C8.33395 5.44374 8.14611 5.36842 7.92105 5.36842C7.696 5.36842 7.50816 5.44374 7.35753 5.59437C7.20689 5.745 7.13158 5.93284 7.13158 6.15789C7.13158 6.38295 7.20689 6.57079 7.35753 6.72142C7.50816 6.87205 7.696 6.94737 7.92105 6.94737ZM11.0789 6.94737C11.304 6.94737 11.4918 6.87205 11.6425 6.72142C11.7931 6.57079 11.8684 6.38295 11.8684 6.15789C11.8684 5.93284 11.7931 5.745 11.6425 5.59437C11.4918 5.44374 11.304 5.36842 11.0789 5.36842C10.8539 5.36842 10.6661 5.44374 10.5154 5.59437C10.3648 5.745 10.2895 5.93284 10.2895 6.15789C10.2895 6.38295 10.3648 6.57079 10.5154 6.72142C10.6661 6.87205 10.8539 6.94737 11.0789 6.94737ZM12.9737 9.47368C13.1987 9.47368 13.3866 9.39837 13.5372 9.24774C13.6878 9.09711 13.7632 8.90926 13.7632 8.68421C13.7632 8.45916 13.6878 8.27132 13.5372 8.12068C13.3866 7.97005 13.1987 7.89474 12.9737 7.89474C12.7486 7.89474 12.5608 7.97005 12.4102 8.12068C12.2595 8.27132 12.1842 8.45916 12.1842 8.68421C12.1842 8.90926 12.2595 9.09711 12.4102 9.24774C12.5608 9.39837 12.7486 9.47368 12.9737 9.47368ZM9.48784 14.0526C9.59068 14.0526 9.67105 14.0273 9.72895 13.9767C9.78684 13.9261 9.81579 13.8566 9.81579 13.7684C9.81579 13.6211 9.73684 13.4555 9.57895 13.2717C9.42105 13.0879 9.34211 12.8001 9.34211 12.4082C9.34211 11.9579 9.49474 11.5932 9.8 11.3138C10.1053 11.0344 10.4789 10.8947 10.9211 10.8947H12.0263C12.7697 10.8947 13.3766 10.6769 13.847 10.2414C14.3174 9.80568 14.5526 9.17568 14.5526 8.35137C14.5526 7.07368 14.0627 6.02026 13.0829 5.19111C12.1033 4.36195 10.9551 3.94737 9.63847 3.94737C8.19479 3.94737 6.96868 4.43684 5.96016 5.41579C4.95163 6.39474 4.44737 7.58947 4.44737 9C4.44737 10.4 4.93947 11.5921 5.92368 12.5763C6.90789 13.5605 8.09595 14.0526 9.48784 14.0526Z" fill="#AEAEAE"/>
</g>
</svg>
