<svg width="19" height="19" viewBox="0 0 19 19" fill="none" xmlns="http://www.w3.org/2000/svg">
<mask id="mask0_403_80" style="mask-type:alpha" maskUnits="userSpaceOnUse" x="0" y="0" width="19" height="19">
<rect width="19" height="19" fill="#AEAEAE"/>
</mask>
<g mask="url(#mask0_403_80)">
<path d="M7.36862 14.8438V13.6563H16.2291V14.8438H7.36862ZM7.36862 10.0938V8.90629H16.2291V10.0938H7.36862ZM7.36862 5.34379V4.15629H16.2291V5.34379H7.36862ZM4.08775 15.567C3.72556 15.567 3.41556 15.438 3.15774 15.1801C2.89979 14.9222 2.77081 14.6122 2.77081 14.25C2.77081 13.8879 2.89979 13.5779 3.15774 13.32C3.41556 13.0621 3.72556 12.9331 4.08775 12.9331C4.44994 12.9331 4.75994 13.0621 5.01776 13.32C5.27571 13.5779 5.40469 13.8879 5.40469 14.25C5.40469 14.6122 5.27571 14.9222 5.01776 15.1801C4.75994 15.438 4.44994 15.567 4.08775 15.567ZM4.08775 10.817C3.72556 10.817 3.41556 10.688 3.15774 10.4301C2.89979 10.1722 2.77081 9.86223 2.77081 9.50004C2.77081 9.13786 2.89979 8.82785 3.15774 8.57003C3.41556 8.31208 3.72556 8.18311 4.08775 8.18311C4.44994 8.18311 4.75994 8.31208 5.01776 8.57003C5.27571 8.82785 5.40469 9.13786 5.40469 9.50004C5.40469 9.86223 5.27571 10.1722 5.01776 10.4301C4.75994 10.688 4.44994 10.817 4.08775 10.817ZM4.08775 6.06698C3.72556 6.06698 3.41556 5.938 3.15774 5.68005C2.89979 5.42223 2.77081 5.11223 2.77081 4.75004C2.77081 4.38786 2.89979 4.07785 3.15774 3.82003C3.41556 3.56208 3.72556 3.43311 4.08775 3.43311C4.44994 3.43311 4.75994 3.56208 5.01776 3.82003C5.27571 4.07785 5.40469 4.38786 5.40469 4.75004C5.40469 5.11223 5.27571 5.42223 5.01776 5.68005C4.75994 5.938 4.44994 6.06698 4.08775 6.06698Z" fill="#AEAEAE"/>
</g>
</svg>
