<svg width="19" height="19" viewBox="0 0 19 19" fill="none" xmlns="http://www.w3.org/2000/svg">
<mask id="mask0_403_81" style="mask-type:alpha" maskUnits="userSpaceOnUse" x="0" y="0" width="19" height="19">
<rect width="19" height="19" fill="#AEAEAE"/>
</mask>
<g mask="url(#mask0_403_81)">
<path d="M2.77081 17.0208V16.0769H4.74998V15.2395H3.56248V14.2957H4.74998V13.4583H2.77081V12.5144H5.02409C5.21383 12.5144 5.37289 12.5786 5.50127 12.707C5.62965 12.8354 5.69384 12.9944 5.69384 13.1842V14.1282C5.69384 14.318 5.62965 14.477 5.50127 14.6054C5.37289 14.7338 5.21383 14.798 5.02409 14.798C5.21383 14.798 5.37289 14.8622 5.50127 14.9906C5.62965 15.1189 5.69384 15.2781 5.69384 15.4679V16.3508C5.69384 16.5407 5.62965 16.6998 5.50127 16.8282C5.37289 16.9566 5.21383 17.0208 5.02409 17.0208H2.77081ZM2.77081 11.7532V9.69788C2.77081 9.50814 2.835 9.34901 2.96339 9.2205C3.09177 9.09212 3.25089 9.02793 3.44076 9.02793H4.74998V8.19074H2.77081V7.24668H5.02409C5.21383 7.24668 5.37289 7.31087 5.50127 7.43925C5.62965 7.56776 5.69384 7.72689 5.69384 7.91663V9.30204C5.69384 9.49178 5.62965 9.6509 5.50127 9.77942C5.37289 9.9078 5.21383 9.97199 5.02409 9.97199H3.71468V10.8092H5.69384V11.7532H2.77081ZM3.95831 6.48549V2.92299H2.77081V1.97913H4.90218V6.48549H3.95831ZM7.36862 14.8437V13.6562H16.2291V14.8437H7.36862ZM7.36862 10.0937V8.90621H16.2291V10.0937H7.36862ZM7.36862 5.34371V4.15621H16.2291V5.34371H7.36862Z" fill="#AEAEAE"/>
</g>
</svg>
