<?xml version="1.0" encoding="utf-8"?>
<!-- Generator: Adobe Illustrator 23.0.5, SVG Export Plug-In . SVG Version: 6.00 Build 0)  -->
<svg version="1.1" id="Food" xmlns="http://www.w3.org/2000/svg" xmlns:xlink="http://www.w3.org/1999/xlink" x="0px" y="0px"
	 viewBox="0 0 850.4 850.4" style="enable-background:new 0 0 850.4 850.4;" xml:space="preserve">
<style type="text/css">
	.st0{fill:#202125;}
	.st1{fill:#F2B3DB;}
	.st2{fill:#FA68F6;}
	.st3{fill:#FCA9FA;}
	.st4{fill:#F953F5;}
	.st5{fill:#FB8AF8;}
	.st6{fill:#FBEEFE;}
	.st7{fill:#D96AF4;}
	.st8{fill:#E69FF8;}
	.st9{fill:#D867F4;}
	.st10{fill:#FED6FD;}
</style>
<path class="st0" d="M2465.8,117.7c3.7,1.2,5.5,4.6,8.2,7c2.6,2.3,4.9,4.9,7.5,7.2c5.3,4.6,9.6,4.7,15.6,0.4
	c9.2,8.5,17.9,17.4,26.5,26.4c-0.8,0.3-1.6,0.4-2.3,0.8c-1.2,0.7-1.5,1.8-0.8,3c0.3,0.5,1,0.9,1.6,0.9c1.5,0,1.8-1.2,1.8-2.4
	c0-0.7,0-1.3,0-2c12.1,12,24.2,23.9,36.3,36c0.8,0.7,1.9,1.6,1,3c0,5.1-3.8,4.5-7,4.8c-5.2-0.2-5.2-0.2-2.9,4.9
	c-0.4,0.3-0.8,0.6-1.2,0.9c-0.4,0.3-0.7,0.6-1.1,0.9c-0.3,0.1-0.6,0.2-0.8,0.4c-1.5-3.7-3.1-7.3-3.2-11.3c0-1-0.3-2.1-1.6-2.2
	c-1.2-0.1-0.8,1.3-1.2,1.8c-4.1,4.9-1.5,8.3,2.6,11.3c0.7,0.5,1.2,1.1,1.2,2c-1.2,0.8-2.5,1.6-3.7,2.4c-1.4-0.2-3-0.8-4,0.9
	c-0.6,1-1.4,1.2-1.8,0.2c-1.4-2.9-3.8-1.7-6-1.9c-1.9-0.2-4.1-0.7-4.1,1.9c0,2.7,2.2,2.9,4.4,2.2c2.2-0.7,3.1,0.5,3.3,2.4
	c-2.1,1.3-4.1,2.8-6.8,1.7c-0.6-0.3-1.8-0.2-1.6,0.3c1.6,5.2-3.6,3.3-5.2,5.1c-3.5,4-4.6,2-4.6-2.1c0.2-1.7,0.6-3.6-1.8-4.1
	c-0.3-1.1-0.5-2.3-1-3.2c-0.7-1.2-1.8-2-3.3-1.7c-0.9,0.2-1.5,0.8-1.5,1.7c-0.2,2.2,1.7,1.4,2.8,1.8c1.1,0.4,2.1,0.9,3.2,1.3
	c0.1,2.8-2.8,2.7-4,4.3c-0.7,0-1.3,0-2,0c-0.3-0.6-0.9-1.2-1.3-0.5c-0.6,1,0.4,1.2,1.2,1.4c0,1,0,1.9,0,2.9
	c-1.1,0.2-2.2,0.5-2.2,1.9c0,0.3,0.6,0.8,0.9,0.8c1.3,0.1,2-0.8,2.4-1.9c1.3,0,3-0.6,3.4,1c0.5,1.7-1.2,2.5-2.5,3.1
	c-3.5,1.6-7.1,3.2-10.7,4.8c-0.8-0.1-1.6-0.2-2.4-0.3l-0.1-0.2c-0.3-0.3-0.6-0.6-0.9-0.9l-0.1,0c0.2-1.7,0.4-3.5,0.7-5.2
	c0.2-1.4-0.5-1.7-1.7-1.4c-1.3-0.2-2.2,0.5-2.8,1.5c-1.8,0.6-4.4-0.9-5.3,1.2c-1.2,2.7,2.7,2.2,3.3,4c0.3,1,0.9,1.7,1.9,2
	c0.3,0.6,1,1.4,0.8,1.7c-0.9,1.9-10.5,6.3-12.7,5.6c-1.4-0.4-3.1-1-3.5,0.5c-1.5,5.4-6.7,5.9-10.3,8.4c-2.5,1.7-4.7,1.8-6.9-1.9
	c-0.1,4.7-1.3,7.7-5.1,8.7c-2.5-0.4-1.9-2.7-2.7-4.2c-0.5-1-0.9-2.5-2.2-2.3c-1.8,0.3-1,2.1-1.2,3.3c-0.6,2.7,3.2,3.3,3,5.9
	c-3.4,3.9-7.2,0.9-11.4,0.3c2.1,3.1,2.5,5.9,0.1,8.1c-2.4,2.2-4.3,5-7.5,6.4c-0.6-1.8-1.9-3.3-1.6-5.5c0.3-2.6-1-4.2-4.2-4.1
	c-7,0.3-11.9,6-18.6,6.9c-0.8,0.1-2.2,2.9-0.9,4.3c1.5,1.6,2.9,0.3,4-1.1c0.7-0.9,0.7-2.7,3-2.3c-1.2,3.5,3.9,4.9,3.3,6.5
	c-2.2,5.7,2.2,3.1,4,3.7c-0.7,5.4-5.6,7.4-8.9,10.7c-0.6-0.5-1.1-1.2-1.8-1.6c-1.6-0.9-3.2-3.2-5-1c-1.3,1.6-4.7,3.1-1.9,6.3
	c0.7,0.8,0.5,2.5,0.8,3.8c-1.6,2.5-4.1,4.1-6.2,6.1c-0.3,0.3-0.6,0.5-0.9,0.8c-4,3.2-8,6.4-11.9,9.7c-2.3,2-5.6,3-6.8,6.2
	c-5.5-10-11.1-20-16.6-30c-0.8-1.5-2.3-2.9-1.9-5c0.8-0.1,1.6-0.1,2.4-0.2c1.5-0.3,2.8-1,3-2.7c0.1-1.4-1-2-2.2-2c-1.9,0-3,1-3.1,3
	c0,0.6-0.1,1.3-0.1,1.9c-3.5-3-4.7-7.4-6.9-11.2c-7.2-12.5-13.3-25.6-21-37.7c7.3-7.8,5.6-12.8,1.4-20.5
	c-14-25.4-27.7-50.9-41.4-76.4c-0.6-1.2-4.1-3.4,0-4.9C2347.7,169.1,2420.3,158.6,2465.8,117.7z M2500,221.6
	c1.9-0.5,4.8,1.3,5.5-1.5c0.6-2.3-2.1-2.8-3.7-3C2497,216.8,2500.6,220.1,2500,221.6c-3.6,0.5-2.2,2.9-1.7,4.8
	c0.4,1.4,1.8,1.5,2.7,0.7c1.8-1.5,0.4-2.8-0.6-4.1C2500.2,222.6,2500.2,222.1,2500,221.6z M2460.2,243.5c0.2,1.3-0.5,3.1,1.1,3.6
	c2,0.6,2.2-1.5,2.7-2.8c0.4-1,0.3-2.7,2-1.9c1.2,0.6,1.2,1.9,0.5,3.1c-0.2,0.4-0.5,0.8-0.8,1.3c-0.5,0.9-0.3,1.8,0.5,2.2
	c1.3,0.6,1.4-0.6,1.9-1.5c2.9-5.5-1.9-9-3.4-13.4c-0.5-1.4-1.8-1.1-3,0.4C2459.5,237.4,2461.3,240.7,2460.2,243.5z M2417,240.7
	c-2.7,0.2-5.1,0.3-5.1,4.2c0.1,3.6,2,5.1,5.1,5.2c3.1,0.1,5.1-2,5.2-4.8C2422.2,242.4,2420.4,240.4,2417,240.7z M2402.9,291
	c2.5-6.1-1-7.4-4.5-9c-1.5-0.7-2.7-1.1-3.3,0.4c-0.8,1.9-3.1,3.2-2.6,5.6c0.3,1.1,1.4,1.5,2.4,0.7
	C2398.1,285.8,2400.7,286.4,2402.9,291z M2497.9,217.4c-0.1-0.3-0.3-1.2-0.8-1.8c-0.4-0.6-1.5-0.6-1.6,0.1c-0.5,2.3-2.5,1.4-3.6,2.1
	c-2.3,1.6-4.5,3.8-4.7,7c-0.1,1,0.1,2.1,1.3,2.4c1.1,0.3,2.2-0.4,2.5-1.2c1-2.8,2.8-4.6,5.6-5.6
	C2497.4,220.1,2497.8,219,2497.9,217.4z M2457.8,246.1c-2.4-1.6-4.2-4.3-5.4-7.4c-0.5-1.2-1.8-2.3-3.2-1.2c-1.4,1-1.5,2.5-0.3,3.8
	c0.7,0.8,2.1,1.3,1.8,2.7c-1.3,5.2,3.7,3,5.5,4.4C2456.8,249,2457.9,248,2457.8,246.1z M2415.1,264.3c-1.1-1.7,0.9-3.6-1.3-4.4
	c-0.5-0.2-1.5,0.1-1.7,0.5c-1.4,2.7,1.2,4.5,1.7,6.8c0.4,1.6,2.1,0.8,3.3-0.1c0.9-0.7,1.9-1.3,2.9-1.7c1.5-0.7,2.1-1.7,1.1-3.1
	c-1-1.4-2.3-2.1-3.8-1C2416.4,261.9,2415.9,263.1,2415.1,264.3z M2518.7,216.7c1.1-0.7,2.1-1.1,2.6-1.8c0.5-0.7-0.1-1.9-0.8-2
	c-3-0.7-3.8-1.7-1.9-4.7c0.7-1.2-1.6-1.7-2.8-0.9c-1.4,1-3.2,2.3-2.6,4.4C2514,214.3,2516.9,214.8,2518.7,216.7z M2383,315.2
	c0-1.2,0.1-1.9,0-2.5c-0.6-2.2-1.2-5.2-4.1-4.5c-2.9,0.7-0.6,2.8-0.1,4.4c0.2,0.6,0,1.3-0.2,1.9c-0.4,2.1,0.2,3.9,2.4,3.9
	C2383.5,318.5,2382.9,316.2,2383,315.2z M2483.3,219c0.2,0,0.4-0.1,0.4-0.1c0.7-2.1,3.3-3.4,2.1-6.4c-1.5-3.8-6-2.5-6.6-2.1
	c-2.8,2,1.5,2,1.7,3.6c0.1,1.1,0.6,2.2,0.9,3.3C2482.1,218,2482.3,218.9,2483.3,219z M2482.6,230.7c-1.4-1.5-2.8-1.3-3.9-0.6
	c-1.4,0.8-3.5,1.2-3.3,3.3c0.2,2.2,2,3.4,3.9,4.1c1.2,0.4,3-0.5,1.9-1.5C2478,233.1,2480.4,231.9,2482.6,230.7z M2397,266.9
	c-0.1-1.5,0.1-3.7-1.8-3.5c-3.3,0.3-1.6,3.8-2.7,5.6c-0.5,0.9,0.1,2.2,1.3,2.1C2396.3,270.9,2396.9,268.9,2397,266.9z M2443.6,232.2
	c-0.6-2.1-1.9-3.7-4.2-4.1c-1.1-0.2-2.1,0.7-1.7,1.7c0.7,1.7,1.3,3.9,3.5,4.3C2442.2,234.4,2443.3,233.7,2443.6,232.2z
	 M2534.2,195.4c0.4,1.3,1.2,2.7,2.8,2.9c2,0.3,2.5-1.4,2.7-2.9c0.2-1.9-1-2.8-2.7-2.7C2535.5,192.8,2534.5,193.6,2534.2,195.4z
	 M2377.1,301c-1.4,0-2.5,0.4-2.4,1.5c0.2,2.2,1.9,2.9,3.8,3c1.2,0.1,3.2,0.4,3.1-1.3C2381.4,301.7,2377.8,303,2377.1,301z
	 M2532,179.1c-0.1-1.3-0.5-2.3-2-2.1c-1.5,0.2-2.8,0.9-2.8,2.7c0,1.4,1.1,1.8,2.4,1.8C2531.1,181.5,2532,180.7,2532,179.1z
	 M2390.8,309c1.3-0.1,3.1,0.8,2.9-1c-0.2-1.7-2-2.5-3.6-2.9c-1.5-0.4-2,0.8-2.1,2.1C2388,309.4,2389.5,309.2,2390.8,309z
	 M2373.5,255.5c1.2-0.2,2.2-0.7,2.1-2.1c-0.2-1.4-1.2-2.3-2.6-2.5c-1.3-0.2-2.4,0.4-2.4,1.8C2370.6,254.3,2371.9,255.1,2373.5,255.5
	z M2528.6,208.5c-0.3-1.1-1.2-1.7-2.5-1.7c-1.5,0-2.7,0.6-2.7,2.2c0,1.3,1.1,1.6,2.1,1.5C2526.9,210.5,2528.2,210.4,2528.6,208.5z
	 M2391.5,301.4c1.6-0.1,2.2-1.2,2.3-2.6c0.1-1.2-0.1-2.5-1.5-2.6c-1.6-0.2-2.1,1.2-2.3,2.6C2389.9,299.9,2390,301,2391.5,301.4z
	 M2491.9,206.6c-0.3-1.7-1.5-1.9-2.9-1.9c-1.1,0.1-2,0.7-1.7,1.9c0.3,1.4,1.2,2.5,2.7,2.4C2491.4,209,2491.9,207.9,2491.9,206.6z
	 M2494.5,188c-0.4-1.2-0.9-2.2-2.3-2.2c-1.5-0.1-2.1,0.9-2.1,2.2c0,1.3,0.4,2.4,2,2C2493.1,189.6,2494.5,189.7,2494.5,188z
	 M2458.2,210.4c2,1.9,3.2,3.6,5.5,2.9c0.7-0.2,1-0.9,0.6-1.6C2463,209.6,2461.1,209.4,2458.2,210.4z M2523.7,188.7
	c-0.7-1.4-2.2-1.4-3.6-1.7c-0.9-0.2-1.9,0.2-1.8,1.1c0.2,1.8,1.8,2.1,3.2,2.4C2522.7,190.7,2523.6,190.3,2523.7,188.7z
	 M2496.6,165.7c0.2-0.9-0.3-1.6-1.2-1.7c-1.4-0.2-2.6,0.2-3,1.7c-0.3,1.2,0.5,1.8,1.6,1.8C2495.3,167.5,2496.2,166.9,2496.6,165.7z
	 M2552.9,197.6c-0.2-1.4-1.1-1.9-2.4-1.7c-1,0.1-1.9,0.6-1.8,1.8c0.1,1.4,1.2,1.8,2.4,1.8C2552.2,199.4,2552.9,198.8,2552.9,197.6z
	 M2493.4,200.2c-0.4-1.2-1.2-2.1-2.5-2c-1.1,0.1-2,0.8-2.1,1.8c-0.3,1.9,1.4,1.4,2.4,1.5C2492.1,201.6,2493.2,201.6,2493.4,200.2z
	 M2454.9,215.8c-1.4,0.3-2,1.2-1.7,2.5c0.2,1,0.8,1.9,2,1.8c1.4-0.2,1.9-1.3,1.8-2.6C2456.8,216.3,2456.1,215.8,2454.9,215.8z
	 M2457.7,231.6c0.2-1.2-0.5-1.8-1.7-1.9c-1.3-0.1-2.3,0.5-2.6,1.8c-0.2,1.2,0.5,1.9,1.7,1.9C2456.4,233.6,2457.3,232.9,2457.7,231.6
	z M2470.7,231.5c0-1.4-0.9-1.8-2-1.8c-1.3,0-2.4,0.3-2.3,1.9c0.1,1.1,0.9,1.8,1.9,1.9C2469.8,233.5,2470.5,232.7,2470.7,231.5z
	 M2441.1,223.5c1.2-0.1,2.3-0.4,2.3-1.9c0-1.2-0.9-1.7-1.9-1.7c-1.1,0-1.9,0.6-2.1,1.7C2439.2,222.8,2439.9,223.4,2441.1,223.5z
	 M2363.7,268.7c-1.2,0.2-2.2,0.7-2.1,2.2c0.1,1.1,1,1.6,2.1,1.5c1.3-0.1,2.2-0.9,2.1-2.2C2365.8,269,2364.8,268.7,2363.7,268.7z
	 M2429.9,245.5c-0.1-1.2-0.8-1.7-2-1.7c-1.2,0.1-1.8,0.8-1.8,1.9c0,1.2,0.8,1.7,2,1.7C2429.3,247.4,2429.9,246.7,2429.9,245.5z"/>
<g>
	<g id="background">
		<rect y="0" class="st1" width="850.5" height="850.4"/>
	</g>
	<g>
		<path class="st2" d="M810.3,782.2c12.8,12.8,25.5,25.7,38.3,38.5c5,5,9.9,10,15,14.9c0.9,0.9,1.5,2.7,3.4,1.9c0,2.4,0,4.9,0,7.3
			c-8.9-8.8-17.8-17.5-26.7-26.4c-10.1-10-20.1-20.1-30.2-30.1c-1-1-1.9-2.3-3.6-2.2c0.1-0.2,0-0.4-0.1-0.5c-1.8-2.8-4-5.3-6.6-7.3
			l0,0c-2.8-3.8-6.2-6.9-9.8-9.9c-0.3-0.7-0.7-1.3-1.5-1.4l-0.1-0.1c-0.3-0.9-0.8-1.6-1.8-1.8c-1-1.3-1.9-2.6-3.5-3.1
			c-0.2-1.5-1.5-2.2-2.4-3.1c-12.1-12.2-24.3-24.4-36.5-36.5c-1.3-1.3-2.3-3.1-4.4-3.7c-0.2-1.6-1.6-2.3-2.6-3.3
			c-7.5-7.6-15-15.2-22.6-22.6c-6.1-5.9-11.6-12.3-18.2-17.7c-0.2-0.4-0.4-0.9-0.7-1.2c-12.3-12.3-24.6-24.6-37-36.9
			c-0.6-0.6-1.1-1.7-2.3-1.4c0.1-0.8-0.4-1.3-0.9-1.8c-4.4-4.3-8.8-8.6-13.2-12.8c-4.3-4.4-8.6-8.9-13-13.2
			c-0.7-0.7-1.4-1.8-2.7-1.5c0.6-1-0.2-1.6-0.7-2.2c-8.8-8.8-17.7-17.5-26.5-26.3l-0.2-0.2c-6.3-6.6-12.7-13.1-19.4-19.3
			c0.7-1.8,2.4-1.6,3.8-2c10.2,10.2,20.5,20.3,30.7,30.5c1.7,1.7,3.2,3.7,5.3,4.9c0.6,1.4,1.7,2.3,3,3c3.1,3.7,6.5,7,10.2,10
			c4.3,4.5,8.3,9.3,13.5,13c0,0.9,0.5,1.5,1.4,1.6c4.3,5.4,9.2,10.2,14.6,14.5c0.2,1.2,1.1,1.9,1.8,2.6
			c10.8,10.8,21.5,21.6,32.4,32.3c2,1.9,3.5,4.3,6.1,5.5c0.3,0.4,0.6,0.9,0.9,1.3c0.3,0.3,0.6,0.6,1,1c10.6,10.7,21.1,21.3,31.7,32
			c2.7,2.7,5.5,5.4,8.3,8.1c0.8,1,1.4,2.3,3,2.1l0.1,0.1c3.1,5.1,7.5,8.9,12.2,12.4l0,0c0,0.8,0.4,1.2,1.1,1.5
			c0.2,0.2,0.4,0.4,0.5,0.6c3.1,3.5,6,7.1,10,9.6l0,0c0,0.8,0.4,1.2,1.1,1.5c0.2,0.2,0.4,0.4,0.5,0.5c4.3,4.7,8.5,9.5,13.7,13.3
			c0,0,0.1,0.1,0.1,0.1c0.3,1.4,1.2,2.2,2.4,2.7c0,0,0-0.1,0-0.1c0,0.6,0.3,0.9,0.8,1.1c0.3,0.3,0.6,0.7,0.9,1
			c0.1,0.7,0.6,1.1,1.3,1.2c0.3,1,1.1,1.5,1.9,1.9c0.5,1.1,1.2,2.1,2.4,2.4c0.3,1,1,1.5,1.9,1.9c0.5,0.9,1,1.7,2.1,1.9
			c0,0-0.1-0.2-0.1-0.2c0,0.8,0.4,1.2,1,1.5c0.4,0.4,0.8,0.9,1.2,1.3c1.4,1.7,2.9,3.3,4.8,4.5C808.3,780.6,809.3,781.4,810.3,782.2z
			"/>
		<path class="st2" d="M541.1,800.5c-1.2-4.9-4.1-8.9-6.7-13c-4.1-8.5-8.4-16.9-13.5-24.9c-3.8-8.1-8.1-15.9-12.7-23.5
			c-3.8-7.7-7.9-15.3-12.2-22.7c-0.2-0.4-0.4-0.8-0.6-1.3c0-0.2-0.1-0.4-0.3-0.6c0.1-0.8-0.4-1.4-1-1.8c-0.2-0.3-0.4-0.7-0.5-1
			c0-0.7-0.3-1.1-0.9-1.3c-0.1-0.3-0.2-0.6-0.3-1c0.1-0.6-0.2-1.1-0.8-1.4c-0.1-0.3-0.3-0.7-0.4-1c-0.5-1.6-1-3.1-2.4-4.2
			c-0.2-0.6-0.4-1.1-0.6-1.7c-0.2-0.2-0.5-0.3-0.7-0.5c-0.3-0.9-0.2-2.1-1.8-1.6l0.1,0c0.6-3.1-1.7-5.2-2.9-7.5
			c-8.1-15.3-16.6-30.4-24.7-45.6c-1.4-2.6-2.7-4.6-6-3.9c1.9-2.7,4.8-1.3,7.2-1.9c5.7,8.9,10.1,18.5,15.3,27.6c1.6,2.8,2.5,6,5,8.2
			l0,0c-0.3,1.5,0.8,2.5,1.4,3.7c4,7.3,8.1,14.6,12.1,21.9c2.2,3.9,3.7,8.2,6.5,11.7c3.3,7.2,7,14.3,11.4,21
			c3.8,7.2,7.5,14.4,11.4,21.5c0.3,0.5,0.9,0.7,1.3,1.1c0.5,3.6,2.8,6.3,4.4,9.3c3.1,5.7,5.6,11.7,9.7,16.8
			c1.5,4.9,3.9,9.3,7.3,13.2c2.8,6.8,6.4,13.3,10.3,19.5c2.2,6,5.8,11.4,8.8,17.1c5.1,9.3,9.8,18.7,15.4,27.7c2.4,5,5,9.8,8,14.4
			l0,0c0,0.5,0.1,0.9,0.1,1.4c-1.7,0-3.4,0-5.1,0c-1.3-3.1-2.6-6.3-5-8.9c-1.2-3.2-3-6.1-4.7-9c-0.5-1.7-1.2-3.3-2.5-4.5
			c-6-11.6-12-23.1-18.8-34.2C548.5,813,545.3,806.5,541.1,800.5z"/>
		<path class="st2" d="M867,491.8c-7.4-3.9-15.5-6.2-23.2-9.2c-32.5-12.4-65.1-24.6-97.6-36.9c-26.1-9.8-52.2-19.6-78.3-29.3
			c-0.8-0.3-1.6-0.4-2.5-0.6c2.4-5.8,1.1-11-4.1-13.5c-4-2-8.4-3.3-12.7-4.8c-5.1-1.7-10.2-3.4-14.6-6.5c3.1-0.2,5.6,1.6,8.3,2.6
			c6.5,2.4,12.9,4.8,19.4,7.3c3.7,1.4,6,4.1,6.1,8.2c0,1.9,0.9,2.9,2.6,3.5c20.5,7.7,41.1,15.5,61.6,23.2
			c23.4,8.8,46.7,17.6,70.1,26.4c20.2,7.6,40.4,15.1,60.6,22.7c1.4,0.5,2.7,1.8,4.4,1.2C867,487.9,867,489.9,867,491.8z"/>
		<path class="st3" d="M364.4,491.1c-4.5-13.4-6.1-27.2-5.3-41.3c1.4-23.3,8.7-44.7,22.5-63.7c16.5-22.7,38.3-37.9,65.4-45.6
			c15.8-4.5,31.9-5.4,48-3.4c11.5,1.4,22.6,4.6,33.1,9.5c2,0.9,3.9,1.9,6.1,2.2c1.1,1.6,2.8,2.3,4.4,3.2
			c9.2,4.9,17.2,11.5,24.7,18.6c4.3,4.1,7.6,8.5,6.5,15.3c-1.8,11.6-6.9,21.7-12.6,31.6c-10.3,17.8-23,33.7-36.6,49
			c-2.3,2.6-4.8,5.1-7.3,7.6c1.5-10.2-1.4-17.9-10-23.2c-10.4-6.3-20.7-12.7-31.1-19c-5.4-3.2-10-2.7-13.9,1.3c-4,4-4.3,8.4-1,13.9
			c6.3,10.5,12.7,21,18.9,31.6c4.4,7.5,12.6,11.1,21.1,9c0.6-0.2,1.4-0.6,2,0.6c-0.3,0.4-0.6,0.9-1,1.3c-11,10.1-22.1,20.1-34.2,29
			c-3.8,2.8-7.2,6.2-11.8,7.8c-19.1-2.8-37.4-8.3-54.8-16.5c-7.3-3.5-14.2-7.8-21.2-11.9C372.3,495.7,369.1,492,364.4,491.1z
			 M411.6,385.7c-0.2-2,0.2-4.4-2.2-5.7c-2.3-1.3-3.9,0.3-5.7,1.3c-2.1,1.2-3.9,2.9-5.4,4.8c-6.3,7.4-11.2,15.6-12.5,25.4
			c-0.3,2.4-0.5,5.1,2.1,6.5c2.5,1.3,4.6-0.4,6.6-1.8c3.4-2.3,5.8-5.5,8.1-8.8C407.4,401,411,394,411.6,385.7z M489.9,345.6
			c-2.6-0.3-5.2,0.4-7.5,1.8c-4.4,2.6-4.8,6.7-1.3,10.2c4.6,4.6,14.5,4.5,19.1-0.2c2.3-2.3,2.4-5.7,0.2-8.2
			C497.6,346.1,494,345.3,489.9,345.6z M468.5,346.1c-1,0.4-1.5,1.2-1.8,2.2c-1.5,4.4-3,8.7-4.4,13.1c-0.6,1.9-1.4,3.1-3.5,3.6
			c-4.2,1.2-8.3,2.7-12.4,4.2c-1.1,0.4-2.9,0.4-2.9,1.8c0,1.4,1.8,1.8,3,2.2c3.8,1.3,7.6,2.6,11.4,3.7c2.3,0.7,3.7,1.9,4.5,4.3
			c1.3,4.2,2.8,8.3,4.2,12.4c0.4,1.1,0.6,2.7,2.1,2.6c1.3-0.1,1.1-1.7,1.5-2.7c1.6-4.3,3.2-8.6,4.6-13.1c0.6-2.1,1.9-2.9,3.8-3.4
			c4.3-1.3,8.6-2.7,12.8-4.2c0.9-0.3,2.1-0.6,2-1.8c0-1-1.2-1.1-1.9-1.4c-4.5-1.6-8.9-3.3-13.4-4.6c-2.1-0.6-3-1.7-3.6-3.6
			c-1.4-4.4-2.8-8.8-4.3-13.2C469.8,347.4,469.8,346.2,468.5,346.1z M449.1,358.8c4,0,7.7-3,7.7-6.2c-0.1-2.7-1.7-3.9-4.3-3.9
			c-3.6,0-8,3.9-7.8,6.9C445,358.3,446.8,358.9,449.1,358.8z"/>
		<path class="st4" d="M633.9,391c4.4,3.1,9.6,4.8,14.6,6.5c4.3,1.5,8.7,2.8,12.7,4.8c5.2,2.5,6.5,7.8,4.1,13.5
			c-0.1,0.2-0.3,0.5-0.4,0.7c-3.5,1.2-6.8,3.4-10.9,1.6c-1.9-0.9-3.9-1.8-5.9-2.5c-3.3-1.2-6.2-3.5-10-2.7c-6-1.1-11.4-3.8-17.1-5.9
			c-10.5-3.9-21-7.9-31.5-11.8c-2-0.8-3.3-0.9-2.8,2c0.4,2.2,0.2,4.6,0.3,6.9c-0.8,2.7-1.6,5.3-2.4,8c-5.8,18.1-16.3,33.5-27.5,48.6
			c-7.6,10.3-15.8,20.1-24.7,29.2c-1.6,1.7-1.3,2.7,0.2,4.2c5.1,5,10.2,10.1,15.3,15.2c1.5,1.4,2.6,3.2,4.6,4c3,4.3,7,7.6,10.7,11.3
			c2.8,2.8,5.1,6.1,8.7,8.1c3,3.2,5.9,6.4,9,9.5c3.5,3.4,5.6,7,2.9,11.9c-0.3,0.6-0.1,1.4-0.2,2.1c-1.4,0.5-3.1,0.3-3.8,2
			c-4.4,3.1-7.5,3.1-11.4-0.3c-1.9-1.7-3.6-3.6-5.5-5.3c-2-1.7-3.3-4.3-6-5.1c-0.4-1.8-1.6-2.9-2.8-4.1c-6.7-6.7-13.3-13.3-20-20
			c-0.9-0.9-1.7-2.1-3.1-2.4c-3.7-5.2-8.7-9.1-13-13.7c-1.3-1.4-2.4-0.5-3.4,0.5c-6.6,6.8-14,12.7-21.1,19.1
			c-5.4,4.1-10.8,8.2-16.2,12.3c-13.9,10.2-28.5,19.3-45.1,24.3c-1.3,0.4-2.3,0.8-2.1,2.4c-3,1.1-0.5,2.7,0,3.6
			c10,18.7,20,37.3,30.2,55.9c3.1,5.6,4.3,9.3-1,15c-2.4,0.7-5.4-0.7-7.2,1.9c-4.7,0.8-6.8-2.4-8.7-5.8
			c-6.2-11.4-12.4-22.8-18.6-34.2c-5.2-9.5-10.2-19-15.5-28.4c-2.3-4.1-2.6-7.8,0.8-11.3c1.1-1.1,1.2-2.3,0.4-3.6
			c-0.7-1.1-1.6-2.2-1.5-3.6c1,0,1.8,0.7,2.7,0.8c3.5,0.7,5.7,4.2,9.4,4.4c5.8,0.5,11.3-1,16.6-3.1c9.6-3.8,18.6-8.9,27.2-14.5
			c6.7-4.4,13.4-8.8,19.1-14.4c10.5-6.9,19.4-15.6,28.5-24.1c1.1-1,0.9-2,0.7-3.3c-0.6-2.8-0.3-5.6,1.7-7.9c1.3-0.6,1.8-1.9,2.6-2.9
			c2.1-1,4.2-2.1,6.6-1.5c3.2,0.7,5.2-0.9,7.2-3.2c5.4-6.4,11-12.6,16.3-19.1c11.4-14.1,21.9-28.9,29.4-45.5
			c4.2-9.4,8.9-19.1,3.3-29.8c-0.1-3,0.4-6.2-1.6-8.9c1.3-0.2,2-1.2,2.8-2.1c3.8-4.6,7.2-5.4,12.7-3.1c4,1.6,7.9,3.5,12.4,3.6
			c0,0,0.2,0.1,0.1,0.1c1.9,2.5,5,2.6,7.5,3.6c6.4,2.4,12.5,5.7,19.4,6.5L633.9,391z"/>
		<path class="st4" d="M452.2,526.4c4.6-1.6,8-5,11.8-7.8c12.1-8.8,23.2-18.9,34.2-29c0.4-0.4,0.7-0.9,1-1.3c-0.5-1.2-1.3-0.7-2-0.6
			c-8.5,2.1-16.7-1.5-21.1-9c-6.2-10.6-12.6-21.1-18.9-31.6c-3.3-5.5-3-9.9,1-13.9c4-4,8.6-4.5,13.9-1.3c10.4,6.3,20.8,12.6,31.1,19
			c8.6,5.3,11.5,13,10,23.2c2.4-2.5,4.9-5,7.3-7.6c13.6-15.3,26.4-31.2,36.6-49c5.7-9.9,10.8-20.1,12.6-31.6
			c1.1-6.7-2.2-11.2-6.5-15.3c-7.6-7.1-15.5-13.7-24.7-18.6c-1.6-0.8-3.3-1.6-4.4-3.2c5.9-1,11.4,1.3,17.2,1.6
			c2.5,0.1,5.1,0.2,7.5,0.8c9.5,2.3,15.3,10.2,14.9,20c-0.1,1.8-0.5,3.6,0,5.4c-0.4,1.9,0.8,3.3,1.5,4.8c-2.4-0.1-1.1,1.3-1,2.2
			c-0.5,2.6-1,5.2-1.7,7.8c-4.2,16.1-12.8,30-22.1,43.5c-11.8,17-25.2,32.7-39.8,47.3c-1.5-0.1-3-1.4-4.4,0.1
			c-1.3,1.5,0.8,2.3,0.9,3.5c-12.3,12.1-25.1,23.6-38.8,34.1c-3.2,2.5-6.9,4.4-9.6,7.6c-4.1,1.9-7.7,4.6-11.5,7
			c-11.5,7.1-23.2,13.8-36.8,16.1c-1.3,0.2-2.7,0.4-3.2,2c-2.5-1.2-5.2-2-8-1.8c-11.3,0.6-17.8-3.6-21.2-14.5
			c-2.4-7.7-4-15.6-6-23.5c0.3,0.2,0.7,0.3,0.9,0.6c4.9,8.6,10.4,16.7,17.2,23.8c3.8,4,6.9,9.5,13.4,9.7c4.7,0.2,9.4-0.5,13.9-2.1
			c7.9-2.7,15.5-6.3,22.6-10.7C444.5,531.8,449.1,530.3,452.2,526.4z"/>
		<path class="st5" d="M452.2,526.4c-3,3.9-7.7,5.4-11.6,7.9c-7.1,4.4-14.7,8-22.6,10.7c-4.5,1.6-9.2,2.2-13.9,2.1
			c-6.5-0.2-9.6-5.7-13.4-9.7c-6.8-7.1-12.3-15.3-17.2-23.8c-0.2-0.3-0.6-0.4-0.9-0.6c-2.3-7-6.1-13.3-7.8-20.5
			c-0.1-0.5-0.2-0.9-0.2-1.4c4.7,0.9,7.9,4.6,11.8,6.9c7,4.2,13.9,8.5,21.2,11.9C414.8,518.1,433.1,523.6,452.2,526.4z"/>
		<path class="st5" d="M407.7,552.7c0.5-1.6,1.9-1.8,3.2-2c13.6-2.3,25.2-9,36.8-16.1c3.8-2.3,7.4-5.1,11.5-7
			c8.4,0.3,16.7,0.6,25.1,0.9c-5.8,5.6-12.5,10-19.1,14.4c-8.6,5.7-17.6,10.7-27.2,14.5c-5.3,2.1-10.8,3.6-16.6,3.1
			c-3.7-0.3-5.9-3.7-9.4-4.4c-0.9-0.2-1.7-0.8-2.7-0.8c-0.2-0.2-0.3-0.4-0.3-0.7c-0.2-0.2-0.4-0.5-0.6-0.7
			C408.1,553.5,407.9,553.1,407.7,552.7z"/>
		<path class="st6" d="M269.6,410.5c9.8,0.2,13-6.2,14.6-14.2c0.3,0.2,0.6,0.4,0.9,0.5c0.8,2.3,1.9,4.5,2.5,6.9
			c0.6,2.3,1.4,3.9,4,4.5c2.8,0.7,5.4,1.8,8.5,3.3c-8.5,1.7-14.1,6.2-15,15.4c-1.1-2.5-2.6-4.2-2.6-6.8c-0.1-3.9-2.6-5.8-6.4-6.3
			C273.9,413.6,271.7,413.5,269.6,410.5z"/>
		<path class="st6" d="M384.6,724.1c-1-3.2-2.5-6-2.7-9.2c-0.1-1.4-1.1-2-2.4-2.4c-3-0.9-5.9-2-9.2-3.1c1.7-2.1,4.2-2.1,6.2-2.7
			c3.2-1,5.6-2.3,6.3-5.9c0.4-2.2,1.3-4.3,2.2-6.9c2.6,3.4,1.9,8.1,4.6,10.8c2.7,2.7,7.2,2.3,11.1,4.6c-3,0.7-5.1,2.3-7.7,2.7
			c-2.7,0.3-4.2,2-5,4.8C387.1,719.2,387.3,722.3,384.6,724.1z"/>
		<path class="st6" d="M577.7,284.7c-2,0.8-3,1.5-4,1.6c-6.4,0.6-9.3,4.7-10.5,10.4c-0.1,0.4-0.1,0.7-0.2,1.1
			c-0.2,0.7-0.2,1.6-1.2,1.5c-0.7-0.1-0.7-0.9-1-1.4c-1.2-2.1-1.7-4.4-2.4-6.6c-0.8-2.5-2-3.1-4.2-3.7c-2.4-0.6-4.8-1.6-7.6-2.6
			c2.6-2,5.4-2.6,7.8-3c3.3-0.6,3.9-2.9,4.9-5.1c0.4-1,0.2-2.2,1.1-3c1-1-0.4-3.6,1.6-3.5c1.6,0.1,0.6,2.6,1.6,3.7
			c0.2,0.3,0.5,0.6,0.5,1c0.1,5.1,3.7,6.8,7.9,7.8C573.6,283.3,575.2,283.9,577.7,284.7z"/>
		<path class="st2" d="M575.5,381.4c-0.8-1.5-1.9-2.9-1.5-4.8c1-0.2,1.5,0.6,2.3,0.9c2.5,1.1,4.9,1.8,7-0.9c1.6-2.1,4-2.9,6.5-2.4
			c6,1.3,11.7,3.4,17,6.4c-4.5-0.1-8.4-1.9-12.4-3.6c-5.5-2.3-8.9-1.5-12.7,3.1c-0.8,1-1.5,1.9-2.8,2.1
			C577.6,382.4,576.4,382.3,575.5,381.4z"/>
		<path class="st2" d="M633.8,390.9c-6.9-0.9-13.1-4.1-19.4-6.5c-2.5-1-5.6-1.1-7.5-3.6c5.7,0.7,10.7,3.6,16.1,5.5
			C626.6,387.6,630.6,388.5,633.8,390.9z"/>
		<path class="st7" d="M363.9,253.7c-2.3-0.3-3.7-1.6-3.6-3.8c0.1-2,1.6-3.2,3.7-3.2c2.3,0,3.5,1.4,3.5,3.7
			C367.4,252.7,365.8,253.5,363.9,253.7z"/>
		<path class="st7" d="M300.1,445c-2.7,0-4.2-1.1-4.2-3.2c0-2.3,1.6-3.7,3.8-3.6c2,0,3.4,1.4,3.5,3.6
			C303.1,444,301.6,444.9,300.1,445z"/>
		<path class="st8" d="M414,727.8c0.1-2.2,1.1-3.4,3.4-3.3c2.3,0.1,3.3,1.6,3.2,3.6c0,1.9-1.4,3.2-3.3,3.2
			C415.3,731.3,413.9,730.1,414,727.8z"/>
		<path class="st6" d="M298.7,463.4c2,0.8,4,1.4,4,3.8c0,2.5-1.9,4.1-3.8,4.1c-2,0-3-2-3.2-4.2C295.5,464.6,297.4,464.3,298.7,463.4
			z"/>
		<path class="st9" d="M723.7,392.2c-0.3,2.1-1.4,3.5-3.4,3.7c-2.1,0.2-3.5-0.9-3.7-3.1c-0.2-2.5,1.3-4,3.6-4.1
			C722.3,388.5,723.1,390.5,723.7,392.2z"/>
		<path class="st8" d="M302,860.7c0,1-1,2.3-3,2.4c-2.2,0.1-3.4-1.2-3.5-3.3c-0.1-2.1,1.1-3.6,3.2-3.6
			C300.7,856.3,302,857.6,302,860.7z"/>
		<path class="st7" d="M804.2,273.4c-0.1,2.4-1.1,3.8-3.3,3.8c-2.4,0-3.5-1.4-3.5-3.6c0-2.1,1.4-3.4,3.4-3.4
			C802.9,270.2,804,271.6,804.2,273.4z"/>
		<path class="st7" d="M311.1,715.9c-1.9-0.3-3.4-1.4-3.6-3.4c-0.2-2.1,1.1-3.5,3.3-3.5c2.2-0.1,3.8,0.9,3.9,3.3
			C314.7,714.6,313.1,715.4,311.1,715.9z"/>
		<path class="st7" d="M253.6,587.7c2.2,0,3.6,1,3.6,3.2c0,2.1-1.2,3.4-3.3,3.6c-2.2,0.1-3.4-1-3.5-3.2
			C250.3,589,251.4,587.8,253.6,587.7z"/>
		<path class="st8" d="M438.5,683.3c0.2-2.3,1.7-3.1,3.7-3c2,0.1,3,1.6,2.9,3.4c-0.1,2-1.3,3.4-3.6,3.2
			C439.4,686.8,438.3,685.5,438.5,683.3z"/>
		<path class="st6" d="M809.5,420.5c-2.5-0.1-4.3-1.6-4.3-3.3c0-1.9,2-3.7,4.1-3.6c1.9,0.1,3.7,1.2,3.5,3.8
			C812.6,419.4,811.3,420.4,809.5,420.5z"/>
		<path class="st6" d="M589.1,274c1.9-0.1,3.2,1.2,3.3,3.2c0.1,2.3-2,3.7-3.7,3.7c-1.5,0-3.7-1.1-3.4-3.7
			C585.4,275.1,586.5,274,589.1,274z"/>
		<path class="st6" d="M324.4,685.7c-2.2,0.1-3.2-0.9-3.2-3.2c0-2.3,1.2-3.5,3.2-3.6c2.1-0.1,3.5,1.2,3.6,3.3
			C328.1,684.3,326.9,685.8,324.4,685.7z"/>
		<path class="st4" d="M408.3,553.9c0.2,0.2,0.4,0.5,0.6,0.7C408.6,554.4,408.5,554.1,408.3,553.9z"/>
		<path class="st3" d="M552.5,513.2c-2-0.8-3.2-2.6-4.6-4c-5.1-5-10.1-10.2-15.3-15.2c-1.5-1.5-1.8-2.5-0.2-4.2
			c9-9.1,17.1-18.9,24.7-29.2c11.1-15.1,21.7-30.5,27.5-48.6c0.8-2.6,1.6-5.3,2.4-8c11,22.3,14.2,45.7,10.7,70.2
			c-0.6,4.4-1.4,8.9-3,13.1c-0.8,0.2-1.2,0.5-0.6,1.3c-0.2,0.7-0.3,1.5-0.5,2.2c-1,0-1.9,0.2-2.7,0.9c-7.1,5.5-14.8,10-22.7,14.1
			C563.2,508.7,558.2,511.8,552.5,513.2z"/>
		<path class="st5" d="M552.5,513.2c5.7-1.5,10.6-4.5,15.8-7.2c7.9-4.2,15.6-8.7,22.7-14.1c0.8-0.6,1.7-0.8,2.7-0.9
			c-3.4,13-9.6,24.5-17.3,35.4c-1.5,2.1-3,4.1-4.5,6.2c-3.6-2-5.9-5.3-8.7-8.1C559.6,520.9,555.5,517.6,552.5,513.2z"/>
		<path class="st6" d="M656.5,467.2c-2.4,0.9-3.6,1.5-4.8,1.7c-5.6,1-9.1,3.8-9.3,9.8c0,1-0.8,1.9-1.8,4.3
			c-1.7-9.1-6.1-14.6-15.2-15.8c8.7-1.7,14-6.3,14.7-15.5c0.3,0.2,0.6,0.4,0.8,0.6c1,2.6,2.3,5.2,2.8,7.9c0.5,2.9,2.4,3.5,4.6,4.2
			C650.8,465.2,653.2,466.1,656.5,467.2z"/>
		<path class="st2" d="M638.1,413c3.8-0.8,6.8,1.5,10,2.7c2,0.7,4,1.6,5.9,2.5c4.1,1.9,7.4-0.4,10.9-1.6c-1.7,3.2-4.8,4.8-7.8,3.9
			C650.6,418.4,644.1,416.4,638.1,413z"/>
		<path class="st8" d="M648,576.6c-0.1,2.2-1.4,3.2-3.5,3.3c-2.2,0.1-3.4-1.6-3.4-3.5c0-1.9,1.5-3.5,3.5-3.4
			C646.7,573.1,648,574.4,648,576.6z"/>
		<path class="st6" d="M600.3,546.6c-0.7,2.3-2.1,3.6-4.5,3.6c-2.1-0.1-2.9-1.7-2.8-3.5c0.1-2.3,1.4-3.7,3.7-3.6
			C598.9,543.1,599.9,544.7,600.3,546.6z"/>
		<path class="st5" d="M594.2,488.8c-0.6-0.8-0.2-1.2,0.6-1.3C594.9,488,594.7,488.5,594.2,488.8z"/>
		<path class="st6" d="M411.6,385.7c-0.7,8.3-4.3,15.2-8.9,21.7c-2.3,3.2-4.8,6.4-8.1,8.8c-2,1.4-4.1,3-6.6,1.8
			c-2.7-1.3-2.4-4.1-2.1-6.5c1.3-9.9,6.2-18,12.5-25.4c1.6-1.9,3.3-3.6,5.4-4.8c1.7-1,3.4-2.5,5.7-1.3
			C411.8,381.4,411.4,383.7,411.6,385.7z"/>
		<path class="st10" d="M489.9,345.6c4.1-0.3,7.7,0.5,10.4,3.6c2.2,2.5,2.1,5.9-0.2,8.2c-4.6,4.6-14.5,4.7-19.1,0.2
			c-3.6-3.6-3.1-7.6,1.3-10.2C484.8,346,487.3,345.3,489.9,345.6z"/>
		<path class="st10" d="M468.5,346.1c1.3,0.2,1.3,1.3,1.6,2.2c1.5,4.4,3,8.8,4.3,13.2c0.6,1.9,1.5,3,3.6,3.6c4.5,1.3,8.9,3,13.4,4.6
			c0.8,0.3,1.9,0.3,1.9,1.4c0.1,1.2-1.1,1.5-2,1.8c-4.2,1.5-8.5,2.9-12.8,4.2c-1.9,0.6-3.2,1.4-3.8,3.4c-1.3,4.4-2.9,8.7-4.6,13.1
			c-0.4,0.9-0.2,2.6-1.5,2.7c-1.4,0.1-1.7-1.5-2.1-2.6c-1.5-4.1-3-8.2-4.2-12.4c-0.7-2.4-2.1-3.6-4.5-4.3c-3.8-1.1-7.6-2.4-11.4-3.7
			c-1.2-0.4-3-0.8-3-2.2c0-1.4,1.8-1.4,2.9-1.8c4.1-1.5,8.2-3,12.4-4.2c2.1-0.6,2.9-1.8,3.5-3.6c1.4-4.4,2.9-8.7,4.4-13.1
			C467,347.3,467.5,346.5,468.5,346.1z M468.1,393c2.1-3.2,3.1-6.3,3.7-9.4c0.9-4.6,3.2-7.6,8-8.6c2.8-0.6,5.5-1.8,8.3-2.8
			c0.7-0.2,1.6-0.2,1.5-1.2c-0.1-0.4-0.8-0.9-1.3-1.1c-2.6-0.9-5.3-1.8-8-2.5c-3.7-0.9-6.8-2.2-7.7-6.5c-0.5-2.5-1.5-4.9-2.2-7.3
			c-0.3-1.1-0.4-2.7-1.9-2.8c-1.6,0-1.5,1.7-2,2.7c-0.4,1-0.6,2.1-0.9,3.1c-1.1,5.5-3.3,10-9.7,11c-2.3,0.3-4.4,1.3-6.6,2
			c-0.9,0.3-2.2,0.3-2.1,1.6c0,1,1.2,1,2,1.3c3.2,1.1,6.4,2.4,9.7,3.1c3,0.7,4.4,2.5,5.2,5.3C465.3,384.9,466.7,388.7,468.1,393z"/>
		<path class="st10" d="M449.1,358.8c-2.3,0.1-4.2-0.5-4.3-3.2c-0.2-3,4.2-6.9,7.8-6.9c2.5,0,4.2,1.2,4.3,3.9
			C456.9,355.9,453.2,358.8,449.1,358.8z"/>
		<path class="st5" d="M557,547.4c-33.2,29.9-86.3,37.6-126.9,18.4c-0.2-1.6,0.7-2,2.1-2.4c16.7-5,31.2-14.1,45.1-24.3
			c5.5-4,10.8-8.2,16.2-12.3c1.6,1.3,3.5,0.9,5.3,0.6c6.4-0.9,12.8-1.6,19-3.1c4.4-1.1,9.2-1,13.3-3.4c1.4,0.3,2.2,1.4,3.1,2.4
			c6.7,6.6,13.3,13.3,20,20C555.3,544.5,556.6,545.6,557,547.4z"/>
		<path class="st3" d="M511,482.3c14.6-14.7,28-30.3,39.8-47.3c9.3-13.5,18-27.4,22.1-43.5c0.7-2.6,1.1-5.2,1.7-7.8
			c1.9,2.6,3.2,5.6,5.9,7.6c5.6,10.7,0.9,20.3-3.3,29.8c-7.5,16.6-18,31.4-29.4,45.5c-5.3,6.5-10.9,12.7-16.3,19.1
			c-1.9,2.3-3.9,3.9-7.2,3.2c-2.4-0.5-4.5,0.5-6.6,1.5C515.8,487.3,512.1,485.8,511,482.3z"/>
		<path class="st3" d="M484.2,528.5c-8.4-0.3-16.7-0.6-25.1-0.9c2.6-3.3,6.3-5.2,9.6-7.6c13.7-10.5,26.5-22,38.8-34.1
			c2.8,2.2,5.3,4.8,7.6,7.4c-2,2.3-2.3,5.1-1.7,7.9c0.3,1.3,0.4,2.3-0.7,3.3C503.6,512.9,494.7,521.6,484.2,528.5z"/>
		<path class="st3" d="M531,521c-4.1,2.4-8.9,2.3-13.3,3.4c-6.2,1.5-12.6,2.2-19,3.1c-1.7,0.2-3.7,0.7-5.3-0.6
			c7.1-6.3,14.5-12.3,21.1-19.1c1-1,2.1-1.9,3.4-0.5C522.3,511.8,527.4,515.8,531,521z"/>
		<path class="st2" d="M515.1,493.3c-2.4-2.6-4.8-5.2-7.6-7.4c-0.1-1.2-2.2-2-0.9-3.5c1.3-1.5,2.9-0.2,4.4-0.1
			c1.2,3.6,4.9,5,6.7,8.1C516.9,491.4,516.4,492.7,515.1,493.3z"/>
		<path class="st6" d="M521.3,637.3c2.5-0.2,3.8,1.2,3.8,3.3c0,2.1-1.5,3.6-3.8,3.5c-2.3-0.1-3.7-1.2-3.7-3.8
			C517.5,637.5,519.3,637.4,521.3,637.3z"/>
		<path class="st6" d="M468.1,393c-1.4-4.3-2.9-8.1-4-12c-0.8-2.8-2.2-4.6-5.2-5.3c-3.3-0.8-6.5-2-9.7-3.1c-0.7-0.3-2-0.3-2-1.3
			c0-1.2,1.2-1.3,2.1-1.6c2.2-0.7,4.4-1.7,6.6-2c6.4-1,8.6-5.4,9.7-11c0.2-1.1,0.4-2.2,0.9-3.1c0.5-1,0.4-2.8,2-2.7
			c1.5,0,1.6,1.6,1.9,2.8c0.7,2.4,1.7,4.8,2.2,7.3c0.8,4.3,4,5.6,7.7,6.5c2.7,0.7,5.4,1.6,8,2.5c0.5,0.2,1.3,0.6,1.3,1.1
			c0.2,1-0.8,1-1.5,1.2c-2.8,0.9-5.5,2.2-8.3,2.8c-4.8,1-7,4-8,8.6C471.2,386.7,470.2,389.8,468.1,393z"/>
	</g>
</g>
</svg>
