<?xml version="1.0" encoding="utf-8"?>
<!-- Generator: Adobe Illustrator 23.0.5, SVG Export Plug-In . SVG Version: 6.00 Build 0)  -->
<svg version="1.1" id="Food" xmlns="http://www.w3.org/2000/svg" xmlns:xlink="http://www.w3.org/1999/xlink" x="0px" y="0px"
	 viewBox="0 0 210.4 210.4" style="enable-background:new 0 0 210.4 210.4;" xml:space="preserve">
<style type="text/css">
	.st0{fill:#6A5B35;}
	.st1{fill:#8C7B66;}
	.st2{fill:#647D88;}
	.st3{fill:#4C5B65;}
	.st4{fill:#F7D4C7;}
	.st5{fill:#FCF2E9;}
	.st6{fill:#F2B3DB;}
	.st7{fill:#FA68F6;}
	.st8{fill:#FCA9FA;}
	.st9{fill:#F953F5;}
	.st10{fill:#FB8AF8;}
	.st11{fill:#FBEEFE;}
	.st12{fill:#D96AF4;}
	.st13{fill:#E69FF8;}
	.st14{fill:#D867F4;}
	.st15{fill:#FED6FD;}
</style>
<g id="fork_pasta">
	<path class="st0" d="M65.6,171.3c0.2-0.1,1.3-1.7,2.7-3.6c-3.5-11.2-7.1-22.4-10-33.7C58.3,134,65,168,65.6,171.3z"/>
	<path class="st1" d="M64.6,128.4c0,0-6.8,2.3-7,2.5c0.1,0.5,0.7,3.1,0.7,3.1c2.9,11.3,6.6,22.5,10,33.7c2.2-3.1,4.9-7,5.2-7.2
		C72.4,157.2,65.4,131.5,64.6,128.4z"/>
	<path class="st0" d="M80.3,261.6c-0.8-12.9-1.3-23.6-1.8-33c-0.5-11-1-19.7-1.6-27.4c-2.3-25.7-6.3-25.8-10.3-38.6
		c-1.3,0.9-1.6-3.5-1.9-3.5c0.3,1.6,6.7,40.3,6.7,69.8c0,12.8,1.3,28.2,2.7,48l-1,2.5C77.6,274.3,80.4,261.4,80.3,261.6z"/>
	<path class="st2" d="M232.1-54.6c-1.8,1.2-11.1,12.5-17,18.8s-4.9,16.4-4.9,16.4c-3.5,7-22,16.1-38.1,21.3S131.9,13.4,113,44.2
		s-49.3,64.7-65,81.1c-12.9,13.4-18.2,18.5-16.5,21.7c1.9,3.5,7,0,11.9-4.9c2.2-2.2,40.1-39.7,47.2-47.9
		c13.3-15.3,26-30.7,32.1-38.2c2.1-2.6,6.6-2.1,8.8-0.2c2.2,2.1,2.5,5.5,0.6,7.9c-2,2.5-5.3,6.2-10.4,12
		c-13.5,15.4-31.6,33.8-45.7,47.6c2.3,1.6,6.3,2.2,8.6,4.7c6.7-6,13.9-12.8,21.2-20c19.2-19.2,29.8-30.8,35.5-37.3
		c2-2.3,4.7-3.1,7.1-1.2l0,0c2.5,2,3,5.6,1,8.1c-0.1,0.2-0.3,0.4-0.5,0.6c-10.9,10.8-25.1,26-40.5,40.4
		c-6.2,5.8-12.4,11.5-18.3,16.7c1.6,2.6,3.1,5.3,4.4,8.1c6.7-5.8,14.1-12.1,21.4-18.6c16.9-14.7,34.9-31.6,42.4-39.7
		c2-2.2,5.4-2.5,7.8-0.7l0,0c2.5,1.9,3,5.5,1.1,8.1c-0.1,0.1-0.2,0.2-0.3,0.3c-20.9,23.4-49.1,45.8-68.6,60.2
		c0.9,2.7,1.1,5.6,1.8,8.6c14-9.9,34-24.5,56.4-42.5c43-34.6,56.7-68,60.9-90.8S222,2.6,229.4-5.1c5.4-5.6,9.1-3.2,17.3-8.8v-41.2
		C241.4-57,235.5-57,232.1-54.6z"/>
	<path class="st2" d="M77,167.9l-0.2,0.1c-3.5,2.8-1.9,7.2,1.4,7s6.9-3,12.9-7c-0.9-2.9-1.1-6.3-2.1-8.8
		C83,163.5,78.1,167.1,77,167.9z"/>
	<path class="st2" d="M75.1,134.7c-1.9-2.3-4.2-4.3-6.9-5.6c-0.3,0.2-18.3,17.1-20.2,18.8c-7,5.9-0.7,9,3.8,5.9
		C54.6,152,73,136.5,75.1,134.7z"/>
	<path class="st2" d="M80.4,142c-3,2.6-18.9,16.2-19.4,16.7c-5.6,4.6-0.1,8.3,4.5,6.5c3.7-1.5,15.6-12.2,19-15.3
		C83,147,81.8,144.3,80.4,142z"/>
	<path class="st3" d="M89,159.2c-2,1.4-3.8,2.7-5.4,3.9c0.7,2.9,1.2,5.9,1.5,8.9c1.7-1.1,3.7-2.5,6-4C90.2,165.1,90,161.7,89,159.2z
		"/>
	<path class="st3" d="M68.3,129.1l-4.3,4.1c2.4,1.5,4.7,3.3,6.7,5.3c2.2-1.9,3.9-3.3,4.5-3.8C73.3,132.4,70.9,130.5,68.3,129.1z"/>
	<path class="st3" d="M80.4,142l-4,3.5c1.6,2.5,3,5.2,4.2,8c1.7-1.5,3.1-2.8,4-3.6C83,147,81.8,144.3,80.4,142z"/>
	<path class="st1" d="M100,158.5c-2.9-14.8-23.2-56.4-40.6-39.5c-2.8,2.4-3.2,10-0.5,16.9c0.2-0.2,4-3.8,5.9-5.6
		c-1.6-13,42.5,33.3,25.5,100.8c0-15.5-12.4-55.4-13.1-57.9c-0.3,0.1-3.8-12.4-4-13.2c-0.5,0.4-3.6,2.8-6,4.5
		c4,12.7,9.5,33.7,9.3,32.2c3.3,12.8,6.2,27.1,8.7,51.1c-1.5,4.3-8.6,24.2-12,31.7c-4.9,12.3-25.2,64.3-27.4,89.3
		c-4.8,54,17.7,106.7,18.8,108.8l11.5-6.4c-0.1-0.2-5.1-31.6-7.2-38.1c0,0,11.7-45.1,18.5-77.9c4.9-22.3,9.5-49.9,6.4-89.3
		c-0.2-2.9-0.5-5.6-0.7-8.3c2.2-8.1,7.7-25.6,8.5-47.9c0.6-4.5,0.9-9.1,1.1-13.7C103.3,183.6,102.3,170.9,100,158.5z"/>
	<path class="st0" d="M62.1,119.7c0,0,21.3-0.9,35.1,50.1C97.1,169.8,86.2,116.5,62.1,119.7z"/>
	<path class="st0" d="M94.1,206c-4.3,29.4-11.9,48.7-21,73.6C33.2,389.2,53.6,440.2,64.3,439c16.9-1.8,8-0.5,8.5-7.6
		c-17.7,8.4-20.6-36.2-16-74.6C62.6,308.2,94.4,259.2,94.1,206z"/>
	<path class="st3" d="M189.3,82.6c0,0,37.4-54,13.5-69.6c-30.6-20-72.6,17.4-72.6,17.4c14.9-10.6,46.2-21,62.8-8.1
		C211,36.4,189.3,82.6,189.3,82.6z"/>
</g>
<g id="fork_pasta-2">
	<path class="st4" d="M65.1,171.6c0.2-0.1,1.3-1.7,2.7-3.6c-3.5-11.2-7.1-22.4-10-33.7C57.8,134.3,64.5,168.3,65.1,171.6z"/>
	<path class="st5" d="M64.1,128.7c0,0-6.8,2.3-7,2.5c0.1,0.5,0.7,3.1,0.7,3.1c2.9,11.3,6.6,22.5,10,33.7c2.2-3.1,4.9-7,5.2-7.2
		C71.9,157.5,64.9,131.8,64.1,128.7z"/>
	<path class="st4" d="M79.8,262c-0.8-12.9-1.3-23.6-1.8-33c-0.5-11-1-19.7-1.6-27.4c-2.3-25.7-6.3-25.8-10.3-38.6
		c-1.3,1-1.6-3.5-1.9-3.5c0.3,1.6,6.7,40.3,6.7,69.8c0,12.8,1.3,28.2,2.7,48l-1,2.5C77.1,274.6,79.9,261.7,79.8,262z"/>
	<path class="st5" d="M231.6-54.3c-1.8,1.2-11.1,12.5-17,18.8s-4.9,16.4-4.9,16.4c-3.5,7-22,16.1-38.1,21.3s-40.2,11.5-59.1,42.3
		s-49.3,64.7-65,81.1C34.6,139,29.3,144.1,31,147.3c1.9,3.5,7,0,11.9-4.9c2.2-2.2,40.1-39.7,47.2-47.9c13.3-15.3,26-30.7,32.1-38.2
		c2.1-2.6,6.6-2.1,8.8-0.2c2.2,2.1,2.5,5.5,0.6,7.9c-2,2.5-5.3,6.2-10.4,12c-13.5,15.4-31.6,33.8-45.7,47.6c2.3,1.6,6.3,2.2,8.6,4.7
		c6.7-6,13.9-12.8,21.2-20c19.2-19.2,29.8-30.8,35.5-37.3c2-2.3,4.7-3.1,7.1-1.2l0,0c2.5,2,3,5.6,1,8.1c-0.2,0.2-0.3,0.4-0.5,0.6
		c-10.9,10.8-25.1,26-40.5,40.4c-6.2,5.8-12.4,11.5-18.3,16.7c1.7,2.6,3.1,5.3,4.4,8.1c6.7-5.8,14.1-12.1,21.4-18.6
		c16.9-14.7,34.9-31.6,42.4-39.7c2-2.2,5.4-2.5,7.8-0.7l0,0c2.5,1.9,3,5.5,1.1,8.1c0,0,0,0,0,0c-0.1,0.1-0.2,0.2-0.3,0.3
		c-20.9,23.4-49.1,45.8-68.6,60.2c0.9,2.7,1.1,5.6,1.8,8.6c14-9.9,34-24.5,56.3-42.5c43-34.6,56.7-68,60.9-90.8s4.5-25.9,11.9-33.5
		c5.4-5.6,9.1-3.2,17.3-8.8v-41.2C240.9-56.7,235-56.7,231.6-54.3z"/>
	<path class="st5" d="M76.5,168.2l-0.2,0.1c-3.5,2.8-1.9,7.2,1.4,7s6.9-3.1,12.9-7c-0.9-2.9-1.1-6.3-2.1-8.8
		C82.5,163.8,77.6,167.4,76.5,168.2z"/>
	<path class="st5" d="M74.6,135c-1.9-2.3-4.2-4.3-6.9-5.6c-0.3,0.2-18.3,17.1-20.2,18.8c-7,5.9-0.7,9,3.8,5.9
		C54.1,152.3,72.5,136.8,74.6,135z"/>
	<path class="st5" d="M79.9,142.3c-3,2.7-18.9,16.2-19.4,16.7c-5.6,4.6-0.1,8.3,4.5,6.5c3.7-1.5,15.6-12.2,19-15.3
		C82.5,147.3,81.3,144.6,79.9,142.3z"/>
	<path class="st4" d="M88.5,159.5c-2,1.4-3.8,2.7-5.4,3.9c0.7,2.9,1.2,5.9,1.5,8.9c1.7-1.1,3.7-2.5,6-4
		C89.7,165.4,89.5,162,88.5,159.5z"/>
	<path class="st4" d="M67.8,129.4l-4.3,4.1c2.4,1.5,4.7,3.3,6.7,5.3c2.2-1.9,3.9-3.3,4.5-3.8C72.8,132.7,70.4,130.8,67.8,129.4z"/>
	<path class="st4" d="M79.9,142.3l-4,3.5c1.6,2.5,3,5.2,4.2,8c1.7-1.5,3.1-2.8,4-3.6C82.5,147.3,81.3,144.6,79.9,142.3z"/>
	<path class="st5" d="M99.5,158.8c-2.9-14.8-23.2-56.4-40.6-39.5c-2.8,2.4-3.2,10-0.5,16.9c0.2-0.2,4-3.8,5.9-5.6
		c-1.6-13,42.5,33.3,25.5,100.8c0-15.5-12.4-55.4-13.1-57.9c-0.3,0.1-3.8-12.4-4-13.2c-0.5,0.4-3.7,2.8-6,4.5
		c4,12.7,9.5,33.7,9.3,32.2c3.3,12.8,6.2,27.1,8.7,51.1c-1.5,4.3-8.6,24.2-12,31.7c-4.9,12.3-25.2,64.3-27.4,89.3
		C40.5,423.2,63,475.9,64.2,478l11.5-6.4c-0.1-0.2-5.1-31.6-7.2-38.1c0,0,11.7-45.1,18.5-77.9c4.9-22.3,9.6-49.9,6.4-89.3
		c-0.2-2.9-0.5-5.6-0.7-8.3c2.2-8.1,7.7-25.6,8.5-47.9c0.6-4.5,0.9-9.1,1.1-13.7C102.8,183.9,101.8,171.2,99.5,158.8z"/>
	<path class="st4" d="M61.6,120c0,0,21.3-0.9,35.1,50.1C96.7,170.1,85.7,116.8,61.6,120z"/>
	<path class="st4" d="M93.6,206.3c-4.3,29.4-11.9,48.7-21,73.7c-39.9,109.5-19.5,160.5-8.8,159.3c16.9-1.8,8-0.5,8.5-7.6
		c-17.7,8.4-20.6-36.2-16-74.6C62.1,308.5,93.9,259.5,93.6,206.3z"/>
	<path class="st4" d="M188.9,82.9c0,0,37.4-54,13.5-69.6c-30.6-20-72.6,17.4-72.6,17.4c14.9-10.7,46.2-21,62.8-8.1
		C210.5,36.7,188.9,82.9,188.9,82.9z"/>
</g>
<g>
	<g id="background_1_">
		<rect x="-145.1" y="-133" class="st6" width="439.9" height="439.9"/>
	</g>
	<g>
		<path class="st7" d="M274,271.6c6.6,6.6,13.2,13.3,19.8,19.9c2.6,2.6,5.1,5.2,7.8,7.7c0.5,0.5,0.8,1.4,1.8,1c0,1.3,0,2.5,0,3.8
			c-4.6-4.5-9.2-9.1-13.8-13.6c-5.2-5.2-10.4-10.4-15.6-15.6c-0.5-0.5-1-1.2-1.9-1.1c0-0.1,0-0.2,0-0.3c-0.9-1.5-2.1-2.7-3.4-3.8
			l0,0c-1.4-2-3.2-3.6-5.1-5.1c-0.2-0.4-0.4-0.7-0.8-0.7l0,0c-0.1-0.5-0.4-0.8-0.9-0.9c-0.5-0.7-1-1.3-1.8-1.6
			c-0.1-0.8-0.8-1.1-1.2-1.6c-6.3-6.3-12.6-12.6-18.9-18.9c-0.7-0.7-1.2-1.6-2.3-1.9c-0.1-0.8-0.8-1.2-1.3-1.7
			c-3.9-3.9-7.7-7.8-11.7-11.7c-3.1-3.1-6-6.4-9.4-9.2c-0.1-0.2-0.2-0.5-0.4-0.6c-6.4-6.4-12.7-12.7-19.1-19.1
			c-0.3-0.3-0.6-0.9-1.2-0.7c0.1-0.4-0.2-0.7-0.5-1c-2.3-2.2-4.5-4.4-6.8-6.6c-2.2-2.3-4.5-4.6-6.7-6.8c-0.4-0.4-0.7-0.9-1.4-0.8
			c0.3-0.5-0.1-0.8-0.4-1.1c-4.6-4.5-9.1-9.1-13.7-13.6l-0.1-0.1c-3.2-3.4-6.5-6.8-10-10c0.3-0.9,1.2-0.8,1.9-1.1
			c5.3,5.3,10.6,10.5,15.9,15.8c0.9,0.9,1.6,1.9,2.7,2.6c0.3,0.7,0.9,1.2,1.5,1.6c1.6,1.9,3.4,3.6,5.3,5.2c2.2,2.3,4.3,4.8,7,6.7
			c0,0.5,0.2,0.8,0.7,0.8c2.2,2.8,4.7,5.3,7.6,7.5c0.1,0.6,0.6,1,0.9,1.4c5.6,5.6,11.1,11.2,16.8,16.7c1,1,1.8,2.2,3.2,2.9
			c0.2,0.2,0.3,0.4,0.5,0.7c0.2,0.2,0.3,0.3,0.5,0.5c5.5,5.5,10.9,11,16.4,16.5c1.4,1.4,2.9,2.8,4.3,4.2c0.4,0.5,0.7,1.2,1.6,1.1
			l0,0c1.6,2.6,3.9,4.6,6.3,6.4l0,0c0,0.4,0.2,0.6,0.5,0.8c0.1,0.1,0.2,0.2,0.3,0.3c1.6,1.8,3.1,3.7,5.2,5l0,0
			c0,0.4,0.2,0.6,0.6,0.8c0.1,0.1,0.2,0.2,0.3,0.3c2.2,2.4,4.4,4.9,7.1,6.9c0,0,0,0,0,0c0.1,0.7,0.6,1.1,1.3,1.4c0,0,0-0.1,0-0.1
			c0,0.3,0.1,0.5,0.4,0.6c0.2,0.2,0.3,0.4,0.5,0.5c0.1,0.4,0.3,0.5,0.7,0.6c0.1,0.5,0.6,0.8,1,1c0.3,0.6,0.6,1.1,1.3,1.3
			c0.1,0.5,0.5,0.8,1,1c0.2,0.5,0.5,0.9,1.1,1c0,0,0-0.1,0-0.1c0,0.4,0.2,0.6,0.5,0.8c0.2,0.2,0.4,0.5,0.6,0.7
			c0.7,0.9,1.5,1.7,2.5,2.3C273,270.7,273.5,271.2,274,271.6z"/>
		<path class="st7" d="M134.8,281.1c-0.6-2.5-2.1-4.6-3.5-6.7c-2.1-4.4-4.4-8.7-7-12.9c-1.9-4.2-4.2-8.2-6.6-12.1
			c-1.9-4-4.1-7.9-6.3-11.7c-0.1-0.2-0.2-0.4-0.3-0.6c0-0.1-0.1-0.2-0.2-0.3c0-0.4-0.2-0.7-0.5-0.9c-0.1-0.2-0.2-0.4-0.3-0.5
			c0-0.3-0.2-0.5-0.4-0.7c-0.1-0.2-0.1-0.3-0.2-0.5c0-0.3-0.1-0.6-0.4-0.7c-0.1-0.2-0.2-0.3-0.2-0.5c-0.2-0.8-0.5-1.6-1.2-2.2
			c-0.1-0.3-0.2-0.6-0.3-0.9c-0.1-0.1-0.2-0.2-0.4-0.2c-0.1-0.5-0.1-1.1-0.9-0.8l0,0c0.3-1.6-0.9-2.7-1.5-3.9
			c-4.2-7.9-8.6-15.7-12.8-23.6c-0.7-1.4-1.4-2.4-3.1-2c1-1.4,2.5-0.7,3.7-1c2.9,4.6,5.2,9.5,7.9,14.3c0.8,1.4,1.3,3.1,2.6,4.2l0,0
			c-0.2,0.8,0.4,1.3,0.7,1.9c2.1,3.8,4.2,7.6,6.3,11.3c1.1,2,1.9,4.2,3.4,6c1.7,3.7,3.6,7.4,5.9,10.8c2,3.7,3.9,7.4,5.9,11.1
			c0.1,0.2,0.5,0.4,0.7,0.6c0.3,1.8,1.4,3.3,2.3,4.8c1.6,2.9,2.9,6.1,5,8.7c0.8,2.5,2,4.8,3.8,6.8c1.4,3.5,3.3,6.9,5.3,10.1
			c1.2,3.1,3,5.9,4.6,8.8c2.6,4.8,5.1,9.7,7.9,14.3c1.2,2.6,2.6,5,4.1,7.4l0,0c0,0.2,0,0.5,0.1,0.7c-0.9,0-1.8,0-2.6,0
			c-0.7-1.6-1.3-3.3-2.6-4.6c-0.6-1.7-1.5-3.2-2.4-4.7c-0.3-0.9-0.6-1.7-1.3-2.3c-3.1-6-6.2-11.9-9.7-17.7
			C138.6,287.5,136.9,284.1,134.8,281.1z"/>
		<path class="st7" d="M303.3,121.4c-3.8-2-8-3.2-12-4.8c-16.8-6.4-33.7-12.7-50.5-19.1c-13.5-5.1-27-10.1-40.5-15.2
			c-0.4-0.2-0.8-0.2-1.3-0.3c1.2-3,0.5-5.7-2.1-7c-2.1-1-4.4-1.7-6.6-2.5c-2.6-0.9-5.3-1.7-7.6-3.4c1.6-0.1,2.9,0.8,4.3,1.3
			c3.4,1.2,6.7,2.5,10,3.8c1.9,0.7,3.1,2.1,3.1,4.2c0,1,0.5,1.5,1.3,1.8c10.6,4,21.2,8,31.9,12c12.1,4.5,24.2,9.1,36.3,13.6
			c10.4,3.9,20.9,7.8,31.4,11.7c0.7,0.3,1.4,1,2.3,0.6C303.3,119.4,303.3,120.4,303.3,121.4z"/>
		<path class="st8" d="M43.4,121c-2.4-6.9-3.1-14.1-2.7-21.4c0.7-12.1,4.5-23.1,11.6-32.9C60.8,55,72.1,47.1,86.1,43.1
			c8.2-2.3,16.5-2.8,24.8-1.8c5.9,0.7,11.7,2.4,17.1,4.9c1,0.5,2,1,3.2,1.2c0.5,0.8,1.4,1.2,2.3,1.6c4.8,2.5,8.9,5.9,12.8,9.6
			c2.2,2.1,3.9,4.4,3.4,7.9c-0.9,6-3.5,11.2-6.5,16.4c-5.3,9.2-11.9,17.4-19,25.3c-1.2,1.4-2.5,2.6-3.8,3.9c0.8-5.3-0.7-9.3-5.2-12
			c-5.4-3.3-10.7-6.6-16.1-9.8c-2.8-1.7-5.2-1.4-7.2,0.7c-2.1,2.1-2.2,4.4-0.5,7.2c3.3,5.4,6.5,10.9,9.8,16.4
			c2.3,3.9,6.5,5.7,10.9,4.7c0.3-0.1,0.7-0.3,1,0.3c-0.2,0.2-0.3,0.5-0.5,0.7c-5.7,5.2-11.4,10.4-17.7,15c-2,1.4-3.7,3.2-6.1,4
			c-9.9-1.4-19.3-4.3-28.3-8.5c-3.8-1.8-7.4-4-11-6.2C47.4,123.4,45.8,121.5,43.4,121z M67.8,66.5c-0.1-1,0.1-2.3-1.1-2.9
			c-1.2-0.7-2,0.1-2.9,0.6c-1.1,0.6-2,1.5-2.8,2.5c-3.2,3.8-5.8,8.1-6.5,13.1c-0.2,1.2-0.3,2.7,1.1,3.3c1.3,0.7,2.4-0.2,3.4-0.9
			c1.7-1.2,3-2.9,4.2-4.5C65.6,74.4,67.5,70.8,67.8,66.5z M108.3,45.8c-1.3-0.2-2.7,0.2-3.9,0.9c-2.3,1.3-2.5,3.4-0.7,5.3
			c2.4,2.4,7.5,2.3,9.9-0.1c1.2-1.2,1.2-3,0.1-4.3C112.3,46,110.4,45.6,108.3,45.8z M97.2,46c-0.5,0.2-0.8,0.6-0.9,1.1
			c-0.8,2.3-1.6,4.5-2.3,6.8c-0.3,1-0.7,1.6-1.8,1.9c-2.2,0.6-4.3,1.4-6.4,2.2c-0.5,0.2-1.5,0.2-1.5,0.9c0,0.7,0.9,0.9,1.6,1.1
			c2,0.7,3.9,1.4,5.9,1.9c1.2,0.3,1.9,1,2.3,2.2c0.7,2.2,1.4,4.3,2.2,6.4c0.2,0.6,0.3,1.4,1.1,1.4c0.7,0,0.6-0.9,0.8-1.4
			c0.8-2.2,1.7-4.5,2.4-6.8c0.3-1.1,1-1.5,2-1.8c2.2-0.7,4.4-1.4,6.6-2.2c0.4-0.2,1.1-0.3,1-1c0-0.5-0.6-0.6-1-0.7
			c-2.3-0.8-4.6-1.7-6.9-2.4c-1.1-0.3-1.5-0.9-1.8-1.8c-0.7-2.3-1.5-4.5-2.2-6.8C97.9,46.7,97.9,46.1,97.2,46z M87.2,52.6
			c2.1,0,4-1.5,4-3.2c0-1.4-0.9-2-2.2-2c-1.8,0-4.1,2-4,3.6C85,52.3,86,52.7,87.2,52.6z"/>
		<path class="st9" d="M182.8,69.2c2.3,1.6,4.9,2.5,7.6,3.4c2.2,0.8,4.5,1.4,6.6,2.5c2.7,1.3,3.4,4,2.1,7c-0.1,0.1-0.1,0.2-0.2,0.4
			c-1.8,0.6-3.5,1.8-5.6,0.8c-1-0.5-2-0.9-3.1-1.3c-1.7-0.6-3.2-1.8-5.2-1.4c-3.1-0.5-5.9-2-8.8-3.1c-5.5-2-10.9-4.1-16.3-6.1
			c-1-0.4-1.7-0.5-1.4,1.1c0.2,1.2,0.1,2.4,0.2,3.6c-0.4,1.4-0.8,2.8-1.3,4.1c-3,9.4-8.5,17.3-14.2,25.1
			c-3.9,5.3-8.1,10.4-12.8,15.1c-0.9,0.9-0.7,1.4,0.1,2.2c2.7,2.6,5.3,5.2,7.9,7.9c0.8,0.7,1.4,1.7,2.4,2.1c1.5,2.2,3.6,3.9,5.5,5.8
			c1.4,1.4,2.7,3.2,4.5,4.2c1.5,1.6,3,3.3,4.6,4.9c1.8,1.8,2.9,3.6,1.5,6.2c-0.2,0.3-0.1,0.7-0.1,1.1c-0.7,0.2-1.6,0.1-1.9,1.1
			c-2.3,1.6-3.9,1.6-5.9-0.2c-1-0.9-1.9-1.9-2.8-2.7c-1-0.9-1.7-2.2-3.1-2.7c-0.2-0.9-0.9-1.5-1.5-2.1c-3.4-3.4-6.9-6.9-10.3-10.3
			c-0.5-0.5-0.9-1.1-1.6-1.2c-1.9-2.7-4.5-4.7-6.7-7.1c-0.7-0.7-1.2-0.3-1.8,0.3c-3.4,3.5-7.3,6.6-10.9,9.9
			c-2.8,2.1-5.6,4.3-8.4,6.3c-7.2,5.3-14.7,10-23.4,12.6c-0.7,0.2-1.2,0.4-1.1,1.2c-1.6,0.6-0.2,1.4,0,1.9
			c5.2,9.7,10.4,19.3,15.6,28.9c1.6,2.9,2.2,4.8-0.5,7.7c-1.2,0.4-2.8-0.4-3.7,1c-2.4,0.4-3.5-1.2-4.5-3c-3.2-5.9-6.4-11.8-9.6-17.7
			c-2.7-4.9-5.3-9.8-8-14.7c-1.2-2.1-1.3-4,0.4-5.8c0.6-0.6,0.6-1.2,0.2-1.9c-0.3-0.6-0.8-1.1-0.8-1.9c0.5,0,1,0.3,1.4,0.4
			c1.8,0.4,2.9,2.1,4.9,2.3c3,0.2,5.9-0.5,8.6-1.6c5-2,9.6-4.6,14.1-7.5c3.5-2.3,6.9-4.5,9.9-7.4c5.4-3.6,10-8.1,14.8-12.5
			c0.5-0.5,0.5-1,0.3-1.7c-0.3-1.5-0.2-2.9,0.9-4.1c0.7-0.3,0.9-1,1.3-1.5c1.1-0.5,2.2-1.1,3.4-0.8c1.7,0.4,2.7-0.5,3.7-1.6
			c2.8-3.3,5.7-6.5,8.4-9.9c5.9-7.3,11.4-14.9,15.2-23.5c2.2-4.9,4.6-9.9,1.7-15.4c-0.1-1.6,0.2-3.2-0.8-4.6c0.7-0.1,1-0.6,1.4-1.1
			c2-2.4,3.7-2.8,6.6-1.6c2.1,0.9,4.1,1.8,6.4,1.9c0,0,0.1,0,0.1,0c1,1.3,2.6,1.4,3.9,1.9C176,67.1,179.1,68.8,182.8,69.2
			L182.8,69.2z"/>
		<path class="st9" d="M88.8,139.3c2.4-0.8,4.1-2.6,6.1-4c6.3-4.6,12-9.8,17.7-15c0.2-0.2,0.4-0.5,0.5-0.7c-0.3-0.6-0.7-0.4-1-0.3
			c-4.4,1.1-8.6-0.8-10.9-4.7c-3.2-5.5-6.5-10.9-9.8-16.4c-1.7-2.8-1.6-5.1,0.5-7.2c2.1-2.1,4.4-2.4,7.2-0.7
			c5.4,3.2,10.7,6.5,16.1,9.8c4.5,2.7,6,6.7,5.2,12c1.3-1.3,2.5-2.6,3.8-3.9c7-7.9,13.6-16.1,19-25.3c3-5.1,5.6-10.4,6.5-16.4
			c0.5-3.5-1.1-5.8-3.4-7.9c-3.9-3.7-8-7.1-12.8-9.6c-0.8-0.4-1.7-0.8-2.3-1.6c3-0.5,5.9,0.7,8.9,0.8c1.3,0,2.6,0.1,3.9,0.4
			c4.9,1.2,7.9,5.3,7.7,10.4c0,0.9-0.3,1.9,0,2.8c-0.2,1,0.4,1.7,0.8,2.5c-1.2-0.1-0.6,0.7-0.5,1.2c-0.3,1.3-0.5,2.7-0.9,4
			C149,77.8,144.6,85,139.7,92c-6.1,8.8-13,16.9-20.6,24.5c-0.8-0.1-1.6-0.7-2.3,0c-0.7,0.8,0.4,1.2,0.5,1.8
			c-6.3,6.3-13,12.2-20,17.6c-1.7,1.3-3.6,2.3-4.9,3.9c-2.1,1-4,2.4-5.9,3.6c-5.9,3.7-12,7.1-19,8.3c-0.7,0.1-1.4,0.2-1.7,1
			c-1.3-0.6-2.7-1-4.2-0.9c-5.8,0.3-9.2-1.9-11-7.5c-1.2-4-2.1-8.1-3.1-12.1c0.2,0.1,0.4,0.2,0.5,0.3c2.5,4.4,5.4,8.6,8.9,12.3
			c2,2.1,3.6,4.9,6.9,5c2.4,0.1,4.8-0.3,7.2-1.1c4.1-1.4,8-3.2,11.7-5.5C84.8,142.1,87.2,141.3,88.8,139.3z"/>
		<path class="st10" d="M88.8,139.3c-1.6,2-4,2.8-6,4.1c-3.7,2.3-7.6,4.1-11.7,5.5c-2.3,0.8-4.7,1.2-7.2,1.1c-3.4-0.1-5-3-6.9-5
			c-3.5-3.7-6.4-7.9-8.9-12.3c-0.1-0.1-0.3-0.2-0.5-0.3c-1.2-3.6-3.1-6.9-4.1-10.6c-0.1-0.2-0.1-0.5-0.1-0.7
			c2.4,0.5,4.1,2.4,6.1,3.6c3.6,2.2,7.2,4.4,11,6.2C69.4,135,78.9,137.8,88.8,139.3z"/>
		<path class="st10" d="M65.8,152.9c0.2-0.8,1-0.9,1.7-1c7-1.2,13.1-4.7,19-8.3c2-1.2,3.8-2.6,5.9-3.6c4.3,0.2,8.7,0.3,13,0.5
			c-3,2.9-6.4,5.2-9.9,7.4c-4.5,2.9-9.1,5.5-14.1,7.5c-2.8,1.1-5.6,1.9-8.6,1.6c-1.9-0.2-3-1.9-4.9-2.3c-0.4-0.1-0.9-0.4-1.4-0.4
			c-0.1-0.1-0.1-0.2-0.2-0.3c-0.1-0.1-0.2-0.3-0.3-0.4C66,153.3,65.9,153.1,65.8,152.9z"/>
		<path class="st11" d="M-5.7,79.4c5.1,0.1,6.7-3.2,7.6-7.3c0.2,0.1,0.3,0.2,0.5,0.3c0.4,1.2,1,2.4,1.3,3.6c0.3,1.2,0.7,2,2.1,2.3
			c1.4,0.3,2.8,0.9,4.4,1.7c-4.4,0.9-7.3,3.2-7.7,8C1.8,86.6,1,85.7,1,84.3c-0.1-2-1.4-3-3.3-3.3C-3.4,80.9-4.6,80.9-5.7,79.4z"/>
		<path class="st11" d="M53.8,241.5c-0.5-1.6-1.3-3.1-1.4-4.8c0-0.7-0.6-1-1.2-1.2c-1.5-0.5-3.1-1-4.7-1.6c0.9-1.1,2.2-1.1,3.2-1.4
			c1.7-0.5,2.9-1.2,3.3-3.1c0.2-1.1,0.7-2.2,1.1-3.5c1.4,1.8,1,4.2,2.4,5.6c1.4,1.4,3.7,1.2,5.7,2.4c-1.6,0.4-2.6,1.2-4,1.4
			c-1.4,0.2-2.1,1-2.6,2.5C55.1,239,55.2,240.6,53.8,241.5z"/>
		<path class="st11" d="M153.7,14.3c-1,0.4-1.5,0.8-2.1,0.8c-3.3,0.3-4.8,2.4-5.4,5.4c0,0.2-0.1,0.4-0.1,0.6
			c-0.1,0.4-0.1,0.8-0.6,0.8c-0.3,0-0.3-0.4-0.5-0.7c-0.6-1.1-0.9-2.3-1.2-3.4c-0.4-1.3-1-1.6-2.2-1.9c-1.3-0.3-2.5-0.8-3.9-1.4
			c1.3-1,2.8-1.4,4-1.6c1.7-0.3,2-1.5,2.5-2.7c0.2-0.5,0.1-1.1,0.5-1.6c0.5-0.5-0.2-1.8,0.8-1.8c0.8,0,0.3,1.3,0.8,1.9
			c0.1,0.1,0.2,0.3,0.2,0.5c0.1,2.7,1.9,3.5,4.1,4.1C151.6,13.6,152.4,13.9,153.7,14.3z"/>
		<path class="st7" d="M152.5,64.3c-0.4-0.8-1-1.5-0.8-2.5c0.5-0.1,0.8,0.3,1.2,0.5c1.3,0.6,2.5,0.9,3.6-0.5
			c0.8-1.1,2.1-1.5,3.4-1.3c3.1,0.7,6,1.8,8.8,3.3c-2.3,0-4.3-1-6.4-1.9c-2.8-1.2-4.6-0.8-6.6,1.6c-0.4,0.5-0.8,1-1.4,1.1
			C153.6,64.8,153,64.7,152.5,64.3z"/>
		<path class="st7" d="M182.7,69.2c-3.6-0.5-6.8-2.1-10.1-3.4c-1.3-0.5-2.9-0.6-3.9-1.9c3,0.4,5.6,1.9,8.3,2.8
			C179,67.5,181,68,182.7,69.2z"/>
		<path class="st12" d="M43.1-1.7c-1.2-0.2-1.9-0.8-1.9-2c0-1,0.9-1.7,1.9-1.7c1.2,0,1.8,0.7,1.8,1.9C44.9-2.3,44.1-1.9,43.1-1.7z"
			/>
		<path class="st12" d="M10.1,97.2c-1.4,0-2.2-0.6-2.2-1.6c0-1.2,0.8-1.9,1.9-1.9c1,0,1.8,0.7,1.8,1.8
			C11.7,96.7,10.9,97.1,10.1,97.2z"/>
		<path class="st13" d="M69,243.4c0-1.1,0.6-1.7,1.7-1.7c1.2,0,1.7,0.8,1.7,1.9c0,1-0.7,1.7-1.7,1.7C69.7,245.2,69,244.6,69,243.4z"
			/>
		<path class="st11" d="M9.4,106.7c1,0.4,2.1,0.7,2.1,1.9c0,1.3-1,2.1-2,2.1c-1,0-1.6-1-1.7-2.2C7.7,107.3,8.7,107.2,9.4,106.7z"/>
		<path class="st14" d="M229.2,69.8c-0.2,1.1-0.7,1.8-1.8,1.9c-1.1,0.1-1.8-0.5-1.9-1.6c-0.1-1.3,0.7-2,1.9-2.1
			C228.5,68,228.9,69,229.2,69.8z"/>
		<path class="st13" d="M11.1,312.2c0,0.5-0.5,1.2-1.5,1.2c-1.1,0.1-1.8-0.6-1.8-1.7c-0.1-1.1,0.6-1.9,1.7-1.9
			C10.4,309.9,11.1,310.6,11.1,312.2z"/>
		<path class="st12" d="M270.8,8.4c-0.1,1.2-0.6,2-1.7,2c-1.2,0-1.8-0.7-1.8-1.9c0-1.1,0.7-1.8,1.8-1.8
			C270.2,6.8,270.7,7.5,270.8,8.4z"/>
		<path class="st12" d="M15.8,237.3c-1-0.2-1.8-0.7-1.9-1.8c-0.1-1.1,0.5-1.8,1.7-1.8c1.2,0,2,0.5,2,1.7
			C17.7,236.6,16.8,237,15.8,237.3z"/>
		<path class="st12" d="M-13.9,171c1.1,0,1.8,0.5,1.9,1.7c0,1.1-0.6,1.8-1.7,1.8c-1.1,0.1-1.8-0.5-1.8-1.7
			C-15.6,171.6-15.1,171.1-13.9,171z"/>
		<path class="st13" d="M81.7,220.5c0.1-1.2,0.9-1.6,1.9-1.5c1,0.1,1.6,0.8,1.5,1.8c-0.1,1-0.7,1.8-1.8,1.7
			C82.2,222.2,81.6,221.6,81.7,220.5z"/>
		<path class="st11" d="M273.6,84.5c-1.3-0.1-2.2-0.8-2.2-1.7c0-1,1.1-1.9,2.1-1.9c1,0,1.9,0.6,1.8,1.9
			C275.2,83.9,274.5,84.5,273.6,84.5z"/>
		<path class="st11" d="M159.6,8.8c1,0,1.6,0.6,1.7,1.7c0.1,1.2-1.1,1.9-1.9,1.9c-0.8,0-1.9-0.6-1.8-1.9
			C157.7,9.3,158.3,8.7,159.6,8.8z"/>
		<path class="st11" d="M22.7,221.7c-1.1,0-1.7-0.5-1.6-1.7c0-1.2,0.6-1.8,1.7-1.9c1.1-0.1,1.8,0.6,1.8,1.7
			C24.6,220.9,24,221.7,22.7,221.7z"/>
		<path class="st9" d="M66.1,153.5c0.1,0.1,0.2,0.3,0.3,0.4C66.3,153.7,66.2,153.6,66.1,153.5z"/>
		<path class="st8" d="M140.7,132.5c-1-0.4-1.7-1.3-2.4-2.1c-2.6-2.6-5.2-5.3-7.9-7.9c-0.8-0.8-1-1.3-0.1-2.2
			c4.6-4.7,8.9-9.8,12.8-15.1c5.8-7.8,11.2-15.8,14.2-25.1c0.4-1.4,0.8-2.7,1.3-4.1c5.7,11.5,7.4,23.7,5.6,36.3
			c-0.3,2.3-0.7,4.6-1.5,6.8c-0.4,0.1-0.6,0.3-0.3,0.7c-0.1,0.4-0.2,0.8-0.2,1.2c-0.5,0-1,0.1-1.4,0.4c-3.7,2.8-7.7,5.2-11.8,7.3
			C146.2,130.1,143.6,131.7,140.7,132.5z"/>
		<path class="st10" d="M140.7,132.5c2.9-0.8,5.5-2.3,8.2-3.7c4.1-2.2,8.1-4.5,11.8-7.3c0.4-0.3,0.9-0.4,1.4-0.4
			c-1.7,6.7-5,12.7-8.9,18.3c-0.8,1.1-1.6,2.1-2.3,3.2c-1.8-1-3.1-2.7-4.5-4.2C144.3,136.4,142.2,134.7,140.7,132.5z"/>
		<path class="st11" d="M194.5,108.7c-1.2,0.5-1.8,0.8-2.5,0.9c-2.9,0.5-4.7,2-4.8,5.1c0,0.5-0.4,1-0.9,2.2
			c-0.9-4.7-3.2-7.5-7.8-8.2c4.5-0.9,7.3-3.3,7.6-8c0.1,0.1,0.3,0.2,0.4,0.3c0.5,1.4,1.2,2.7,1.4,4.1c0.3,1.5,1.2,1.8,2.4,2.2
			C191.5,107.6,192.7,108.1,194.5,108.7z"/>
		<path class="st7" d="M184.9,80.6c2-0.4,3.5,0.8,5.2,1.4c1,0.4,2.1,0.8,3.1,1.3c2.1,1,3.8-0.2,5.6-0.8c-0.9,1.6-2.5,2.5-4,2
			C191.4,83.4,188,82.4,184.9,80.6z"/>
		<path class="st13" d="M190.1,165.3c0,1.1-0.7,1.7-1.8,1.7c-1.2,0-1.8-0.8-1.7-1.8c0-1,0.8-1.8,1.8-1.8
			C189.4,163.4,190.1,164.1,190.1,165.3z"/>
		<path class="st11" d="M165.4,149.8c-0.3,1.2-1.1,1.9-2.3,1.8c-1.1,0-1.5-0.9-1.4-1.8c0.1-1.2,0.7-1.9,1.9-1.9
			C164.7,147.9,165.2,148.8,165.4,149.8z"/>
		<path class="st10" d="M162.2,119.8c-0.3-0.4-0.1-0.6,0.3-0.7C162.6,119.4,162.5,119.7,162.2,119.8z"/>
		<path class="st11" d="M67.8,66.5c-0.3,4.3-2.2,7.9-4.6,11.2c-1.2,1.7-2.5,3.3-4.2,4.5c-1.1,0.7-2.1,1.6-3.4,0.9
			c-1.4-0.7-1.3-2.1-1.1-3.3c0.7-5.1,3.2-9.3,6.5-13.1c0.8-1,1.7-1.8,2.8-2.5c0.9-0.5,1.8-1.3,2.9-0.6
			C67.9,64.3,67.7,65.5,67.8,66.5z"/>
		<path class="st15" d="M108.3,45.8c2.1-0.2,4,0.3,5.4,1.9c1.1,1.3,1.1,3.1-0.1,4.3c-2.4,2.4-7.5,2.4-9.9,0.1
			c-1.8-1.8-1.6-3.9,0.7-5.3C105.6,46,106.9,45.6,108.3,45.8z"/>
		<path class="st15" d="M97.2,46c0.7,0.1,0.7,0.7,0.8,1.1c0.8,2.3,1.5,4.5,2.2,6.8c0.3,1,0.8,1.5,1.8,1.8c2.3,0.7,4.6,1.6,6.9,2.4
			c0.4,0.1,1,0.2,1,0.7c0,0.6-0.6,0.8-1,1c-2.2,0.8-4.4,1.5-6.6,2.2c-1,0.3-1.6,0.7-2,1.8c-0.7,2.3-1.5,4.5-2.4,6.8
			c-0.2,0.5-0.1,1.3-0.8,1.4c-0.7,0-0.9-0.8-1.1-1.4c-0.8-2.1-1.5-4.2-2.2-6.4c-0.4-1.2-1.1-1.9-2.3-2.2c-2-0.6-3.9-1.2-5.9-1.9
			c-0.6-0.2-1.5-0.4-1.6-1.1c0-0.7,0.9-0.7,1.5-0.9c2.1-0.8,4.2-1.6,6.4-2.2c1.1-0.3,1.5-0.9,1.8-1.9c0.7-2.3,1.5-4.5,2.3-6.8
			C96.4,46.6,96.7,46.2,97.2,46z M97,70.3c1.1-1.6,1.6-3.2,1.9-4.9c0.5-2.4,1.6-3.9,4.1-4.4c1.5-0.3,2.9-0.9,4.3-1.4
			c0.3-0.1,0.9-0.1,0.8-0.6c0-0.2-0.4-0.5-0.7-0.6c-1.4-0.5-2.7-0.9-4.1-1.3c-1.9-0.5-3.5-1.1-4-3.4c-0.3-1.3-0.8-2.5-1.1-3.8
			c-0.2-0.6-0.2-1.4-1-1.4c-0.8,0-0.8,0.9-1,1.4c-0.2,0.5-0.3,1.1-0.4,1.6c-0.6,2.9-1.7,5.2-5,5.7c-1.2,0.2-2.3,0.7-3.4,1
			c-0.5,0.1-1.1,0.2-1.1,0.8c0,0.5,0.6,0.5,1,0.7c1.7,0.6,3.3,1.2,5,1.6c1.6,0.4,2.3,1.3,2.7,2.8C95.5,66.1,96.3,68.1,97,70.3z"/>
		<path class="st15" d="M87.2,52.6c-1.2,0.1-2.2-0.3-2.2-1.7c-0.1-1.6,2.2-3.6,4-3.6c1.3,0,2.2,0.6,2.2,2
			C91.2,51.1,89.3,52.6,87.2,52.6z"/>
		<path class="st10" d="M143,150.1c-17.2,15.5-44.7,19.4-65.6,9.5c-0.1-0.8,0.4-1,1.1-1.2c8.6-2.6,16.2-7.3,23.4-12.6
			c2.8-2.1,5.6-4.2,8.4-6.3c0.8,0.7,1.8,0.5,2.7,0.3c3.3-0.5,6.6-0.8,9.8-1.6c2.3-0.6,4.7-0.5,6.9-1.8c0.7,0.1,1.1,0.7,1.6,1.2
			c3.5,3.4,6.9,6.9,10.3,10.3C142.1,148.6,142.8,149.2,143,150.1z"/>
		<path class="st8" d="M119.2,116.5c7.5-7.6,14.5-15.7,20.6-24.5c4.8-7,9.3-14.2,11.5-22.5c0.3-1.3,0.6-2.7,0.9-4
			c1,1.3,1.7,2.9,3,3.9c2.9,5.5,0.5,10.5-1.7,15.4c-3.9,8.6-9.3,16.2-15.2,23.5c-2.7,3.4-5.6,6.6-8.4,9.9c-1,1.2-2,2-3.7,1.6
			c-1.2-0.3-2.3,0.3-3.4,0.8C121.7,119.1,119.8,118.3,119.2,116.5z"/>
		<path class="st8" d="M105.4,140.4c-4.3-0.2-8.7-0.3-13-0.5c1.4-1.7,3.3-2.7,4.9-3.9c7.1-5.4,13.7-11.4,20-17.6
			c1.5,1.1,2.7,2.5,3.9,3.8c-1,1.2-1.2,2.6-0.9,4.1c0.1,0.7,0.2,1.2-0.3,1.7C115.4,132.3,110.8,136.8,105.4,140.4z"/>
		<path class="st8" d="M129.6,136.5c-2.1,1.2-4.6,1.2-6.9,1.8c-3.2,0.8-6.5,1.2-9.8,1.6c-0.9,0.1-1.9,0.3-2.7-0.3
			c3.6-3.3,7.5-6.3,10.9-9.9c0.5-0.5,1.1-1,1.8-0.3C125.1,131.8,127.7,133.8,129.6,136.5z"/>
		<path class="st7" d="M121.3,122.1c-1.2-1.4-2.5-2.7-3.9-3.8c0-0.6-1.1-1.1-0.5-1.8c0.7-0.8,1.5-0.1,2.3,0c0.6,1.8,2.5,2.6,3.5,4.2
			C122.2,121.2,122,121.8,121.3,122.1z"/>
		<path class="st11" d="M124.5,196.6c1.3-0.1,2,0.6,2,1.7c0,1.1-0.8,1.9-2,1.8c-1.2,0-1.9-0.6-1.9-2
			C122.6,196.7,123.5,196.7,124.5,196.6z"/>
		<path class="st11" d="M97,70.3c-0.7-2.2-1.5-4.2-2.1-6.2c-0.4-1.4-1.1-2.4-2.7-2.8c-1.7-0.4-3.4-1-5-1.6c-0.4-0.1-1-0.1-1-0.7
			c0-0.6,0.6-0.7,1.1-0.8c1.1-0.4,2.3-0.9,3.4-1c3.3-0.5,4.4-2.8,5-5.7c0.1-0.6,0.2-1.1,0.4-1.6c0.2-0.5,0.2-1.4,1-1.4
			c0.8,0,0.8,0.8,1,1.4c0.4,1.3,0.9,2.5,1.1,3.8c0.4,2.2,2.1,2.9,4,3.4c1.4,0.3,2.8,0.8,4.1,1.3c0.3,0.1,0.6,0.3,0.7,0.6
			c0.1,0.5-0.4,0.5-0.8,0.6c-1.4,0.5-2.8,1.1-4.3,1.4c-2.5,0.5-3.6,2.1-4.1,4.4C98.6,67,98.1,68.6,97,70.3z"/>
	</g>
</g>
</svg>
